<svg xmlns="http://www.w3.org/2000/svg" xmlns:xlink="http://www.w3.org/1999/xlink" width="350" zoomAndPan="magnify" viewBox="0 0 262.5 197.249993" height="263" preserveAspectRatio="xMidYMid meet" version="1.0"><defs><g/><clipPath id="c32a47f1bd"><path d="M 0.25 0 L 261.753906 0 L 261.753906 196.503906 L 0.25 196.503906 Z M 0.25 0 " clip-rule="nonzero"/></clipPath><clipPath id="d127d2eeee"><path d="M 3.734375 160.609375 L 258.265625 160.609375 L 258.265625 184.128906 L 3.734375 184.128906 Z M 3.734375 160.609375 " clip-rule="nonzero"/></clipPath></defs><g clip-path="url(#c32a47f1bd)"><path fill="#ffffff" d="M 0.25 0 L 261.753906 0 L 261.753906 196.503906 L 0.25 196.503906 Z M 0.25 0 " fill-opacity="1" fill-rule="nonzero"/><path fill="#f6f6f6" d="M 0.25 0 L 261.753906 0 L 261.753906 196.503906 L 0.25 196.503906 Z M 0.25 0 " fill-opacity="1" fill-rule="nonzero"/></g><g clip-path="url(#d127d2eeee)"><path fill="#f9342c" d="M 3.734375 160.609375 L 258.285156 160.609375 L 258.285156 184.128906 L 3.734375 184.128906 Z M 3.734375 160.609375 " fill-opacity="1" fill-rule="nonzero"/></g><path fill="#d22828" d="M 106.289062 55.257812 C 106.574219 57.304688 105.199219 76.730469 107.425781 76.835938 C 108.609375 76.890625 109.414062 77.132812 111.136719 77.132812 C 115.421875 77.132812 141.753906 77.734375 143.242188 76.960938 C 144.859375 76.117188 143.582031 55.144531 143.566406 55.144531 C 122.023438 53.859375 106.253906 55.21875 106.289062 55.257812 " fill-opacity="1" fill-rule="evenodd"/><path fill="#231916" d="M 122.433594 79.660156 L 93.523438 100.488281 L 93.523438 124.292969 L 92.601562 124.292969 L 92.601562 100.019531 L 121.894531 78.914062 Z M 122.433594 79.660156 " fill-opacity="1" fill-rule="nonzero"/><path fill="#231916" d="M 145.109375 66.804688 L 199.597656 66.804688 L 205.675781 44.132812 L 206.566406 44.367188 L 200.304688 67.726562 L 145.109375 67.726562 Z M 145.109375 66.804688 " fill-opacity="1" fill-rule="nonzero"/><path fill="#34c6a1" d="M 75.230469 125.703125 C 75.515625 127.75 74.144531 147.175781 76.363281 147.28125 C 77.550781 147.339844 78.355469 147.582031 80.074219 147.582031 C 84.367188 147.582031 110.695312 148.183594 112.183594 147.40625 C 113.800781 146.5625 112.523438 125.589844 112.511719 125.589844 C 90.964844 124.308594 75.195312 125.664062 75.230469 125.703125 " fill-opacity="1" fill-rule="evenodd"/><path fill="#06b7e5" d="M 188.703125 21.042969 C 188.980469 23.089844 187.609375 42.515625 189.832031 42.621094 C 191.019531 42.675781 191.824219 42.917969 193.546875 42.917969 C 197.835938 42.917969 224.164062 43.523438 225.648438 42.746094 C 227.265625 41.902344 225.992188 20.949219 225.976562 20.949219 C 204.4375 19.667969 188.660156 21.027344 188.703125 21.0625 " fill-opacity="1" fill-rule="evenodd"/><path fill="#ffa100" d="M 150.210938 94.675781 C 150.488281 96.722656 149.121094 116.148438 151.335938 116.25 C 152.523438 116.308594 153.328125 116.550781 155.054688 116.550781 C 159.339844 116.550781 185.671875 117.152344 187.160156 116.375 C 188.773438 115.535156 187.5 94.5625 187.484375 94.5625 C 165.941406 93.277344 150.171875 94.636719 150.210938 94.675781 " fill-opacity="1" fill-rule="evenodd"/><path fill="#231916" d="M 125.824219 78.445312 L 139.824219 105.3125 L 148.359375 105.3125 L 148.359375 106.234375 L 139.265625 106.234375 L 125.007812 78.867188 Z M 125.824219 78.445312 " fill-opacity="1" fill-rule="nonzero"/><path fill="#99cb1b" d="M 35.777344 40.160156 C 36.0625 42.207031 34.6875 61.632812 36.914062 61.738281 C 38.097656 61.796875 38.902344 62.039062 40.621094 62.039062 C 44.914062 62.039062 71.242188 62.640625 72.730469 61.863281 C 74.347656 61.019531 73.070312 40.050781 73.054688 40.046875 C 51.511719 38.765625 35.742188 40.121094 35.777344 40.160156 " fill-opacity="1" fill-rule="evenodd"/><path fill="#231916" d="M 104.246094 66.542969 L 89.617188 51.929688 L 74.628906 51.929688 L 74.628906 51.007812 L 90 51.007812 L 104.894531 65.886719 Z M 104.246094 66.542969 " fill-opacity="1" fill-rule="nonzero"/><g fill="#f6f6f6" fill-opacity="1"><g transform="translate(11.408799, 177.599702)"><g><path d="M 5.515625 0.078125 C 4.828125 0.078125 4.175781 -0.0625 3.5625 -0.34375 C 2.945312 -0.625 2.40625 -1.007812 1.9375 -1.5 C 1.476562 -1.988281 1.117188 -2.5625 0.859375 -3.21875 C 0.609375 -3.882812 0.484375 -4.597656 0.484375 -5.359375 C 0.484375 -6.085938 0.609375 -6.769531 0.859375 -7.40625 C 1.117188 -8.050781 1.484375 -8.617188 1.953125 -9.109375 C 2.421875 -9.597656 2.96875 -9.984375 3.59375 -10.265625 C 4.226562 -10.546875 4.910156 -10.6875 5.640625 -10.6875 C 6.640625 -10.6875 7.492188 -10.472656 8.203125 -10.046875 C 8.921875 -9.617188 9.457031 -9.054688 9.8125 -8.359375 L 8.28125 -7.234375 C 8.007812 -7.753906 7.628906 -8.15625 7.140625 -8.4375 C 6.660156 -8.71875 6.140625 -8.859375 5.578125 -8.859375 C 5.128906 -8.859375 4.71875 -8.765625 4.34375 -8.578125 C 3.976562 -8.390625 3.660156 -8.128906 3.390625 -7.796875 C 3.117188 -7.460938 2.910156 -7.082031 2.765625 -6.65625 C 2.617188 -6.226562 2.546875 -5.773438 2.546875 -5.296875 C 2.546875 -4.796875 2.625 -4.328125 2.78125 -3.890625 C 2.9375 -3.460938 3.15625 -3.085938 3.4375 -2.765625 C 3.726562 -2.453125 4.0625 -2.203125 4.4375 -2.015625 C 4.8125 -1.835938 5.226562 -1.75 5.6875 -1.75 C 6.226562 -1.75 6.742188 -1.882812 7.234375 -2.15625 C 7.734375 -2.4375 8.195312 -2.847656 8.625 -3.390625 L 8.625 -1.359375 C 7.738281 -0.398438 6.703125 0.078125 5.515625 0.078125 Z M 8.46875 -3.9375 L 6.328125 -3.9375 L 6.328125 -5.453125 L 10.171875 -5.453125 L 10.171875 0 L 8.46875 0 Z M 8.46875 -3.9375 "/></g></g></g><g fill="#f6f6f6" fill-opacity="1"><g transform="translate(22.242593, 177.599702)"><g><path d="M 5.578125 -6.09375 C 4.960938 -6.09375 4.414062 -5.972656 3.9375 -5.734375 C 3.457031 -5.503906 3.113281 -5.171875 2.90625 -4.734375 L 2.90625 0 L 0.90625 0 L 0.90625 -7.828125 L 2.75 -7.828125 L 2.75 -6.15625 C 3.03125 -6.6875 3.382812 -7.109375 3.8125 -7.421875 C 4.238281 -7.734375 4.691406 -7.90625 5.171875 -7.9375 C 5.273438 -7.9375 5.359375 -7.9375 5.421875 -7.9375 C 5.484375 -7.9375 5.535156 -7.929688 5.578125 -7.921875 Z M 5.578125 -6.09375 "/></g></g></g><g fill="#f6f6f6" fill-opacity="1"><g transform="translate(28.025597, 177.599702)"><g><path d="M 4.53125 0.15625 C 3.882812 0.15625 3.304688 0.046875 2.796875 -0.171875 C 2.296875 -0.390625 1.867188 -0.6875 1.515625 -1.0625 C 1.160156 -1.4375 0.890625 -1.867188 0.703125 -2.359375 C 0.515625 -2.847656 0.421875 -3.363281 0.421875 -3.90625 C 0.421875 -4.445312 0.515625 -4.960938 0.703125 -5.453125 C 0.890625 -5.941406 1.160156 -6.375 1.515625 -6.75 C 1.867188 -7.125 2.296875 -7.421875 2.796875 -7.640625 C 3.304688 -7.859375 3.882812 -7.96875 4.53125 -7.96875 C 5.164062 -7.96875 5.734375 -7.859375 6.234375 -7.640625 C 6.734375 -7.421875 7.160156 -7.125 7.515625 -6.75 C 7.878906 -6.375 8.15625 -5.941406 8.34375 -5.453125 C 8.53125 -4.960938 8.625 -4.445312 8.625 -3.90625 C 8.625 -3.363281 8.53125 -2.847656 8.34375 -2.359375 C 8.15625 -1.867188 7.882812 -1.4375 7.53125 -1.0625 C 7.175781 -0.6875 6.742188 -0.390625 6.234375 -0.171875 C 5.734375 0.046875 5.164062 0.15625 4.53125 0.15625 Z M 2.484375 -3.90625 C 2.484375 -3.445312 2.570312 -3.039062 2.75 -2.6875 C 2.925781 -2.332031 3.164062 -2.050781 3.46875 -1.84375 C 3.78125 -1.644531 4.132812 -1.546875 4.53125 -1.546875 C 4.90625 -1.546875 5.242188 -1.648438 5.546875 -1.859375 C 5.859375 -2.066406 6.109375 -2.34375 6.296875 -2.6875 C 6.484375 -3.039062 6.578125 -3.445312 6.578125 -3.90625 C 6.578125 -4.351562 6.484375 -4.753906 6.296875 -5.109375 C 6.109375 -5.472656 5.859375 -5.753906 5.546875 -5.953125 C 5.242188 -6.160156 4.90625 -6.265625 4.53125 -6.265625 C 4.132812 -6.265625 3.78125 -6.160156 3.46875 -5.953125 C 3.164062 -5.742188 2.925781 -5.460938 2.75 -5.109375 C 2.570312 -4.753906 2.484375 -4.351562 2.484375 -3.90625 Z M 2.484375 -3.90625 "/></g></g></g><g fill="#f6f6f6" fill-opacity="1"><g transform="translate(37.081161, 177.599702)"><g><path d="M 0.84375 -2.921875 L 0.84375 -7.828125 L 2.84375 -7.828125 L 2.84375 -3.359375 C 2.84375 -2.765625 2.953125 -2.3125 3.171875 -2 C 3.390625 -1.695312 3.710938 -1.546875 4.140625 -1.546875 C 4.398438 -1.546875 4.65625 -1.597656 4.90625 -1.703125 C 5.15625 -1.804688 5.390625 -1.960938 5.609375 -2.171875 C 5.828125 -2.390625 6.007812 -2.65625 6.15625 -2.96875 L 6.15625 -7.828125 L 8.15625 -7.828125 L 8.15625 -2.234375 C 8.15625 -2.023438 8.191406 -1.875 8.265625 -1.78125 C 8.335938 -1.695312 8.460938 -1.644531 8.640625 -1.625 L 8.640625 0 C 8.429688 0.03125 8.257812 0.0507812 8.125 0.0625 C 8 0.0820312 7.878906 0.09375 7.765625 0.09375 C 7.410156 0.09375 7.117188 0.0078125 6.890625 -0.15625 C 6.671875 -0.320312 6.539062 -0.550781 6.5 -0.84375 L 6.453125 -1.46875 C 6.109375 -0.9375 5.660156 -0.53125 5.109375 -0.25 C 4.554688 0.0195312 3.953125 0.15625 3.296875 0.15625 C 2.492188 0.15625 1.882812 -0.101562 1.46875 -0.625 C 1.050781 -1.15625 0.84375 -1.921875 0.84375 -2.921875 Z M 0.84375 -2.921875 "/></g></g></g><g fill="#f6f6f6" fill-opacity="1"><g transform="translate(46.316035, 177.599702)"><g><path d="M 5.59375 0.15625 C 4.988281 0.15625 4.453125 0.0195312 3.984375 -0.25 C 3.523438 -0.53125 3.164062 -0.90625 2.90625 -1.375 L 2.90625 3.1875 L 0.90625 3.1875 L 0.90625 -7.828125 L 2.65625 -7.828125 L 2.65625 -6.484375 C 2.957031 -6.941406 3.335938 -7.300781 3.796875 -7.5625 C 4.253906 -7.832031 4.773438 -7.96875 5.359375 -7.96875 C 5.890625 -7.96875 6.375 -7.859375 6.8125 -7.640625 C 7.257812 -7.429688 7.644531 -7.140625 7.96875 -6.765625 C 8.300781 -6.398438 8.554688 -5.972656 8.734375 -5.484375 C 8.921875 -5.003906 9.015625 -4.484375 9.015625 -3.921875 C 9.015625 -3.171875 8.867188 -2.484375 8.578125 -1.859375 C 8.285156 -1.242188 7.882812 -0.753906 7.375 -0.390625 C 6.863281 -0.0234375 6.269531 0.15625 5.59375 0.15625 Z M 4.921875 -1.546875 C 5.234375 -1.546875 5.515625 -1.609375 5.765625 -1.734375 C 6.015625 -1.867188 6.226562 -2.046875 6.40625 -2.265625 C 6.59375 -2.492188 6.734375 -2.75 6.828125 -3.03125 C 6.921875 -3.320312 6.96875 -3.617188 6.96875 -3.921875 C 6.96875 -4.253906 6.914062 -4.5625 6.8125 -4.84375 C 6.707031 -5.125 6.554688 -5.367188 6.359375 -5.578125 C 6.160156 -5.796875 5.925781 -5.960938 5.65625 -6.078125 C 5.394531 -6.203125 5.113281 -6.265625 4.8125 -6.265625 C 4.625 -6.265625 4.429688 -6.226562 4.234375 -6.15625 C 4.035156 -6.09375 3.847656 -6 3.671875 -5.875 C 3.492188 -5.757812 3.335938 -5.625 3.203125 -5.46875 C 3.066406 -5.3125 2.96875 -5.132812 2.90625 -4.9375 L 2.90625 -3.109375 C 3.03125 -2.816406 3.191406 -2.550781 3.390625 -2.3125 C 3.597656 -2.070312 3.835938 -1.882812 4.109375 -1.75 C 4.378906 -1.613281 4.648438 -1.546875 4.921875 -1.546875 Z M 4.921875 -1.546875 "/></g></g></g><g fill="#f6f6f6" fill-opacity="1"><g transform="translate(55.790007, 177.599702)"><g/></g></g><g fill="#f6f6f6" fill-opacity="1"><g transform="translate(59.376372, 177.599702)"><g><path d="M 1.109375 0 L 1.109375 -10.609375 L 3.171875 -10.609375 L 3.171875 -1.8125 L 8.578125 -1.8125 L 8.578125 0 Z M 1.109375 0 "/></g></g></g><g fill="#f6f6f6" fill-opacity="1"><g transform="translate(68.103184, 177.599702)"><g><path d="M 0.375 -2.3125 C 0.375 -2.820312 0.515625 -3.269531 0.796875 -3.65625 C 1.078125 -4.039062 1.472656 -4.335938 1.984375 -4.546875 C 2.492188 -4.753906 3.078125 -4.859375 3.734375 -4.859375 C 4.066406 -4.859375 4.398438 -4.832031 4.734375 -4.78125 C 5.078125 -4.726562 5.367188 -4.648438 5.609375 -4.546875 L 5.609375 -4.953125 C 5.609375 -5.453125 5.460938 -5.835938 5.171875 -6.109375 C 4.878906 -6.378906 4.445312 -6.515625 3.875 -6.515625 C 3.4375 -6.515625 3.023438 -6.4375 2.640625 -6.28125 C 2.253906 -6.132812 1.847656 -5.914062 1.421875 -5.625 L 0.78125 -6.953125 C 1.289062 -7.285156 1.816406 -7.535156 2.359375 -7.703125 C 2.910156 -7.878906 3.484375 -7.96875 4.078125 -7.96875 C 5.191406 -7.96875 6.0625 -7.6875 6.6875 -7.125 C 7.3125 -6.5625 7.625 -5.765625 7.625 -4.734375 L 7.625 -2.234375 C 7.625 -2.023438 7.660156 -1.875 7.734375 -1.78125 C 7.804688 -1.695312 7.925781 -1.644531 8.09375 -1.625 L 8.09375 0 C 7.914062 0.03125 7.753906 0.0546875 7.609375 0.078125 C 7.460938 0.0976562 7.34375 0.109375 7.25 0.109375 C 6.84375 0.109375 6.535156 0.0195312 6.328125 -0.15625 C 6.128906 -0.34375 6.003906 -0.566406 5.953125 -0.828125 L 5.921875 -1.21875 C 5.578125 -0.78125 5.148438 -0.441406 4.640625 -0.203125 C 4.140625 0.0351562 3.625 0.15625 3.09375 0.15625 C 2.570312 0.15625 2.101562 0.046875 1.6875 -0.171875 C 1.28125 -0.390625 0.957031 -0.679688 0.71875 -1.046875 C 0.488281 -1.421875 0.375 -1.84375 0.375 -2.3125 Z M 5.25 -1.90625 C 5.351562 -2.03125 5.4375 -2.148438 5.5 -2.265625 C 5.570312 -2.390625 5.609375 -2.5 5.609375 -2.59375 L 5.609375 -3.390625 C 5.378906 -3.492188 5.125 -3.570312 4.84375 -3.625 C 4.5625 -3.675781 4.296875 -3.703125 4.046875 -3.703125 C 3.523438 -3.703125 3.097656 -3.585938 2.765625 -3.359375 C 2.429688 -3.140625 2.265625 -2.847656 2.265625 -2.484375 C 2.265625 -2.285156 2.316406 -2.09375 2.421875 -1.90625 C 2.535156 -1.726562 2.695312 -1.582031 2.90625 -1.46875 C 3.113281 -1.363281 3.363281 -1.3125 3.65625 -1.3125 C 3.957031 -1.3125 4.25 -1.367188 4.53125 -1.484375 C 4.820312 -1.597656 5.0625 -1.738281 5.25 -1.90625 Z M 5.25 -1.90625 "/></g></g></g><g fill="#f6f6f6" fill-opacity="1"><g transform="translate(76.680567, 177.599702)"><g><path d="M 5.359375 0.15625 C 4.765625 0.15625 4.234375 0.0195312 3.765625 -0.25 C 3.296875 -0.519531 2.925781 -0.890625 2.65625 -1.359375 L 2.65625 0 L 0.90625 0 L 0.90625 -10.90625 L 2.90625 -10.90625 L 2.90625 -6.453125 C 3.1875 -6.921875 3.550781 -7.289062 4 -7.5625 C 4.457031 -7.832031 4.988281 -7.96875 5.59375 -7.96875 C 6.101562 -7.96875 6.566406 -7.859375 6.984375 -7.640625 C 7.410156 -7.421875 7.773438 -7.125 8.078125 -6.75 C 8.378906 -6.375 8.609375 -5.941406 8.765625 -5.453125 C 8.929688 -4.960938 9.015625 -4.441406 9.015625 -3.890625 C 9.015625 -3.328125 8.921875 -2.800781 8.734375 -2.3125 C 8.554688 -1.820312 8.300781 -1.390625 7.96875 -1.015625 C 7.644531 -0.648438 7.257812 -0.363281 6.8125 -0.15625 C 6.375 0.0507812 5.890625 0.15625 5.359375 0.15625 Z M 4.8125 -1.546875 C 5.125 -1.546875 5.410156 -1.609375 5.671875 -1.734375 C 5.941406 -1.859375 6.171875 -2.023438 6.359375 -2.234375 C 6.554688 -2.441406 6.707031 -2.6875 6.8125 -2.96875 C 6.914062 -3.257812 6.96875 -3.5625 6.96875 -3.875 C 6.96875 -4.300781 6.878906 -4.691406 6.703125 -5.046875 C 6.535156 -5.410156 6.300781 -5.703125 6 -5.921875 C 5.695312 -6.148438 5.335938 -6.265625 4.921875 -6.265625 C 4.640625 -6.265625 4.363281 -6.195312 4.09375 -6.0625 C 3.832031 -5.925781 3.597656 -5.742188 3.390625 -5.515625 C 3.191406 -5.285156 3.03125 -5.023438 2.90625 -4.734375 L 2.90625 -2.875 C 2.96875 -2.664062 3.066406 -2.484375 3.203125 -2.328125 C 3.335938 -2.171875 3.492188 -2.035156 3.671875 -1.921875 C 3.847656 -1.804688 4.035156 -1.710938 4.234375 -1.640625 C 4.429688 -1.578125 4.625 -1.546875 4.8125 -1.546875 Z M 4.8125 -1.546875 "/></g></g></g><g fill="#f6f6f6" fill-opacity="1"><g transform="translate(86.154538, 177.599702)"><g><path d="M 7.015625 -1.8125 L 7.015625 0 L 0.953125 0 L 0.953125 -1.8125 L 3.078125 -1.8125 L 3.078125 -6.328125 C 2.984375 -6.210938 2.84375 -6.09375 2.65625 -5.96875 C 2.46875 -5.84375 2.253906 -5.722656 2.015625 -5.609375 C 1.773438 -5.503906 1.535156 -5.414062 1.296875 -5.34375 C 1.054688 -5.28125 0.84375 -5.25 0.65625 -5.25 L 0.65625 -7.109375 C 0.832031 -7.109375 1.046875 -7.164062 1.296875 -7.28125 C 1.554688 -7.394531 1.8125 -7.53125 2.0625 -7.6875 C 2.320312 -7.851562 2.539062 -8.007812 2.71875 -8.15625 C 2.90625 -8.3125 3.023438 -8.4375 3.078125 -8.53125 L 5.125 -8.53125 L 5.125 -1.8125 Z M 7.015625 -1.8125 "/></g></g></g><g fill="#f6f6f6" fill-opacity="1"><g transform="translate(93.536461, 177.599702)"><g><path d="M 1.03125 -5.59375 L 1.03125 -7.734375 L 2.65625 -7.734375 L 2.65625 -5.59375 Z M 1.03125 0 L 1.03125 -2.15625 L 2.65625 -2.15625 L 2.65625 0 Z M 1.03125 0 "/></g></g></g><g fill="#f6f6f6" fill-opacity="1"><g transform="translate(97.227429, 177.599702)"><g/></g></g><g fill="#f6f6f6" fill-opacity="1"><g transform="translate(100.813794, 177.599702)"><g><path d="M 1.109375 0 L 1.109375 -10.609375 L 5.796875 -10.609375 C 6.285156 -10.609375 6.734375 -10.507812 7.140625 -10.3125 C 7.554688 -10.113281 7.914062 -9.84375 8.21875 -9.5 C 8.519531 -9.164062 8.753906 -8.785156 8.921875 -8.359375 C 9.085938 -7.941406 9.171875 -7.515625 9.171875 -7.078125 C 9.171875 -6.628906 9.09375 -6.195312 8.9375 -5.78125 C 8.78125 -5.375 8.554688 -5.015625 8.265625 -4.703125 C 7.984375 -4.398438 7.648438 -4.160156 7.265625 -3.984375 L 9.671875 0 L 7.40625 0 L 5.234375 -3.5625 L 3.171875 -3.5625 L 3.171875 0 Z M 3.171875 -5.359375 L 5.75 -5.359375 C 6.007812 -5.359375 6.238281 -5.4375 6.4375 -5.59375 C 6.632812 -5.75 6.789062 -5.957031 6.90625 -6.21875 C 7.03125 -6.476562 7.09375 -6.765625 7.09375 -7.078125 C 7.09375 -7.421875 7.019531 -7.71875 6.875 -7.96875 C 6.738281 -8.21875 6.5625 -8.414062 6.34375 -8.5625 C 6.132812 -8.71875 5.90625 -8.796875 5.65625 -8.796875 L 3.171875 -8.796875 Z M 3.171875 -5.359375 "/></g></g></g><g fill="#f6f6f6" fill-opacity="1"><g transform="translate(110.751, 177.599702)"><g><path d="M 4.53125 0.15625 C 3.882812 0.15625 3.304688 0.046875 2.796875 -0.171875 C 2.296875 -0.390625 1.867188 -0.6875 1.515625 -1.0625 C 1.160156 -1.4375 0.890625 -1.867188 0.703125 -2.359375 C 0.515625 -2.847656 0.421875 -3.363281 0.421875 -3.90625 C 0.421875 -4.445312 0.515625 -4.960938 0.703125 -5.453125 C 0.890625 -5.941406 1.160156 -6.375 1.515625 -6.75 C 1.867188 -7.125 2.296875 -7.421875 2.796875 -7.640625 C 3.304688 -7.859375 3.882812 -7.96875 4.53125 -7.96875 C 5.164062 -7.96875 5.734375 -7.859375 6.234375 -7.640625 C 6.734375 -7.421875 7.160156 -7.125 7.515625 -6.75 C 7.878906 -6.375 8.15625 -5.941406 8.34375 -5.453125 C 8.53125 -4.960938 8.625 -4.445312 8.625 -3.90625 C 8.625 -3.363281 8.53125 -2.847656 8.34375 -2.359375 C 8.15625 -1.867188 7.882812 -1.4375 7.53125 -1.0625 C 7.175781 -0.6875 6.742188 -0.390625 6.234375 -0.171875 C 5.734375 0.046875 5.164062 0.15625 4.53125 0.15625 Z M 2.484375 -3.90625 C 2.484375 -3.445312 2.570312 -3.039062 2.75 -2.6875 C 2.925781 -2.332031 3.164062 -2.050781 3.46875 -1.84375 C 3.78125 -1.644531 4.132812 -1.546875 4.53125 -1.546875 C 4.90625 -1.546875 5.242188 -1.648438 5.546875 -1.859375 C 5.859375 -2.066406 6.109375 -2.34375 6.296875 -2.6875 C 6.484375 -3.039062 6.578125 -3.445312 6.578125 -3.90625 C 6.578125 -4.351562 6.484375 -4.753906 6.296875 -5.109375 C 6.109375 -5.472656 5.859375 -5.753906 5.546875 -5.953125 C 5.242188 -6.160156 4.90625 -6.265625 4.53125 -6.265625 C 4.132812 -6.265625 3.78125 -6.160156 3.46875 -5.953125 C 3.164062 -5.742188 2.925781 -5.460938 2.75 -5.109375 C 2.570312 -4.753906 2.484375 -4.351562 2.484375 -3.90625 Z M 2.484375 -3.90625 "/></g></g></g><g fill="#f6f6f6" fill-opacity="1"><g transform="translate(119.806564, 177.599702)"><g><path d="M 0.84375 -2.921875 L 0.84375 -7.828125 L 2.84375 -7.828125 L 2.84375 -3.359375 C 2.84375 -2.765625 2.953125 -2.3125 3.171875 -2 C 3.390625 -1.695312 3.710938 -1.546875 4.140625 -1.546875 C 4.398438 -1.546875 4.65625 -1.597656 4.90625 -1.703125 C 5.15625 -1.804688 5.390625 -1.960938 5.609375 -2.171875 C 5.828125 -2.390625 6.007812 -2.65625 6.15625 -2.96875 L 6.15625 -7.828125 L 8.15625 -7.828125 L 8.15625 -2.234375 C 8.15625 -2.023438 8.191406 -1.875 8.265625 -1.78125 C 8.335938 -1.695312 8.460938 -1.644531 8.640625 -1.625 L 8.640625 0 C 8.429688 0.03125 8.257812 0.0507812 8.125 0.0625 C 8 0.0820312 7.878906 0.09375 7.765625 0.09375 C 7.410156 0.09375 7.117188 0.0078125 6.890625 -0.15625 C 6.671875 -0.320312 6.539062 -0.550781 6.5 -0.84375 L 6.453125 -1.46875 C 6.109375 -0.9375 5.660156 -0.53125 5.109375 -0.25 C 4.554688 0.0195312 3.953125 0.15625 3.296875 0.15625 C 2.492188 0.15625 1.882812 -0.101562 1.46875 -0.625 C 1.050781 -1.15625 0.84375 -1.921875 0.84375 -2.921875 Z M 0.84375 -2.921875 "/></g></g></g><g fill="#f6f6f6" fill-opacity="1"><g transform="translate(129.041439, 177.599702)"><g><path d="M 5.59375 -0.40625 C 5.425781 -0.332031 5.222656 -0.25 4.984375 -0.15625 C 4.742188 -0.0703125 4.488281 -0.00390625 4.21875 0.046875 C 3.945312 0.109375 3.671875 0.140625 3.390625 0.140625 C 3.023438 0.140625 2.6875 0.078125 2.375 -0.046875 C 2.0625 -0.179688 1.8125 -0.390625 1.625 -0.671875 C 1.445312 -0.960938 1.359375 -1.335938 1.359375 -1.796875 L 1.359375 -6.28125 L 0.328125 -6.28125 L 0.328125 -7.828125 L 1.359375 -7.828125 L 1.359375 -10.359375 L 3.359375 -10.359375 L 3.359375 -7.828125 L 5 -7.828125 L 5 -6.28125 L 3.359375 -6.28125 L 3.359375 -2.46875 C 3.367188 -2.195312 3.441406 -2 3.578125 -1.875 C 3.722656 -1.757812 3.898438 -1.703125 4.109375 -1.703125 C 4.316406 -1.703125 4.519531 -1.734375 4.71875 -1.796875 C 4.914062 -1.867188 5.078125 -1.929688 5.203125 -1.984375 Z M 5.59375 -0.40625 "/></g></g></g><g fill="#f6f6f6" fill-opacity="1"><g transform="translate(134.779615, 177.599702)"><g><path d="M 0.90625 0 L 0.90625 -7.828125 L 2.90625 -7.828125 L 2.90625 0 Z M 0.90625 -8.921875 L 0.90625 -10.90625 L 2.90625 -10.90625 L 2.90625 -8.921875 Z M 0.90625 -8.921875 "/></g></g></g><g fill="#f6f6f6" fill-opacity="1"><g transform="translate(138.590119, 177.599702)"><g><path d="M 8.1875 0 L 6.1875 0 L 6.1875 -4.390625 C 6.1875 -5.015625 6.078125 -5.472656 5.859375 -5.765625 C 5.640625 -6.054688 5.332031 -6.203125 4.9375 -6.203125 C 4.675781 -6.203125 4.40625 -6.128906 4.125 -5.984375 C 3.851562 -5.847656 3.609375 -5.65625 3.390625 -5.40625 C 3.171875 -5.164062 3.007812 -4.890625 2.90625 -4.578125 L 2.90625 0 L 0.90625 0 L 0.90625 -7.828125 L 2.71875 -7.828125 L 2.71875 -6.375 C 2.914062 -6.71875 3.164062 -7.003906 3.46875 -7.234375 C 3.78125 -7.472656 4.140625 -7.65625 4.546875 -7.78125 C 4.953125 -7.90625 5.378906 -7.96875 5.828125 -7.96875 C 6.316406 -7.96875 6.71875 -7.878906 7.03125 -7.703125 C 7.34375 -7.523438 7.578125 -7.289062 7.734375 -7 C 7.898438 -6.707031 8.015625 -6.375 8.078125 -6 C 8.148438 -5.632812 8.1875 -5.265625 8.1875 -4.890625 Z M 8.1875 0 "/></g></g></g><g fill="#f6f6f6" fill-opacity="1"><g transform="translate(147.61579, 177.599702)"><g><path d="M 3.96875 0.046875 C 3.457031 0.046875 2.984375 -0.0507812 2.546875 -0.25 C 2.109375 -0.457031 1.734375 -0.742188 1.421875 -1.109375 C 1.109375 -1.484375 0.867188 -1.910156 0.703125 -2.390625 C 0.535156 -2.867188 0.453125 -3.375 0.453125 -3.90625 C 0.453125 -4.476562 0.539062 -5.007812 0.71875 -5.5 C 0.894531 -5.988281 1.144531 -6.414062 1.46875 -6.78125 C 1.789062 -7.15625 2.171875 -7.445312 2.609375 -7.65625 C 3.054688 -7.863281 3.550781 -7.96875 4.09375 -7.96875 C 4.695312 -7.96875 5.226562 -7.828125 5.6875 -7.546875 C 6.144531 -7.273438 6.523438 -6.910156 6.828125 -6.453125 L 6.828125 -7.828125 L 8.578125 -7.828125 L 8.578125 -0.375 C 8.578125 0.40625 8.390625 1.070312 8.015625 1.625 C 7.640625 2.175781 7.125 2.597656 6.46875 2.890625 C 5.8125 3.179688 5.066406 3.328125 4.234375 3.328125 C 3.378906 3.328125 2.65625 3.1875 2.0625 2.90625 C 1.476562 2.625 0.976562 2.222656 0.5625 1.703125 L 1.65625 0.640625 C 1.957031 1.003906 2.332031 1.289062 2.78125 1.5 C 3.238281 1.71875 3.722656 1.828125 4.234375 1.828125 C 4.660156 1.828125 5.050781 1.75 5.40625 1.59375 C 5.757812 1.4375 6.039062 1.195312 6.25 0.875 C 6.46875 0.550781 6.578125 0.132812 6.578125 -0.375 L 6.578125 -1.359375 C 6.316406 -0.910156 5.945312 -0.5625 5.46875 -0.3125 C 5 -0.0703125 4.5 0.046875 3.96875 0.046875 Z M 4.640625 -1.546875 C 4.859375 -1.546875 5.066406 -1.582031 5.265625 -1.65625 C 5.472656 -1.726562 5.660156 -1.820312 5.828125 -1.9375 C 5.992188 -2.0625 6.140625 -2.203125 6.265625 -2.359375 C 6.398438 -2.523438 6.503906 -2.695312 6.578125 -2.875 L 6.578125 -4.734375 C 6.453125 -5.046875 6.28125 -5.316406 6.0625 -5.546875 C 5.851562 -5.773438 5.613281 -5.953125 5.34375 -6.078125 C 5.082031 -6.203125 4.8125 -6.265625 4.53125 -6.265625 C 4.21875 -6.265625 3.9375 -6.195312 3.6875 -6.0625 C 3.4375 -5.9375 3.222656 -5.753906 3.046875 -5.515625 C 2.867188 -5.285156 2.734375 -5.023438 2.640625 -4.734375 C 2.546875 -4.453125 2.5 -4.160156 2.5 -3.859375 C 2.5 -3.535156 2.550781 -3.234375 2.65625 -2.953125 C 2.769531 -2.679688 2.921875 -2.4375 3.109375 -2.21875 C 3.304688 -2.007812 3.535156 -1.84375 3.796875 -1.71875 C 4.066406 -1.601562 4.347656 -1.546875 4.640625 -1.546875 Z M 4.640625 -1.546875 "/></g></g></g><g fill="#f6f6f6" fill-opacity="1"><g transform="translate(157.089761, 177.599702)"><g/></g></g><g fill="#f6f6f6" fill-opacity="1"><g transform="translate(160.676127, 177.599702)"><g><path d="M 3.984375 -10.609375 L 6.078125 -10.609375 L 9.984375 0 L 7.859375 0 L 6.875 -2.640625 L 3.171875 -2.640625 L 2.203125 0 L 0.078125 0 Z M 6.5 -4.09375 L 5.03125 -8.46875 L 3.515625 -4.09375 Z M 6.5 -4.09375 "/></g></g></g><g fill="#f6f6f6" fill-opacity="1"><g transform="translate(170.717935, 177.599702)"><g><path d="M 5.578125 -6.09375 C 4.960938 -6.09375 4.414062 -5.972656 3.9375 -5.734375 C 3.457031 -5.503906 3.113281 -5.171875 2.90625 -4.734375 L 2.90625 0 L 0.90625 0 L 0.90625 -7.828125 L 2.75 -7.828125 L 2.75 -6.15625 C 3.03125 -6.6875 3.382812 -7.109375 3.8125 -7.421875 C 4.238281 -7.734375 4.691406 -7.90625 5.171875 -7.9375 C 5.273438 -7.9375 5.359375 -7.9375 5.421875 -7.9375 C 5.484375 -7.9375 5.535156 -7.929688 5.578125 -7.921875 Z M 5.578125 -6.09375 "/></g></g></g><g fill="#f6f6f6" fill-opacity="1"><g transform="translate(176.500938, 177.599702)"><g><path d="M 4.5625 0.15625 C 3.914062 0.15625 3.335938 0.046875 2.828125 -0.171875 C 2.328125 -0.390625 1.894531 -0.6875 1.53125 -1.0625 C 1.175781 -1.445312 0.898438 -1.882812 0.703125 -2.375 C 0.515625 -2.863281 0.421875 -3.375 0.421875 -3.90625 C 0.421875 -4.644531 0.585938 -5.320312 0.921875 -5.9375 C 1.253906 -6.550781 1.726562 -7.039062 2.34375 -7.40625 C 2.957031 -7.78125 3.691406 -7.96875 4.546875 -7.96875 C 5.390625 -7.96875 6.113281 -7.78125 6.71875 -7.40625 C 7.332031 -7.039062 7.785156 -6.554688 8.078125 -5.953125 L 6.125 -5.359375 C 5.957031 -5.648438 5.734375 -5.875 5.453125 -6.03125 C 5.171875 -6.1875 4.863281 -6.265625 4.53125 -6.265625 C 4.144531 -6.265625 3.796875 -6.164062 3.484375 -5.96875 C 3.171875 -5.769531 2.925781 -5.492188 2.75 -5.140625 C 2.570312 -4.785156 2.484375 -4.375 2.484375 -3.90625 C 2.484375 -3.445312 2.570312 -3.039062 2.75 -2.6875 C 2.9375 -2.34375 3.179688 -2.066406 3.484375 -1.859375 C 3.796875 -1.648438 4.144531 -1.546875 4.53125 -1.546875 C 4.769531 -1.546875 4.992188 -1.585938 5.203125 -1.671875 C 5.421875 -1.753906 5.613281 -1.863281 5.78125 -2 C 5.945312 -2.132812 6.070312 -2.296875 6.15625 -2.484375 L 8.109375 -1.875 C 7.929688 -1.488281 7.671875 -1.140625 7.328125 -0.828125 C 6.984375 -0.523438 6.578125 -0.285156 6.109375 -0.109375 C 5.648438 0.0664062 5.132812 0.15625 4.5625 0.15625 Z M 4.5625 0.15625 "/></g></g></g><g fill="#f6f6f6" fill-opacity="1"><g transform="translate(184.92888, 177.599702)"><g><path d="M 8.1875 0 L 6.1875 0 L 6.1875 -4.390625 C 6.1875 -4.992188 6.066406 -5.445312 5.828125 -5.75 C 5.597656 -6.050781 5.28125 -6.203125 4.875 -6.203125 C 4.632812 -6.203125 4.378906 -6.128906 4.109375 -5.984375 C 3.835938 -5.847656 3.59375 -5.65625 3.375 -5.40625 C 3.164062 -5.164062 3.007812 -4.890625 2.90625 -4.578125 L 2.90625 0 L 0.90625 0 L 0.90625 -10.90625 L 2.90625 -10.90625 L 2.90625 -6.375 C 3.195312 -6.875 3.59375 -7.265625 4.09375 -7.546875 C 4.59375 -7.828125 5.132812 -7.96875 5.71875 -7.96875 C 6.226562 -7.96875 6.640625 -7.878906 6.953125 -7.703125 C 7.273438 -7.523438 7.523438 -7.289062 7.703125 -7 C 7.890625 -6.707031 8.015625 -6.378906 8.078125 -6.015625 C 8.148438 -5.648438 8.1875 -5.273438 8.1875 -4.890625 Z M 8.1875 0 "/></g></g></g><g fill="#f6f6f6" fill-opacity="1"><g transform="translate(193.954551, 177.599702)"><g><path d="M 0.90625 0 L 0.90625 -7.828125 L 2.90625 -7.828125 L 2.90625 0 Z M 0.90625 -8.921875 L 0.90625 -10.90625 L 2.90625 -10.90625 L 2.90625 -8.921875 Z M 0.90625 -8.921875 "/></g></g></g><g fill="#f6f6f6" fill-opacity="1"><g transform="translate(197.765055, 177.599702)"><g><path d="M 5.59375 -0.40625 C 5.425781 -0.332031 5.222656 -0.25 4.984375 -0.15625 C 4.742188 -0.0703125 4.488281 -0.00390625 4.21875 0.046875 C 3.945312 0.109375 3.671875 0.140625 3.390625 0.140625 C 3.023438 0.140625 2.6875 0.078125 2.375 -0.046875 C 2.0625 -0.179688 1.8125 -0.390625 1.625 -0.671875 C 1.445312 -0.960938 1.359375 -1.335938 1.359375 -1.796875 L 1.359375 -6.28125 L 0.328125 -6.28125 L 0.328125 -7.828125 L 1.359375 -7.828125 L 1.359375 -10.359375 L 3.359375 -10.359375 L 3.359375 -7.828125 L 5 -7.828125 L 5 -6.28125 L 3.359375 -6.28125 L 3.359375 -2.46875 C 3.367188 -2.195312 3.441406 -2 3.578125 -1.875 C 3.722656 -1.757812 3.898438 -1.703125 4.109375 -1.703125 C 4.316406 -1.703125 4.519531 -1.734375 4.71875 -1.796875 C 4.914062 -1.867188 5.078125 -1.929688 5.203125 -1.984375 Z M 5.59375 -0.40625 "/></g></g></g><g fill="#f6f6f6" fill-opacity="1"><g transform="translate(203.503231, 177.599702)"><g><path d="M 4.546875 0.15625 C 3.910156 0.15625 3.335938 0.046875 2.828125 -0.171875 C 2.328125 -0.390625 1.894531 -0.679688 1.53125 -1.046875 C 1.175781 -1.421875 0.898438 -1.847656 0.703125 -2.328125 C 0.515625 -2.816406 0.421875 -3.332031 0.421875 -3.875 C 0.421875 -4.613281 0.585938 -5.289062 0.921875 -5.90625 C 1.253906 -6.53125 1.726562 -7.03125 2.34375 -7.40625 C 2.96875 -7.78125 3.707031 -7.96875 4.5625 -7.96875 C 5.414062 -7.96875 6.144531 -7.78125 6.75 -7.40625 C 7.351562 -7.03125 7.816406 -6.535156 8.140625 -5.921875 C 8.472656 -5.304688 8.640625 -4.644531 8.640625 -3.9375 C 8.640625 -3.820312 8.632812 -3.703125 8.625 -3.578125 C 8.613281 -3.453125 8.601562 -3.347656 8.59375 -3.265625 L 2.546875 -3.265625 C 2.578125 -2.867188 2.691406 -2.519531 2.890625 -2.21875 C 3.085938 -1.925781 3.335938 -1.703125 3.640625 -1.546875 C 3.941406 -1.390625 4.265625 -1.3125 4.609375 -1.3125 C 5.015625 -1.3125 5.394531 -1.40625 5.75 -1.59375 C 6.101562 -1.789062 6.34375 -2.050781 6.46875 -2.375 L 8.1875 -1.890625 C 8 -1.492188 7.726562 -1.140625 7.375 -0.828125 C 7.019531 -0.523438 6.601562 -0.285156 6.125 -0.109375 C 5.644531 0.0664062 5.117188 0.15625 4.546875 0.15625 Z M 2.5 -4.546875 L 6.59375 -4.546875 C 6.550781 -4.941406 6.4375 -5.285156 6.25 -5.578125 C 6.0625 -5.867188 5.816406 -6.097656 5.515625 -6.265625 C 5.222656 -6.429688 4.894531 -6.515625 4.53125 -6.515625 C 4.164062 -6.515625 3.835938 -6.429688 3.546875 -6.265625 C 3.253906 -6.097656 3.015625 -5.867188 2.828125 -5.578125 C 2.640625 -5.285156 2.53125 -4.941406 2.5 -4.546875 Z M 2.5 -4.546875 "/></g></g></g><g fill="#f6f6f6" fill-opacity="1"><g transform="translate(212.454182, 177.599702)"><g><path d="M 4.5625 0.15625 C 3.914062 0.15625 3.335938 0.046875 2.828125 -0.171875 C 2.328125 -0.390625 1.894531 -0.6875 1.53125 -1.0625 C 1.175781 -1.445312 0.898438 -1.882812 0.703125 -2.375 C 0.515625 -2.863281 0.421875 -3.375 0.421875 -3.90625 C 0.421875 -4.644531 0.585938 -5.320312 0.921875 -5.9375 C 1.253906 -6.550781 1.726562 -7.039062 2.34375 -7.40625 C 2.957031 -7.78125 3.691406 -7.96875 4.546875 -7.96875 C 5.390625 -7.96875 6.113281 -7.78125 6.71875 -7.40625 C 7.332031 -7.039062 7.785156 -6.554688 8.078125 -5.953125 L 6.125 -5.359375 C 5.957031 -5.648438 5.734375 -5.875 5.453125 -6.03125 C 5.171875 -6.1875 4.863281 -6.265625 4.53125 -6.265625 C 4.144531 -6.265625 3.796875 -6.164062 3.484375 -5.96875 C 3.171875 -5.769531 2.925781 -5.492188 2.75 -5.140625 C 2.570312 -4.785156 2.484375 -4.375 2.484375 -3.90625 C 2.484375 -3.445312 2.570312 -3.039062 2.75 -2.6875 C 2.9375 -2.34375 3.179688 -2.066406 3.484375 -1.859375 C 3.796875 -1.648438 4.144531 -1.546875 4.53125 -1.546875 C 4.769531 -1.546875 4.992188 -1.585938 5.203125 -1.671875 C 5.421875 -1.753906 5.613281 -1.863281 5.78125 -2 C 5.945312 -2.132812 6.070312 -2.296875 6.15625 -2.484375 L 8.109375 -1.875 C 7.929688 -1.488281 7.671875 -1.140625 7.328125 -0.828125 C 6.984375 -0.523438 6.578125 -0.285156 6.109375 -0.109375 C 5.648438 0.0664062 5.132812 0.15625 4.5625 0.15625 Z M 4.5625 0.15625 "/></g></g></g><g fill="#f6f6f6" fill-opacity="1"><g transform="translate(220.882112, 177.599702)"><g><path d="M 5.59375 -0.40625 C 5.425781 -0.332031 5.222656 -0.25 4.984375 -0.15625 C 4.742188 -0.0703125 4.488281 -0.00390625 4.21875 0.046875 C 3.945312 0.109375 3.671875 0.140625 3.390625 0.140625 C 3.023438 0.140625 2.6875 0.078125 2.375 -0.046875 C 2.0625 -0.179688 1.8125 -0.390625 1.625 -0.671875 C 1.445312 -0.960938 1.359375 -1.335938 1.359375 -1.796875 L 1.359375 -6.28125 L 0.328125 -6.28125 L 0.328125 -7.828125 L 1.359375 -7.828125 L 1.359375 -10.359375 L 3.359375 -10.359375 L 3.359375 -7.828125 L 5 -7.828125 L 5 -6.28125 L 3.359375 -6.28125 L 3.359375 -2.46875 C 3.367188 -2.195312 3.441406 -2 3.578125 -1.875 C 3.722656 -1.757812 3.898438 -1.703125 4.109375 -1.703125 C 4.316406 -1.703125 4.519531 -1.734375 4.71875 -1.796875 C 4.914062 -1.867188 5.078125 -1.929688 5.203125 -1.984375 Z M 5.59375 -0.40625 "/></g></g></g><g fill="#f6f6f6" fill-opacity="1"><g transform="translate(226.620288, 177.599702)"><g><path d="M 0.84375 -2.921875 L 0.84375 -7.828125 L 2.84375 -7.828125 L 2.84375 -3.359375 C 2.84375 -2.765625 2.953125 -2.3125 3.171875 -2 C 3.390625 -1.695312 3.710938 -1.546875 4.140625 -1.546875 C 4.398438 -1.546875 4.65625 -1.597656 4.90625 -1.703125 C 5.15625 -1.804688 5.390625 -1.960938 5.609375 -2.171875 C 5.828125 -2.390625 6.007812 -2.65625 6.15625 -2.96875 L 6.15625 -7.828125 L 8.15625 -7.828125 L 8.15625 -2.234375 C 8.15625 -2.023438 8.191406 -1.875 8.265625 -1.78125 C 8.335938 -1.695312 8.460938 -1.644531 8.640625 -1.625 L 8.640625 0 C 8.429688 0.03125 8.257812 0.0507812 8.125 0.0625 C 8 0.0820312 7.878906 0.09375 7.765625 0.09375 C 7.410156 0.09375 7.117188 0.0078125 6.890625 -0.15625 C 6.671875 -0.320312 6.539062 -0.550781 6.5 -0.84375 L 6.453125 -1.46875 C 6.109375 -0.9375 5.660156 -0.53125 5.109375 -0.25 C 4.554688 0.0195312 3.953125 0.15625 3.296875 0.15625 C 2.492188 0.15625 1.882812 -0.101562 1.46875 -0.625 C 1.050781 -1.15625 0.84375 -1.921875 0.84375 -2.921875 Z M 0.84375 -2.921875 "/></g></g></g><g fill="#f6f6f6" fill-opacity="1"><g transform="translate(235.855163, 177.599702)"><g><path d="M 5.578125 -6.09375 C 4.960938 -6.09375 4.414062 -5.972656 3.9375 -5.734375 C 3.457031 -5.503906 3.113281 -5.171875 2.90625 -4.734375 L 2.90625 0 L 0.90625 0 L 0.90625 -7.828125 L 2.75 -7.828125 L 2.75 -6.15625 C 3.03125 -6.6875 3.382812 -7.109375 3.8125 -7.421875 C 4.238281 -7.734375 4.691406 -7.90625 5.171875 -7.9375 C 5.273438 -7.9375 5.359375 -7.9375 5.421875 -7.9375 C 5.484375 -7.9375 5.535156 -7.929688 5.578125 -7.921875 Z M 5.578125 -6.09375 "/></g></g></g><g fill="#f6f6f6" fill-opacity="1"><g transform="translate(241.638166, 177.599702)"><g><path d="M 4.546875 0.15625 C 3.910156 0.15625 3.335938 0.046875 2.828125 -0.171875 C 2.328125 -0.390625 1.894531 -0.679688 1.53125 -1.046875 C 1.175781 -1.421875 0.898438 -1.847656 0.703125 -2.328125 C 0.515625 -2.816406 0.421875 -3.332031 0.421875 -3.875 C 0.421875 -4.613281 0.585938 -5.289062 0.921875 -5.90625 C 1.253906 -6.53125 1.726562 -7.03125 2.34375 -7.40625 C 2.96875 -7.78125 3.707031 -7.96875 4.5625 -7.96875 C 5.414062 -7.96875 6.144531 -7.78125 6.75 -7.40625 C 7.351562 -7.03125 7.816406 -6.535156 8.140625 -5.921875 C 8.472656 -5.304688 8.640625 -4.644531 8.640625 -3.9375 C 8.640625 -3.820312 8.632812 -3.703125 8.625 -3.578125 C 8.613281 -3.453125 8.601562 -3.347656 8.59375 -3.265625 L 2.546875 -3.265625 C 2.578125 -2.867188 2.691406 -2.519531 2.890625 -2.21875 C 3.085938 -1.925781 3.335938 -1.703125 3.640625 -1.546875 C 3.941406 -1.390625 4.265625 -1.3125 4.609375 -1.3125 C 5.015625 -1.3125 5.394531 -1.40625 5.75 -1.59375 C 6.101562 -1.789062 6.34375 -2.050781 6.46875 -2.375 L 8.1875 -1.890625 C 8 -1.492188 7.726562 -1.140625 7.375 -0.828125 C 7.019531 -0.523438 6.601562 -0.285156 6.125 -0.109375 C 5.644531 0.0664062 5.117188 0.15625 4.546875 0.15625 Z M 2.5 -4.546875 L 6.59375 -4.546875 C 6.550781 -4.941406 6.4375 -5.285156 6.25 -5.578125 C 6.0625 -5.867188 5.816406 -6.097656 5.515625 -6.265625 C 5.222656 -6.429688 4.894531 -6.515625 4.53125 -6.515625 C 4.164062 -6.515625 3.835938 -6.429688 3.546875 -6.265625 C 3.253906 -6.097656 3.015625 -5.867188 2.828125 -5.578125 C 2.640625 -5.285156 2.53125 -4.941406 2.5 -4.546875 Z M 2.5 -4.546875 "/></g></g></g><g fill="#f6f6f6" fill-opacity="1"><g transform="translate(109.801058, 69.249241)"><g><path d="M 2.234375 -2.4375 C 1.984375 -2.4375 1.765625 -2.390625 1.578125 -2.296875 C 1.390625 -2.203125 1.253906 -2.066406 1.171875 -1.890625 L 1.171875 0 L 0.359375 0 L 0.359375 -3.140625 L 1.09375 -3.140625 L 1.09375 -2.46875 C 1.207031 -2.675781 1.347656 -2.84375 1.515625 -2.96875 C 1.691406 -3.09375 1.878906 -3.160156 2.078125 -3.171875 C 2.117188 -3.171875 2.148438 -3.171875 2.171875 -3.171875 C 2.191406 -3.171875 2.210938 -3.171875 2.234375 -3.171875 Z M 2.234375 -2.4375 "/></g></g></g><g fill="#f6f6f6" fill-opacity="1"><g transform="translate(112.114277, 69.249241)"><g><path d="M 1.8125 0.0625 C 1.5625 0.0625 1.332031 0.0195312 1.125 -0.0625 C 0.914062 -0.15625 0.738281 -0.273438 0.59375 -0.421875 C 0.457031 -0.578125 0.351562 -0.75 0.28125 -0.9375 C 0.207031 -1.132812 0.171875 -1.34375 0.171875 -1.5625 C 0.171875 -1.78125 0.207031 -1.988281 0.28125 -2.1875 C 0.351562 -2.382812 0.457031 -2.554688 0.59375 -2.703125 C 0.738281 -2.859375 0.914062 -2.976562 1.125 -3.0625 C 1.332031 -3.144531 1.5625 -3.1875 1.8125 -3.1875 C 2.070312 -3.1875 2.300781 -3.144531 2.5 -3.0625 C 2.695312 -2.976562 2.867188 -2.859375 3.015625 -2.703125 C 3.160156 -2.554688 3.269531 -2.382812 3.34375 -2.1875 C 3.414062 -1.988281 3.453125 -1.78125 3.453125 -1.5625 C 3.453125 -1.34375 3.414062 -1.132812 3.34375 -0.9375 C 3.269531 -0.75 3.160156 -0.578125 3.015625 -0.421875 C 2.878906 -0.273438 2.707031 -0.15625 2.5 -0.0625 C 2.300781 0.0195312 2.070312 0.0625 1.8125 0.0625 Z M 1 -1.5625 C 1 -1.375 1.03125 -1.207031 1.09375 -1.0625 C 1.164062 -0.925781 1.265625 -0.816406 1.390625 -0.734375 C 1.515625 -0.660156 1.65625 -0.625 1.8125 -0.625 C 1.96875 -0.625 2.101562 -0.664062 2.21875 -0.75 C 2.34375 -0.832031 2.441406 -0.941406 2.515625 -1.078125 C 2.597656 -1.222656 2.640625 -1.382812 2.640625 -1.5625 C 2.640625 -1.75 2.597656 -1.910156 2.515625 -2.046875 C 2.441406 -2.191406 2.34375 -2.300781 2.21875 -2.375 C 2.101562 -2.457031 1.96875 -2.5 1.8125 -2.5 C 1.65625 -2.5 1.515625 -2.457031 1.390625 -2.375 C 1.265625 -2.300781 1.164062 -2.191406 1.09375 -2.046875 C 1.03125 -1.910156 1 -1.75 1 -1.5625 Z M 1 -1.5625 "/></g></g></g><g fill="#f6f6f6" fill-opacity="1"><g transform="translate(115.73653, 69.249241)"><g><path d="M 0.328125 -1.171875 L 0.328125 -3.140625 L 1.140625 -3.140625 L 1.140625 -1.34375 C 1.140625 -1.101562 1.179688 -0.921875 1.265625 -0.796875 C 1.359375 -0.679688 1.488281 -0.625 1.65625 -0.625 C 1.757812 -0.625 1.863281 -0.644531 1.96875 -0.6875 C 2.070312 -0.726562 2.164062 -0.789062 2.25 -0.875 C 2.332031 -0.957031 2.40625 -1.0625 2.46875 -1.1875 L 2.46875 -3.140625 L 3.265625 -3.140625 L 3.265625 -0.890625 C 3.265625 -0.804688 3.28125 -0.75 3.3125 -0.71875 C 3.34375 -0.6875 3.390625 -0.664062 3.453125 -0.65625 L 3.453125 0 C 3.378906 0.0078125 3.3125 0.015625 3.25 0.015625 C 3.195312 0.0234375 3.148438 0.03125 3.109375 0.03125 C 2.960938 0.03125 2.84375 0 2.75 -0.0625 C 2.664062 -0.125 2.617188 -0.210938 2.609375 -0.328125 L 2.578125 -0.59375 C 2.441406 -0.375 2.265625 -0.207031 2.046875 -0.09375 C 1.828125 0.0078125 1.585938 0.0625 1.328125 0.0625 C 1.003906 0.0625 0.753906 -0.0390625 0.578125 -0.25 C 0.410156 -0.457031 0.328125 -0.765625 0.328125 -1.171875 Z M 0.328125 -1.171875 "/></g></g></g><g fill="#f6f6f6" fill-opacity="1"><g transform="translate(119.430509, 69.249241)"><g><path d="M 2.25 -0.15625 C 2.175781 -0.132812 2.09375 -0.101562 2 -0.0625 C 1.90625 -0.03125 1.800781 -0.00390625 1.6875 0.015625 C 1.582031 0.0351562 1.472656 0.046875 1.359375 0.046875 C 1.210938 0.046875 1.078125 0.0195312 0.953125 -0.03125 C 0.828125 -0.0820312 0.726562 -0.160156 0.65625 -0.265625 C 0.582031 -0.378906 0.546875 -0.53125 0.546875 -0.71875 L 0.546875 -2.515625 L 0.125 -2.515625 L 0.125 -3.140625 L 0.546875 -3.140625 L 0.546875 -4.15625 L 1.34375 -4.15625 L 1.34375 -3.140625 L 2 -3.140625 L 2 -2.515625 L 1.34375 -2.515625 L 1.34375 -0.984375 C 1.351562 -0.878906 1.382812 -0.800781 1.4375 -0.75 C 1.488281 -0.707031 1.554688 -0.6875 1.640625 -0.6875 C 1.722656 -0.6875 1.804688 -0.695312 1.890625 -0.71875 C 1.972656 -0.75 2.035156 -0.773438 2.078125 -0.796875 Z M 2.25 -0.15625 "/></g></g></g><g fill="#f6f6f6" fill-opacity="1"><g transform="translate(121.725798, 69.249241)"><g><path d="M 1.8125 0.0625 C 1.5625 0.0625 1.332031 0.0195312 1.125 -0.0625 C 0.925781 -0.15625 0.753906 -0.273438 0.609375 -0.421875 C 0.472656 -0.566406 0.363281 -0.738281 0.28125 -0.9375 C 0.207031 -1.132812 0.171875 -1.335938 0.171875 -1.546875 C 0.171875 -1.847656 0.234375 -2.117188 0.359375 -2.359375 C 0.492188 -2.609375 0.6875 -2.804688 0.9375 -2.953125 C 1.1875 -3.109375 1.484375 -3.1875 1.828125 -3.1875 C 2.171875 -3.1875 2.460938 -3.109375 2.703125 -2.953125 C 2.941406 -2.804688 3.125 -2.609375 3.25 -2.359375 C 3.382812 -2.117188 3.453125 -1.859375 3.453125 -1.578125 C 3.453125 -1.535156 3.453125 -1.488281 3.453125 -1.4375 C 3.453125 -1.382812 3.445312 -1.34375 3.4375 -1.3125 L 1.015625 -1.3125 C 1.035156 -1.15625 1.082031 -1.015625 1.15625 -0.890625 C 1.238281 -0.773438 1.335938 -0.6875 1.453125 -0.625 C 1.578125 -0.5625 1.707031 -0.53125 1.84375 -0.53125 C 2.007812 -0.53125 2.160156 -0.566406 2.296875 -0.640625 C 2.441406 -0.722656 2.539062 -0.828125 2.59375 -0.953125 L 3.28125 -0.765625 C 3.207031 -0.597656 3.097656 -0.453125 2.953125 -0.328125 C 2.804688 -0.210938 2.640625 -0.117188 2.453125 -0.046875 C 2.265625 0.0234375 2.050781 0.0625 1.8125 0.0625 Z M 1 -1.8125 L 2.640625 -1.8125 C 2.617188 -1.976562 2.570312 -2.117188 2.5 -2.234375 C 2.425781 -2.347656 2.328125 -2.4375 2.203125 -2.5 C 2.085938 -2.570312 1.957031 -2.609375 1.8125 -2.609375 C 1.664062 -2.609375 1.535156 -2.570312 1.421875 -2.5 C 1.304688 -2.4375 1.207031 -2.347656 1.125 -2.234375 C 1.050781 -2.117188 1.007812 -1.976562 1 -1.8125 Z M 1 -1.8125 "/></g></g></g><g fill="#f6f6f6" fill-opacity="1"><g transform="translate(125.30621, 69.249241)"><g><path d="M 0.40625 -2.234375 L 0.40625 -3.09375 L 1.0625 -3.09375 L 1.0625 -2.234375 Z M 0.40625 0 L 0.40625 -0.859375 L 1.0625 -0.859375 L 1.0625 0 Z M 0.40625 0 "/></g></g></g><g fill="#f6f6f6" fill-opacity="1"><g transform="translate(126.782607, 69.249241)"><g><path d="M 0.40625 -2.234375 L 0.40625 -3.09375 L 1.0625 -3.09375 L 1.0625 -2.234375 Z M 0.40625 0 L 0.40625 -0.859375 L 1.0625 -0.859375 L 1.0625 0 Z M 0.40625 0 "/></g></g></g><g fill="#f6f6f6" fill-opacity="1"><g transform="translate(128.259004, 69.249241)"><g><path d="M 1.203125 0 L 0.046875 -3.140625 L 0.890625 -3.140625 L 1.671875 -0.734375 L 2.46875 -3.140625 L 3.234375 -3.140625 L 2.078125 0 Z M 1.203125 0 "/></g></g></g><g fill="#f6f6f6" fill-opacity="1"><g transform="translate(131.546531, 69.249241)"><g><path d="M 0.359375 0 L 0.359375 -3.140625 L 1.171875 -3.140625 L 1.171875 0 Z M 0.359375 -3.578125 L 0.359375 -4.375 L 1.171875 -4.375 L 1.171875 -3.578125 Z M 0.359375 -3.578125 "/></g></g></g><g fill="#f6f6f6" fill-opacity="1"><g transform="translate(133.07075, 69.249241)"><g><path d="M 1.8125 0.0625 C 1.5625 0.0625 1.332031 0.0195312 1.125 -0.0625 C 0.925781 -0.15625 0.753906 -0.273438 0.609375 -0.421875 C 0.472656 -0.566406 0.363281 -0.738281 0.28125 -0.9375 C 0.207031 -1.132812 0.171875 -1.335938 0.171875 -1.546875 C 0.171875 -1.847656 0.234375 -2.117188 0.359375 -2.359375 C 0.492188 -2.609375 0.6875 -2.804688 0.9375 -2.953125 C 1.1875 -3.109375 1.484375 -3.1875 1.828125 -3.1875 C 2.171875 -3.1875 2.460938 -3.109375 2.703125 -2.953125 C 2.941406 -2.804688 3.125 -2.609375 3.25 -2.359375 C 3.382812 -2.117188 3.453125 -1.859375 3.453125 -1.578125 C 3.453125 -1.535156 3.453125 -1.488281 3.453125 -1.4375 C 3.453125 -1.382812 3.445312 -1.34375 3.4375 -1.3125 L 1.015625 -1.3125 C 1.035156 -1.15625 1.082031 -1.015625 1.15625 -0.890625 C 1.238281 -0.773438 1.335938 -0.6875 1.453125 -0.625 C 1.578125 -0.5625 1.707031 -0.53125 1.84375 -0.53125 C 2.007812 -0.53125 2.160156 -0.566406 2.296875 -0.640625 C 2.441406 -0.722656 2.539062 -0.828125 2.59375 -0.953125 L 3.28125 -0.765625 C 3.207031 -0.597656 3.097656 -0.453125 2.953125 -0.328125 C 2.804688 -0.210938 2.640625 -0.117188 2.453125 -0.046875 C 2.265625 0.0234375 2.050781 0.0625 1.8125 0.0625 Z M 1 -1.8125 L 2.640625 -1.8125 C 2.617188 -1.976562 2.570312 -2.117188 2.5 -2.234375 C 2.425781 -2.347656 2.328125 -2.4375 2.203125 -2.5 C 2.085938 -2.570312 1.957031 -2.609375 1.8125 -2.609375 C 1.664062 -2.609375 1.535156 -2.570312 1.421875 -2.5 C 1.304688 -2.4375 1.207031 -2.347656 1.125 -2.234375 C 1.050781 -2.117188 1.007812 -1.976562 1 -1.8125 Z M 1 -1.8125 "/></g></g></g><g fill="#f6f6f6" fill-opacity="1"><g transform="translate(136.651162, 69.249241)"><g><path d="M 4.25 -3.140625 L 5.015625 -3.140625 L 3.703125 0 L 3.03125 0 L 2.5 -1.34375 L 2 0 L 1.3125 0 L 0.015625 -3.140625 L 0.765625 -3.140625 L 1.703125 -0.765625 L 2.0625 -1.796875 L 1.515625 -3.125 L 2.1875 -3.125 L 2.5 -2.171875 L 2.84375 -3.125 L 3.5 -3.125 L 2.953125 -1.796875 L 3.328125 -0.765625 Z M 4.25 -3.140625 "/></g></g></g><g fill="#f6f6f6" fill-opacity="1"><g transform="translate(162.502993, 108.628519)"><g><path d="M 0.359375 0 L 0.359375 -3.140625 L 1.171875 -3.140625 L 1.171875 0 Z M 0.359375 -3.578125 L 0.359375 -4.375 L 1.171875 -4.375 L 1.171875 -3.578125 Z M 0.359375 -3.578125 "/></g></g></g><g fill="#f6f6f6" fill-opacity="1"><g transform="translate(164.027212, 108.628519)"><g><path d="M 3.28125 0 L 2.484375 0 L 2.484375 -1.765625 C 2.484375 -2.015625 2.4375 -2.195312 2.34375 -2.3125 C 2.257812 -2.425781 2.140625 -2.484375 1.984375 -2.484375 C 1.867188 -2.484375 1.753906 -2.453125 1.640625 -2.390625 C 1.535156 -2.335938 1.441406 -2.257812 1.359375 -2.15625 C 1.273438 -2.0625 1.210938 -1.953125 1.171875 -1.828125 L 1.171875 0 L 0.359375 0 L 0.359375 -3.140625 L 1.09375 -3.140625 L 1.09375 -2.5625 C 1.164062 -2.695312 1.265625 -2.8125 1.390625 -2.90625 C 1.515625 -3 1.65625 -3.066406 1.8125 -3.109375 C 1.976562 -3.160156 2.148438 -3.1875 2.328125 -3.1875 C 2.523438 -3.1875 2.6875 -3.148438 2.8125 -3.078125 C 2.9375 -3.015625 3.03125 -2.921875 3.09375 -2.796875 C 3.164062 -2.679688 3.210938 -2.550781 3.234375 -2.40625 C 3.265625 -2.257812 3.28125 -2.109375 3.28125 -1.953125 Z M 3.28125 0 "/></g></g></g><g fill="#f6f6f6" fill-opacity="1"><g transform="translate(167.63751, 108.628519)"><g><path d="M 0.171875 -1.5625 C 0.171875 -1.863281 0.226562 -2.140625 0.34375 -2.390625 C 0.46875 -2.640625 0.632812 -2.832031 0.84375 -2.96875 C 1.0625 -3.113281 1.304688 -3.1875 1.578125 -3.1875 C 1.804688 -3.1875 2.015625 -3.128906 2.203125 -3.015625 C 2.390625 -2.898438 2.535156 -2.753906 2.640625 -2.578125 L 2.640625 -4.375 L 3.4375 -4.375 L 3.4375 -0.890625 C 3.4375 -0.804688 3.445312 -0.75 3.46875 -0.71875 C 3.5 -0.6875 3.550781 -0.664062 3.625 -0.65625 L 3.625 0 C 3.476562 0.03125 3.363281 0.046875 3.28125 0.046875 C 3.132812 0.046875 3.015625 0.0078125 2.921875 -0.0625 C 2.828125 -0.132812 2.773438 -0.226562 2.765625 -0.34375 L 2.75 -0.546875 C 2.632812 -0.347656 2.476562 -0.195312 2.28125 -0.09375 C 2.082031 0.0078125 1.875 0.0625 1.65625 0.0625 C 1.445312 0.0625 1.25 0.0195312 1.0625 -0.0625 C 0.882812 -0.144531 0.726562 -0.257812 0.59375 -0.40625 C 0.457031 -0.5625 0.351562 -0.738281 0.28125 -0.9375 C 0.207031 -1.132812 0.171875 -1.34375 0.171875 -1.5625 Z M 2.640625 -1.15625 L 2.640625 -1.890625 C 2.597656 -2.015625 2.53125 -2.117188 2.4375 -2.203125 C 2.351562 -2.296875 2.253906 -2.367188 2.140625 -2.421875 C 2.035156 -2.472656 1.929688 -2.5 1.828125 -2.5 C 1.703125 -2.5 1.585938 -2.472656 1.484375 -2.421875 C 1.390625 -2.378906 1.304688 -2.3125 1.234375 -2.21875 C 1.160156 -2.132812 1.101562 -2.03125 1.0625 -1.90625 C 1.019531 -1.789062 1 -1.671875 1 -1.546875 C 1 -1.421875 1.019531 -1.300781 1.0625 -1.1875 C 1.101562 -1.070312 1.164062 -0.972656 1.25 -0.890625 C 1.332031 -0.804688 1.425781 -0.738281 1.53125 -0.6875 C 1.632812 -0.644531 1.75 -0.625 1.875 -0.625 C 1.945312 -0.625 2.019531 -0.632812 2.09375 -0.65625 C 2.175781 -0.6875 2.25 -0.722656 2.3125 -0.765625 C 2.382812 -0.816406 2.445312 -0.875 2.5 -0.9375 C 2.5625 -1 2.609375 -1.070312 2.640625 -1.15625 Z M 2.640625 -1.15625 "/></g></g></g><g fill="#f6f6f6" fill-opacity="1"><g transform="translate(171.492877, 108.628519)"><g><path d="M 1.8125 0.0625 C 1.5625 0.0625 1.332031 0.0195312 1.125 -0.0625 C 0.925781 -0.15625 0.753906 -0.273438 0.609375 -0.421875 C 0.472656 -0.566406 0.363281 -0.738281 0.28125 -0.9375 C 0.207031 -1.132812 0.171875 -1.335938 0.171875 -1.546875 C 0.171875 -1.847656 0.234375 -2.117188 0.359375 -2.359375 C 0.492188 -2.609375 0.6875 -2.804688 0.9375 -2.953125 C 1.1875 -3.109375 1.484375 -3.1875 1.828125 -3.1875 C 2.171875 -3.1875 2.460938 -3.109375 2.703125 -2.953125 C 2.941406 -2.804688 3.125 -2.609375 3.25 -2.359375 C 3.382812 -2.117188 3.453125 -1.859375 3.453125 -1.578125 C 3.453125 -1.535156 3.453125 -1.488281 3.453125 -1.4375 C 3.453125 -1.382812 3.445312 -1.34375 3.4375 -1.3125 L 1.015625 -1.3125 C 1.035156 -1.15625 1.082031 -1.015625 1.15625 -0.890625 C 1.238281 -0.773438 1.335938 -0.6875 1.453125 -0.625 C 1.578125 -0.5625 1.707031 -0.53125 1.84375 -0.53125 C 2.007812 -0.53125 2.160156 -0.566406 2.296875 -0.640625 C 2.441406 -0.722656 2.539062 -0.828125 2.59375 -0.953125 L 3.28125 -0.765625 C 3.207031 -0.597656 3.097656 -0.453125 2.953125 -0.328125 C 2.804688 -0.210938 2.640625 -0.117188 2.453125 -0.046875 C 2.265625 0.0234375 2.050781 0.0625 1.8125 0.0625 Z M 1 -1.8125 L 2.640625 -1.8125 C 2.617188 -1.976562 2.570312 -2.117188 2.5 -2.234375 C 2.425781 -2.347656 2.328125 -2.4375 2.203125 -2.5 C 2.085938 -2.570312 1.957031 -2.609375 1.8125 -2.609375 C 1.664062 -2.609375 1.535156 -2.570312 1.421875 -2.5 C 1.304688 -2.4375 1.207031 -2.347656 1.125 -2.234375 C 1.050781 -2.117188 1.007812 -1.976562 1 -1.8125 Z M 1 -1.8125 "/></g></g></g><g fill="#f6f6f6" fill-opacity="1"><g transform="translate(175.073289, 108.628519)"><g><path d="M 0.875 -3.140625 L 1.53125 -2.15625 L 1.578125 -2.046875 L 1.640625 -2.15625 L 2.296875 -3.140625 L 3.140625 -3.140625 L 2.046875 -1.578125 L 3.15625 0 L 2.3125 0 L 1.640625 -0.96875 L 1.578125 -1.078125 L 1.53125 -0.96875 L 0.875 0 L 0.03125 0 L 1.125 -1.5625 L 0.046875 -3.140625 Z M 0.875 -3.140625 "/></g></g></g><g fill="#f6f6f6" fill-opacity="1"><g transform="translate(78.67465, 139.058731)"><g><path d="M 0.171875 -1.5625 C 0.171875 -1.863281 0.226562 -2.140625 0.34375 -2.390625 C 0.46875 -2.640625 0.632812 -2.832031 0.84375 -2.96875 C 1.0625 -3.113281 1.304688 -3.1875 1.578125 -3.1875 C 1.804688 -3.1875 2.015625 -3.128906 2.203125 -3.015625 C 2.390625 -2.898438 2.535156 -2.753906 2.640625 -2.578125 L 2.640625 -4.375 L 3.4375 -4.375 L 3.4375 -0.890625 C 3.4375 -0.804688 3.445312 -0.75 3.46875 -0.71875 C 3.5 -0.6875 3.550781 -0.664062 3.625 -0.65625 L 3.625 0 C 3.476562 0.03125 3.363281 0.046875 3.28125 0.046875 C 3.132812 0.046875 3.015625 0.0078125 2.921875 -0.0625 C 2.828125 -0.132812 2.773438 -0.226562 2.765625 -0.34375 L 2.75 -0.546875 C 2.632812 -0.347656 2.476562 -0.195312 2.28125 -0.09375 C 2.082031 0.0078125 1.875 0.0625 1.65625 0.0625 C 1.445312 0.0625 1.25 0.0195312 1.0625 -0.0625 C 0.882812 -0.144531 0.726562 -0.257812 0.59375 -0.40625 C 0.457031 -0.5625 0.351562 -0.738281 0.28125 -0.9375 C 0.207031 -1.132812 0.171875 -1.34375 0.171875 -1.5625 Z M 2.640625 -1.15625 L 2.640625 -1.890625 C 2.597656 -2.015625 2.53125 -2.117188 2.4375 -2.203125 C 2.351562 -2.296875 2.253906 -2.367188 2.140625 -2.421875 C 2.035156 -2.472656 1.929688 -2.5 1.828125 -2.5 C 1.703125 -2.5 1.585938 -2.472656 1.484375 -2.421875 C 1.390625 -2.378906 1.304688 -2.3125 1.234375 -2.21875 C 1.160156 -2.132812 1.101562 -2.03125 1.0625 -1.90625 C 1.019531 -1.789062 1 -1.671875 1 -1.546875 C 1 -1.421875 1.019531 -1.300781 1.0625 -1.1875 C 1.101562 -1.070312 1.164062 -0.972656 1.25 -0.890625 C 1.332031 -0.804688 1.425781 -0.738281 1.53125 -0.6875 C 1.632812 -0.644531 1.75 -0.625 1.875 -0.625 C 1.945312 -0.625 2.019531 -0.632812 2.09375 -0.65625 C 2.175781 -0.6875 2.25 -0.722656 2.3125 -0.765625 C 2.382812 -0.816406 2.445312 -0.875 2.5 -0.9375 C 2.5625 -1 2.609375 -1.070312 2.640625 -1.15625 Z M 2.640625 -1.15625 "/></g></g></g><g fill="#f6f6f6" fill-opacity="1"><g transform="translate(82.530018, 139.058731)"><g><path d="M 0.15625 -0.921875 C 0.15625 -1.128906 0.207031 -1.304688 0.3125 -1.453125 C 0.425781 -1.609375 0.582031 -1.726562 0.78125 -1.8125 C 0.988281 -1.894531 1.226562 -1.9375 1.5 -1.9375 C 1.625 -1.9375 1.753906 -1.925781 1.890625 -1.90625 C 2.023438 -1.894531 2.144531 -1.863281 2.25 -1.8125 L 2.25 -1.984375 C 2.25 -2.179688 2.1875 -2.332031 2.0625 -2.4375 C 1.945312 -2.550781 1.773438 -2.609375 1.546875 -2.609375 C 1.378906 -2.609375 1.21875 -2.578125 1.0625 -2.515625 C 0.90625 -2.453125 0.738281 -2.363281 0.5625 -2.25 L 0.3125 -2.78125 C 0.519531 -2.914062 0.734375 -3.015625 0.953125 -3.078125 C 1.171875 -3.148438 1.398438 -3.1875 1.640625 -3.1875 C 2.078125 -3.1875 2.421875 -3.070312 2.671875 -2.84375 C 2.921875 -2.625 3.046875 -2.304688 3.046875 -1.890625 L 3.046875 -0.890625 C 3.046875 -0.804688 3.0625 -0.75 3.09375 -0.71875 C 3.125 -0.6875 3.175781 -0.664062 3.25 -0.65625 L 3.25 0 C 3.175781 0.0078125 3.109375 0.0195312 3.046875 0.03125 C 2.992188 0.0390625 2.945312 0.046875 2.90625 0.046875 C 2.738281 0.046875 2.613281 0.0078125 2.53125 -0.0625 C 2.457031 -0.132812 2.410156 -0.222656 2.390625 -0.328125 L 2.375 -0.484375 C 2.238281 -0.316406 2.066406 -0.179688 1.859375 -0.078125 C 1.660156 0.015625 1.453125 0.0625 1.234375 0.0625 C 1.023438 0.0625 0.835938 0.0195312 0.671875 -0.0625 C 0.515625 -0.15625 0.390625 -0.273438 0.296875 -0.421875 C 0.203125 -0.566406 0.15625 -0.734375 0.15625 -0.921875 Z M 2.09375 -0.765625 C 2.144531 -0.816406 2.179688 -0.863281 2.203125 -0.90625 C 2.234375 -0.957031 2.25 -1.003906 2.25 -1.046875 L 2.25 -1.359375 C 2.15625 -1.398438 2.050781 -1.429688 1.9375 -1.453125 C 1.820312 -1.472656 1.71875 -1.484375 1.625 -1.484375 C 1.414062 -1.484375 1.242188 -1.4375 1.109375 -1.34375 C 0.972656 -1.257812 0.90625 -1.144531 0.90625 -1 C 0.90625 -0.914062 0.925781 -0.835938 0.96875 -0.765625 C 1.019531 -0.691406 1.085938 -0.632812 1.171875 -0.59375 C 1.253906 -0.550781 1.351562 -0.53125 1.46875 -0.53125 C 1.582031 -0.53125 1.695312 -0.550781 1.8125 -0.59375 C 1.9375 -0.644531 2.03125 -0.703125 2.09375 -0.765625 Z M 2.09375 -0.765625 "/></g></g></g><g fill="#f6f6f6" fill-opacity="1"><g transform="translate(85.960997, 139.058731)"><g><path d="M 1.515625 0.0625 C 1.253906 0.0625 1 0.0195312 0.75 -0.0625 C 0.507812 -0.15625 0.300781 -0.285156 0.125 -0.453125 L 0.40625 -0.984375 C 0.59375 -0.828125 0.773438 -0.710938 0.953125 -0.640625 C 1.140625 -0.566406 1.316406 -0.53125 1.484375 -0.53125 C 1.640625 -0.53125 1.765625 -0.554688 1.859375 -0.609375 C 1.953125 -0.671875 2 -0.757812 2 -0.875 C 2 -0.945312 1.972656 -1.003906 1.921875 -1.046875 C 1.867188 -1.085938 1.796875 -1.125 1.703125 -1.15625 C 1.609375 -1.1875 1.488281 -1.222656 1.34375 -1.265625 C 1.113281 -1.335938 0.921875 -1.410156 0.765625 -1.484375 C 0.609375 -1.554688 0.488281 -1.644531 0.40625 -1.75 C 0.332031 -1.863281 0.296875 -2.007812 0.296875 -2.1875 C 0.296875 -2.394531 0.347656 -2.570312 0.453125 -2.71875 C 0.554688 -2.863281 0.703125 -2.976562 0.890625 -3.0625 C 1.085938 -3.15625 1.3125 -3.203125 1.5625 -3.203125 C 1.789062 -3.203125 2.003906 -3.164062 2.203125 -3.09375 C 2.398438 -3.019531 2.582031 -2.90625 2.75 -2.75 L 2.421875 -2.25 C 2.265625 -2.363281 2.113281 -2.453125 1.96875 -2.515625 C 1.820312 -2.578125 1.675781 -2.609375 1.53125 -2.609375 C 1.445312 -2.609375 1.367188 -2.597656 1.296875 -2.578125 C 1.222656 -2.554688 1.160156 -2.519531 1.109375 -2.46875 C 1.066406 -2.425781 1.046875 -2.363281 1.046875 -2.28125 C 1.046875 -2.207031 1.066406 -2.148438 1.109375 -2.109375 C 1.148438 -2.066406 1.210938 -2.023438 1.296875 -1.984375 C 1.390625 -1.953125 1.492188 -1.921875 1.609375 -1.890625 C 1.867188 -1.816406 2.082031 -1.738281 2.25 -1.65625 C 2.425781 -1.582031 2.554688 -1.488281 2.640625 -1.375 C 2.734375 -1.269531 2.78125 -1.125 2.78125 -0.9375 C 2.78125 -0.625 2.664062 -0.378906 2.4375 -0.203125 C 2.207031 -0.0234375 1.898438 0.0625 1.515625 0.0625 Z M 1.515625 0.0625 "/></g></g></g><g fill="#f6f6f6" fill-opacity="1"><g transform="translate(88.91379, 139.058731)"><g><path d="M 3.28125 0 L 2.484375 0 L 2.484375 -1.765625 C 2.484375 -2.003906 2.4375 -2.179688 2.34375 -2.296875 C 2.25 -2.421875 2.117188 -2.484375 1.953125 -2.484375 C 1.859375 -2.484375 1.753906 -2.453125 1.640625 -2.390625 C 1.535156 -2.335938 1.441406 -2.257812 1.359375 -2.15625 C 1.273438 -2.0625 1.210938 -1.953125 1.171875 -1.828125 L 1.171875 0 L 0.359375 0 L 0.359375 -4.375 L 1.171875 -4.375 L 1.171875 -2.5625 C 1.285156 -2.757812 1.441406 -2.910156 1.640625 -3.015625 C 1.835938 -3.128906 2.054688 -3.1875 2.296875 -3.1875 C 2.492188 -3.1875 2.65625 -3.148438 2.78125 -3.078125 C 2.914062 -3.015625 3.019531 -2.921875 3.09375 -2.796875 C 3.164062 -2.679688 3.210938 -2.550781 3.234375 -2.40625 C 3.265625 -2.257812 3.28125 -2.109375 3.28125 -1.953125 Z M 3.28125 0 "/></g></g></g><g fill="#f6f6f6" fill-opacity="1"><g transform="translate(92.524088, 139.058731)"><g><path d="M 2.140625 0.0625 C 1.910156 0.0625 1.703125 0.0078125 1.515625 -0.09375 C 1.328125 -0.207031 1.175781 -0.359375 1.0625 -0.546875 L 1.0625 0 L 0.359375 0 L 0.359375 -4.375 L 1.171875 -4.375 L 1.171875 -2.578125 C 1.273438 -2.765625 1.414062 -2.910156 1.59375 -3.015625 C 1.78125 -3.128906 2 -3.1875 2.25 -3.1875 C 2.445312 -3.1875 2.628906 -3.144531 2.796875 -3.0625 C 2.960938 -2.976562 3.109375 -2.859375 3.234375 -2.703125 C 3.359375 -2.554688 3.453125 -2.382812 3.515625 -2.1875 C 3.578125 -1.988281 3.609375 -1.78125 3.609375 -1.5625 C 3.609375 -1.332031 3.570312 -1.117188 3.5 -0.921875 C 3.425781 -0.734375 3.320312 -0.5625 3.1875 -0.40625 C 3.0625 -0.257812 2.910156 -0.144531 2.734375 -0.0625 C 2.554688 0.0195312 2.359375 0.0625 2.140625 0.0625 Z M 1.921875 -0.625 C 2.054688 -0.625 2.175781 -0.644531 2.28125 -0.6875 C 2.382812 -0.738281 2.472656 -0.804688 2.546875 -0.890625 C 2.628906 -0.972656 2.691406 -1.070312 2.734375 -1.1875 C 2.773438 -1.300781 2.796875 -1.421875 2.796875 -1.546875 C 2.796875 -1.722656 2.757812 -1.882812 2.6875 -2.03125 C 2.613281 -2.175781 2.515625 -2.289062 2.390625 -2.375 C 2.273438 -2.457031 2.132812 -2.5 1.96875 -2.5 C 1.851562 -2.5 1.742188 -2.472656 1.640625 -2.421875 C 1.535156 -2.367188 1.441406 -2.296875 1.359375 -2.203125 C 1.273438 -2.117188 1.210938 -2.015625 1.171875 -1.890625 L 1.171875 -1.15625 C 1.191406 -1.070312 1.226562 -1 1.28125 -0.9375 C 1.332031 -0.875 1.394531 -0.816406 1.46875 -0.765625 C 1.539062 -0.722656 1.613281 -0.6875 1.6875 -0.65625 C 1.769531 -0.632812 1.847656 -0.625 1.921875 -0.625 Z M 1.921875 -0.625 "/></g></g></g><g fill="#f6f6f6" fill-opacity="1"><g transform="translate(96.313703, 139.058731)"><g><path d="M 1.8125 0.0625 C 1.5625 0.0625 1.332031 0.0195312 1.125 -0.0625 C 0.914062 -0.15625 0.738281 -0.273438 0.59375 -0.421875 C 0.457031 -0.578125 0.351562 -0.75 0.28125 -0.9375 C 0.207031 -1.132812 0.171875 -1.34375 0.171875 -1.5625 C 0.171875 -1.78125 0.207031 -1.988281 0.28125 -2.1875 C 0.351562 -2.382812 0.457031 -2.554688 0.59375 -2.703125 C 0.738281 -2.859375 0.914062 -2.976562 1.125 -3.0625 C 1.332031 -3.144531 1.5625 -3.1875 1.8125 -3.1875 C 2.070312 -3.1875 2.300781 -3.144531 2.5 -3.0625 C 2.695312 -2.976562 2.867188 -2.859375 3.015625 -2.703125 C 3.160156 -2.554688 3.269531 -2.382812 3.34375 -2.1875 C 3.414062 -1.988281 3.453125 -1.78125 3.453125 -1.5625 C 3.453125 -1.34375 3.414062 -1.132812 3.34375 -0.9375 C 3.269531 -0.75 3.160156 -0.578125 3.015625 -0.421875 C 2.878906 -0.273438 2.707031 -0.15625 2.5 -0.0625 C 2.300781 0.0195312 2.070312 0.0625 1.8125 0.0625 Z M 1 -1.5625 C 1 -1.375 1.03125 -1.207031 1.09375 -1.0625 C 1.164062 -0.925781 1.265625 -0.816406 1.390625 -0.734375 C 1.515625 -0.660156 1.65625 -0.625 1.8125 -0.625 C 1.96875 -0.625 2.101562 -0.664062 2.21875 -0.75 C 2.34375 -0.832031 2.441406 -0.941406 2.515625 -1.078125 C 2.597656 -1.222656 2.640625 -1.382812 2.640625 -1.5625 C 2.640625 -1.75 2.597656 -1.910156 2.515625 -2.046875 C 2.441406 -2.191406 2.34375 -2.300781 2.21875 -2.375 C 2.101562 -2.457031 1.96875 -2.5 1.8125 -2.5 C 1.65625 -2.5 1.515625 -2.457031 1.390625 -2.375 C 1.265625 -2.300781 1.164062 -2.191406 1.09375 -2.046875 C 1.03125 -1.910156 1 -1.75 1 -1.5625 Z M 1 -1.5625 "/></g></g></g><g fill="#f6f6f6" fill-opacity="1"><g transform="translate(99.935956, 139.058731)"><g><path d="M 0.15625 -0.921875 C 0.15625 -1.128906 0.207031 -1.304688 0.3125 -1.453125 C 0.425781 -1.609375 0.582031 -1.726562 0.78125 -1.8125 C 0.988281 -1.894531 1.226562 -1.9375 1.5 -1.9375 C 1.625 -1.9375 1.753906 -1.925781 1.890625 -1.90625 C 2.023438 -1.894531 2.144531 -1.863281 2.25 -1.8125 L 2.25 -1.984375 C 2.25 -2.179688 2.1875 -2.332031 2.0625 -2.4375 C 1.945312 -2.550781 1.773438 -2.609375 1.546875 -2.609375 C 1.378906 -2.609375 1.21875 -2.578125 1.0625 -2.515625 C 0.90625 -2.453125 0.738281 -2.363281 0.5625 -2.25 L 0.3125 -2.78125 C 0.519531 -2.914062 0.734375 -3.015625 0.953125 -3.078125 C 1.171875 -3.148438 1.398438 -3.1875 1.640625 -3.1875 C 2.078125 -3.1875 2.421875 -3.070312 2.671875 -2.84375 C 2.921875 -2.625 3.046875 -2.304688 3.046875 -1.890625 L 3.046875 -0.890625 C 3.046875 -0.804688 3.0625 -0.75 3.09375 -0.71875 C 3.125 -0.6875 3.175781 -0.664062 3.25 -0.65625 L 3.25 0 C 3.175781 0.0078125 3.109375 0.0195312 3.046875 0.03125 C 2.992188 0.0390625 2.945312 0.046875 2.90625 0.046875 C 2.738281 0.046875 2.613281 0.0078125 2.53125 -0.0625 C 2.457031 -0.132812 2.410156 -0.222656 2.390625 -0.328125 L 2.375 -0.484375 C 2.238281 -0.316406 2.066406 -0.179688 1.859375 -0.078125 C 1.660156 0.015625 1.453125 0.0625 1.234375 0.0625 C 1.023438 0.0625 0.835938 0.0195312 0.671875 -0.0625 C 0.515625 -0.15625 0.390625 -0.273438 0.296875 -0.421875 C 0.203125 -0.566406 0.15625 -0.734375 0.15625 -0.921875 Z M 2.09375 -0.765625 C 2.144531 -0.816406 2.179688 -0.863281 2.203125 -0.90625 C 2.234375 -0.957031 2.25 -1.003906 2.25 -1.046875 L 2.25 -1.359375 C 2.15625 -1.398438 2.050781 -1.429688 1.9375 -1.453125 C 1.820312 -1.472656 1.71875 -1.484375 1.625 -1.484375 C 1.414062 -1.484375 1.242188 -1.4375 1.109375 -1.34375 C 0.972656 -1.257812 0.90625 -1.144531 0.90625 -1 C 0.90625 -0.914062 0.925781 -0.835938 0.96875 -0.765625 C 1.019531 -0.691406 1.085938 -0.632812 1.171875 -0.59375 C 1.253906 -0.550781 1.351562 -0.53125 1.46875 -0.53125 C 1.582031 -0.53125 1.695312 -0.550781 1.8125 -0.59375 C 1.9375 -0.644531 2.03125 -0.703125 2.09375 -0.765625 Z M 2.09375 -0.765625 "/></g></g></g><g fill="#f6f6f6" fill-opacity="1"><g transform="translate(103.366935, 139.058731)"><g><path d="M 2.234375 -2.4375 C 1.984375 -2.4375 1.765625 -2.390625 1.578125 -2.296875 C 1.390625 -2.203125 1.253906 -2.066406 1.171875 -1.890625 L 1.171875 0 L 0.359375 0 L 0.359375 -3.140625 L 1.09375 -3.140625 L 1.09375 -2.46875 C 1.207031 -2.675781 1.347656 -2.84375 1.515625 -2.96875 C 1.691406 -3.09375 1.878906 -3.160156 2.078125 -3.171875 C 2.117188 -3.171875 2.148438 -3.171875 2.171875 -3.171875 C 2.191406 -3.171875 2.210938 -3.171875 2.234375 -3.171875 Z M 2.234375 -2.4375 "/></g></g></g><g fill="#f6f6f6" fill-opacity="1"><g transform="translate(105.680154, 139.058731)"><g><path d="M 0.171875 -1.5625 C 0.171875 -1.863281 0.226562 -2.140625 0.34375 -2.390625 C 0.46875 -2.640625 0.632812 -2.832031 0.84375 -2.96875 C 1.0625 -3.113281 1.304688 -3.1875 1.578125 -3.1875 C 1.804688 -3.1875 2.015625 -3.128906 2.203125 -3.015625 C 2.390625 -2.898438 2.535156 -2.753906 2.640625 -2.578125 L 2.640625 -4.375 L 3.4375 -4.375 L 3.4375 -0.890625 C 3.4375 -0.804688 3.445312 -0.75 3.46875 -0.71875 C 3.5 -0.6875 3.550781 -0.664062 3.625 -0.65625 L 3.625 0 C 3.476562 0.03125 3.363281 0.046875 3.28125 0.046875 C 3.132812 0.046875 3.015625 0.0078125 2.921875 -0.0625 C 2.828125 -0.132812 2.773438 -0.226562 2.765625 -0.34375 L 2.75 -0.546875 C 2.632812 -0.347656 2.476562 -0.195312 2.28125 -0.09375 C 2.082031 0.0078125 1.875 0.0625 1.65625 0.0625 C 1.445312 0.0625 1.25 0.0195312 1.0625 -0.0625 C 0.882812 -0.144531 0.726562 -0.257812 0.59375 -0.40625 C 0.457031 -0.5625 0.351562 -0.738281 0.28125 -0.9375 C 0.207031 -1.132812 0.171875 -1.34375 0.171875 -1.5625 Z M 2.640625 -1.15625 L 2.640625 -1.890625 C 2.597656 -2.015625 2.53125 -2.117188 2.4375 -2.203125 C 2.351562 -2.296875 2.253906 -2.367188 2.140625 -2.421875 C 2.035156 -2.472656 1.929688 -2.5 1.828125 -2.5 C 1.703125 -2.5 1.585938 -2.472656 1.484375 -2.421875 C 1.390625 -2.378906 1.304688 -2.3125 1.234375 -2.21875 C 1.160156 -2.132812 1.101562 -2.03125 1.0625 -1.90625 C 1.019531 -1.789062 1 -1.671875 1 -1.546875 C 1 -1.421875 1.019531 -1.300781 1.0625 -1.1875 C 1.101562 -1.070312 1.164062 -0.972656 1.25 -0.890625 C 1.332031 -0.804688 1.425781 -0.738281 1.53125 -0.6875 C 1.632812 -0.644531 1.75 -0.625 1.875 -0.625 C 1.945312 -0.625 2.019531 -0.632812 2.09375 -0.65625 C 2.175781 -0.6875 2.25 -0.722656 2.3125 -0.765625 C 2.382812 -0.816406 2.445312 -0.875 2.5 -0.9375 C 2.5625 -1 2.609375 -1.070312 2.640625 -1.15625 Z M 2.640625 -1.15625 "/></g></g></g><g fill="#f6f6f6" fill-opacity="1"><g transform="translate(44.678286, 53.336066)"><g><path d="M 0.15625 -0.921875 C 0.15625 -1.128906 0.207031 -1.304688 0.3125 -1.453125 C 0.425781 -1.609375 0.582031 -1.726562 0.78125 -1.8125 C 0.988281 -1.894531 1.226562 -1.9375 1.5 -1.9375 C 1.625 -1.9375 1.753906 -1.925781 1.890625 -1.90625 C 2.023438 -1.894531 2.144531 -1.863281 2.25 -1.8125 L 2.25 -1.984375 C 2.25 -2.179688 2.1875 -2.332031 2.0625 -2.4375 C 1.945312 -2.550781 1.773438 -2.609375 1.546875 -2.609375 C 1.378906 -2.609375 1.21875 -2.578125 1.0625 -2.515625 C 0.90625 -2.453125 0.738281 -2.363281 0.5625 -2.25 L 0.3125 -2.78125 C 0.519531 -2.914062 0.734375 -3.015625 0.953125 -3.078125 C 1.171875 -3.148438 1.398438 -3.1875 1.640625 -3.1875 C 2.078125 -3.1875 2.421875 -3.070312 2.671875 -2.84375 C 2.921875 -2.625 3.046875 -2.304688 3.046875 -1.890625 L 3.046875 -0.890625 C 3.046875 -0.804688 3.0625 -0.75 3.09375 -0.71875 C 3.125 -0.6875 3.175781 -0.664062 3.25 -0.65625 L 3.25 0 C 3.175781 0.0078125 3.109375 0.0195312 3.046875 0.03125 C 2.992188 0.0390625 2.945312 0.046875 2.90625 0.046875 C 2.738281 0.046875 2.613281 0.0078125 2.53125 -0.0625 C 2.457031 -0.132812 2.410156 -0.222656 2.390625 -0.328125 L 2.375 -0.484375 C 2.238281 -0.316406 2.066406 -0.179688 1.859375 -0.078125 C 1.660156 0.015625 1.453125 0.0625 1.234375 0.0625 C 1.023438 0.0625 0.835938 0.0195312 0.671875 -0.0625 C 0.515625 -0.15625 0.390625 -0.273438 0.296875 -0.421875 C 0.203125 -0.566406 0.15625 -0.734375 0.15625 -0.921875 Z M 2.09375 -0.765625 C 2.144531 -0.816406 2.179688 -0.863281 2.203125 -0.90625 C 2.234375 -0.957031 2.25 -1.003906 2.25 -1.046875 L 2.25 -1.359375 C 2.15625 -1.398438 2.050781 -1.429688 1.9375 -1.453125 C 1.820312 -1.472656 1.71875 -1.484375 1.625 -1.484375 C 1.414062 -1.484375 1.242188 -1.4375 1.109375 -1.34375 C 0.972656 -1.257812 0.90625 -1.144531 0.90625 -1 C 0.90625 -0.914062 0.925781 -0.835938 0.96875 -0.765625 C 1.019531 -0.691406 1.085938 -0.632812 1.171875 -0.59375 C 1.253906 -0.550781 1.351562 -0.53125 1.46875 -0.53125 C 1.582031 -0.53125 1.695312 -0.550781 1.8125 -0.59375 C 1.9375 -0.644531 2.03125 -0.703125 2.09375 -0.765625 Z M 2.09375 -0.765625 "/></g></g></g><g fill="#f6f6f6" fill-opacity="1"><g transform="translate(48.109265, 53.336066)"><g><path d="M 2.140625 0.0625 C 1.910156 0.0625 1.703125 0.0078125 1.515625 -0.09375 C 1.328125 -0.207031 1.175781 -0.359375 1.0625 -0.546875 L 1.0625 0 L 0.359375 0 L 0.359375 -4.375 L 1.171875 -4.375 L 1.171875 -2.578125 C 1.273438 -2.765625 1.414062 -2.910156 1.59375 -3.015625 C 1.78125 -3.128906 2 -3.1875 2.25 -3.1875 C 2.445312 -3.1875 2.628906 -3.144531 2.796875 -3.0625 C 2.960938 -2.976562 3.109375 -2.859375 3.234375 -2.703125 C 3.359375 -2.554688 3.453125 -2.382812 3.515625 -2.1875 C 3.578125 -1.988281 3.609375 -1.78125 3.609375 -1.5625 C 3.609375 -1.332031 3.570312 -1.117188 3.5 -0.921875 C 3.425781 -0.734375 3.320312 -0.5625 3.1875 -0.40625 C 3.0625 -0.257812 2.910156 -0.144531 2.734375 -0.0625 C 2.554688 0.0195312 2.359375 0.0625 2.140625 0.0625 Z M 1.921875 -0.625 C 2.054688 -0.625 2.175781 -0.644531 2.28125 -0.6875 C 2.382812 -0.738281 2.472656 -0.804688 2.546875 -0.890625 C 2.628906 -0.972656 2.691406 -1.070312 2.734375 -1.1875 C 2.773438 -1.300781 2.796875 -1.421875 2.796875 -1.546875 C 2.796875 -1.722656 2.757812 -1.882812 2.6875 -2.03125 C 2.613281 -2.175781 2.515625 -2.289062 2.390625 -2.375 C 2.273438 -2.457031 2.132812 -2.5 1.96875 -2.5 C 1.851562 -2.5 1.742188 -2.472656 1.640625 -2.421875 C 1.535156 -2.367188 1.441406 -2.296875 1.359375 -2.203125 C 1.273438 -2.117188 1.210938 -2.015625 1.171875 -1.890625 L 1.171875 -1.15625 C 1.191406 -1.070312 1.226562 -1 1.28125 -0.9375 C 1.332031 -0.875 1.394531 -0.816406 1.46875 -0.765625 C 1.539062 -0.722656 1.613281 -0.6875 1.6875 -0.65625 C 1.769531 -0.632812 1.847656 -0.625 1.921875 -0.625 Z M 1.921875 -0.625 "/></g></g></g><g fill="#f6f6f6" fill-opacity="1"><g transform="translate(51.898881, 53.336066)"><g><path d="M 1.8125 0.0625 C 1.5625 0.0625 1.332031 0.0195312 1.125 -0.0625 C 0.914062 -0.15625 0.738281 -0.273438 0.59375 -0.421875 C 0.457031 -0.578125 0.351562 -0.75 0.28125 -0.9375 C 0.207031 -1.132812 0.171875 -1.34375 0.171875 -1.5625 C 0.171875 -1.78125 0.207031 -1.988281 0.28125 -2.1875 C 0.351562 -2.382812 0.457031 -2.554688 0.59375 -2.703125 C 0.738281 -2.859375 0.914062 -2.976562 1.125 -3.0625 C 1.332031 -3.144531 1.5625 -3.1875 1.8125 -3.1875 C 2.070312 -3.1875 2.300781 -3.144531 2.5 -3.0625 C 2.695312 -2.976562 2.867188 -2.859375 3.015625 -2.703125 C 3.160156 -2.554688 3.269531 -2.382812 3.34375 -2.1875 C 3.414062 -1.988281 3.453125 -1.78125 3.453125 -1.5625 C 3.453125 -1.34375 3.414062 -1.132812 3.34375 -0.9375 C 3.269531 -0.75 3.160156 -0.578125 3.015625 -0.421875 C 2.878906 -0.273438 2.707031 -0.15625 2.5 -0.0625 C 2.300781 0.0195312 2.070312 0.0625 1.8125 0.0625 Z M 1 -1.5625 C 1 -1.375 1.03125 -1.207031 1.09375 -1.0625 C 1.164062 -0.925781 1.265625 -0.816406 1.390625 -0.734375 C 1.515625 -0.660156 1.65625 -0.625 1.8125 -0.625 C 1.96875 -0.625 2.101562 -0.664062 2.21875 -0.75 C 2.34375 -0.832031 2.441406 -0.941406 2.515625 -1.078125 C 2.597656 -1.222656 2.640625 -1.382812 2.640625 -1.5625 C 2.640625 -1.75 2.597656 -1.910156 2.515625 -2.046875 C 2.441406 -2.191406 2.34375 -2.300781 2.21875 -2.375 C 2.101562 -2.457031 1.96875 -2.5 1.8125 -2.5 C 1.65625 -2.5 1.515625 -2.457031 1.390625 -2.375 C 1.265625 -2.300781 1.164062 -2.191406 1.09375 -2.046875 C 1.03125 -1.910156 1 -1.75 1 -1.5625 Z M 1 -1.5625 "/></g></g></g><g fill="#f6f6f6" fill-opacity="1"><g transform="translate(55.521134, 53.336066)"><g><path d="M 0.328125 -1.171875 L 0.328125 -3.140625 L 1.140625 -3.140625 L 1.140625 -1.34375 C 1.140625 -1.101562 1.179688 -0.921875 1.265625 -0.796875 C 1.359375 -0.679688 1.488281 -0.625 1.65625 -0.625 C 1.757812 -0.625 1.863281 -0.644531 1.96875 -0.6875 C 2.070312 -0.726562 2.164062 -0.789062 2.25 -0.875 C 2.332031 -0.957031 2.40625 -1.0625 2.46875 -1.1875 L 2.46875 -3.140625 L 3.265625 -3.140625 L 3.265625 -0.890625 C 3.265625 -0.804688 3.28125 -0.75 3.3125 -0.71875 C 3.34375 -0.6875 3.390625 -0.664062 3.453125 -0.65625 L 3.453125 0 C 3.378906 0.0078125 3.3125 0.015625 3.25 0.015625 C 3.195312 0.0234375 3.148438 0.03125 3.109375 0.03125 C 2.960938 0.03125 2.84375 0 2.75 -0.0625 C 2.664062 -0.125 2.617188 -0.210938 2.609375 -0.328125 L 2.578125 -0.59375 C 2.441406 -0.375 2.265625 -0.207031 2.046875 -0.09375 C 1.828125 0.0078125 1.585938 0.0625 1.328125 0.0625 C 1.003906 0.0625 0.753906 -0.0390625 0.578125 -0.25 C 0.410156 -0.457031 0.328125 -0.765625 0.328125 -1.171875 Z M 0.328125 -1.171875 "/></g></g></g><g fill="#f6f6f6" fill-opacity="1"><g transform="translate(59.215112, 53.336066)"><g><path d="M 2.25 -0.15625 C 2.175781 -0.132812 2.09375 -0.101562 2 -0.0625 C 1.90625 -0.03125 1.800781 -0.00390625 1.6875 0.015625 C 1.582031 0.0351562 1.472656 0.046875 1.359375 0.046875 C 1.210938 0.046875 1.078125 0.0195312 0.953125 -0.03125 C 0.828125 -0.0820312 0.726562 -0.160156 0.65625 -0.265625 C 0.582031 -0.378906 0.546875 -0.53125 0.546875 -0.71875 L 0.546875 -2.515625 L 0.125 -2.515625 L 0.125 -3.140625 L 0.546875 -3.140625 L 0.546875 -4.15625 L 1.34375 -4.15625 L 1.34375 -3.140625 L 2 -3.140625 L 2 -2.515625 L 1.34375 -2.515625 L 1.34375 -0.984375 C 1.351562 -0.878906 1.382812 -0.800781 1.4375 -0.75 C 1.488281 -0.707031 1.554688 -0.6875 1.640625 -0.6875 C 1.722656 -0.6875 1.804688 -0.695312 1.890625 -0.71875 C 1.972656 -0.75 2.035156 -0.773438 2.078125 -0.796875 Z M 2.25 -0.15625 "/></g></g></g><g fill="#f6f6f6" fill-opacity="1"><g transform="translate(191.475964, 34.100647)"><g><path d="M 1.828125 0.0625 C 1.566406 0.0625 1.332031 0.0195312 1.125 -0.0625 C 0.925781 -0.15625 0.753906 -0.273438 0.609375 -0.421875 C 0.472656 -0.578125 0.363281 -0.753906 0.28125 -0.953125 C 0.207031 -1.148438 0.171875 -1.351562 0.171875 -1.5625 C 0.171875 -1.863281 0.234375 -2.132812 0.359375 -2.375 C 0.492188 -2.625 0.6875 -2.820312 0.9375 -2.96875 C 1.1875 -3.113281 1.476562 -3.1875 1.8125 -3.1875 C 2.15625 -3.1875 2.445312 -3.113281 2.6875 -2.96875 C 2.9375 -2.820312 3.117188 -2.628906 3.234375 -2.390625 L 2.453125 -2.140625 C 2.390625 -2.265625 2.300781 -2.351562 2.1875 -2.40625 C 2.070312 -2.46875 1.945312 -2.5 1.8125 -2.5 C 1.65625 -2.5 1.515625 -2.460938 1.390625 -2.390625 C 1.265625 -2.316406 1.164062 -2.207031 1.09375 -2.0625 C 1.03125 -1.914062 1 -1.75 1 -1.5625 C 1 -1.382812 1.035156 -1.222656 1.109375 -1.078125 C 1.179688 -0.941406 1.273438 -0.832031 1.390625 -0.75 C 1.515625 -0.664062 1.65625 -0.625 1.8125 -0.625 C 1.90625 -0.625 1.992188 -0.640625 2.078125 -0.671875 C 2.171875 -0.703125 2.25 -0.742188 2.3125 -0.796875 C 2.382812 -0.859375 2.4375 -0.925781 2.46875 -1 L 3.25 -0.75 C 3.175781 -0.59375 3.070312 -0.453125 2.9375 -0.328125 C 2.800781 -0.210938 2.640625 -0.117188 2.453125 -0.046875 C 2.265625 0.0234375 2.054688 0.0625 1.828125 0.0625 Z M 1.828125 0.0625 "/></g></g></g><g fill="#f6f6f6" fill-opacity="1"><g transform="translate(194.847172, 34.100647)"><g><path d="M 1.8125 0.0625 C 1.5625 0.0625 1.332031 0.0195312 1.125 -0.0625 C 0.914062 -0.15625 0.738281 -0.273438 0.59375 -0.421875 C 0.457031 -0.578125 0.351562 -0.75 0.28125 -0.9375 C 0.207031 -1.132812 0.171875 -1.34375 0.171875 -1.5625 C 0.171875 -1.78125 0.207031 -1.988281 0.28125 -2.1875 C 0.351562 -2.382812 0.457031 -2.554688 0.59375 -2.703125 C 0.738281 -2.859375 0.914062 -2.976562 1.125 -3.0625 C 1.332031 -3.144531 1.5625 -3.1875 1.8125 -3.1875 C 2.070312 -3.1875 2.300781 -3.144531 2.5 -3.0625 C 2.695312 -2.976562 2.867188 -2.859375 3.015625 -2.703125 C 3.160156 -2.554688 3.269531 -2.382812 3.34375 -2.1875 C 3.414062 -1.988281 3.453125 -1.78125 3.453125 -1.5625 C 3.453125 -1.34375 3.414062 -1.132812 3.34375 -0.9375 C 3.269531 -0.75 3.160156 -0.578125 3.015625 -0.421875 C 2.878906 -0.273438 2.707031 -0.15625 2.5 -0.0625 C 2.300781 0.0195312 2.070312 0.0625 1.8125 0.0625 Z M 1 -1.5625 C 1 -1.375 1.03125 -1.207031 1.09375 -1.0625 C 1.164062 -0.925781 1.265625 -0.816406 1.390625 -0.734375 C 1.515625 -0.660156 1.65625 -0.625 1.8125 -0.625 C 1.96875 -0.625 2.101562 -0.664062 2.21875 -0.75 C 2.34375 -0.832031 2.441406 -0.941406 2.515625 -1.078125 C 2.597656 -1.222656 2.640625 -1.382812 2.640625 -1.5625 C 2.640625 -1.75 2.597656 -1.910156 2.515625 -2.046875 C 2.441406 -2.191406 2.34375 -2.300781 2.21875 -2.375 C 2.101562 -2.457031 1.96875 -2.5 1.8125 -2.5 C 1.65625 -2.5 1.515625 -2.457031 1.390625 -2.375 C 1.265625 -2.300781 1.164062 -2.191406 1.09375 -2.046875 C 1.03125 -1.910156 1 -1.75 1 -1.5625 Z M 1 -1.5625 "/></g></g></g><g fill="#f6f6f6" fill-opacity="1"><g transform="translate(198.469425, 34.100647)"><g><path d="M 3.28125 0 L 2.484375 0 L 2.484375 -1.765625 C 2.484375 -2.015625 2.4375 -2.195312 2.34375 -2.3125 C 2.257812 -2.425781 2.140625 -2.484375 1.984375 -2.484375 C 1.867188 -2.484375 1.753906 -2.453125 1.640625 -2.390625 C 1.535156 -2.335938 1.441406 -2.257812 1.359375 -2.15625 C 1.273438 -2.0625 1.210938 -1.953125 1.171875 -1.828125 L 1.171875 0 L 0.359375 0 L 0.359375 -3.140625 L 1.09375 -3.140625 L 1.09375 -2.5625 C 1.164062 -2.695312 1.265625 -2.8125 1.390625 -2.90625 C 1.515625 -3 1.65625 -3.066406 1.8125 -3.109375 C 1.976562 -3.160156 2.148438 -3.1875 2.328125 -3.1875 C 2.523438 -3.1875 2.6875 -3.148438 2.8125 -3.078125 C 2.9375 -3.015625 3.03125 -2.921875 3.09375 -2.796875 C 3.164062 -2.679688 3.210938 -2.550781 3.234375 -2.40625 C 3.265625 -2.257812 3.28125 -2.109375 3.28125 -1.953125 Z M 3.28125 0 "/></g></g></g><g fill="#f6f6f6" fill-opacity="1"><g transform="translate(202.079722, 34.100647)"><g><path d="M 2.25 -0.15625 C 2.175781 -0.132812 2.09375 -0.101562 2 -0.0625 C 1.90625 -0.03125 1.800781 -0.00390625 1.6875 0.015625 C 1.582031 0.0351562 1.472656 0.046875 1.359375 0.046875 C 1.210938 0.046875 1.078125 0.0195312 0.953125 -0.03125 C 0.828125 -0.0820312 0.726562 -0.160156 0.65625 -0.265625 C 0.582031 -0.378906 0.546875 -0.53125 0.546875 -0.71875 L 0.546875 -2.515625 L 0.125 -2.515625 L 0.125 -3.140625 L 0.546875 -3.140625 L 0.546875 -4.15625 L 1.34375 -4.15625 L 1.34375 -3.140625 L 2 -3.140625 L 2 -2.515625 L 1.34375 -2.515625 L 1.34375 -0.984375 C 1.351562 -0.878906 1.382812 -0.800781 1.4375 -0.75 C 1.488281 -0.707031 1.554688 -0.6875 1.640625 -0.6875 C 1.722656 -0.6875 1.804688 -0.695312 1.890625 -0.71875 C 1.972656 -0.75 2.035156 -0.773438 2.078125 -0.796875 Z M 2.25 -0.15625 "/></g></g></g><g fill="#f6f6f6" fill-opacity="1"><g transform="translate(204.375012, 34.100647)"><g><path d="M 0.15625 -0.921875 C 0.15625 -1.128906 0.207031 -1.304688 0.3125 -1.453125 C 0.425781 -1.609375 0.582031 -1.726562 0.78125 -1.8125 C 0.988281 -1.894531 1.226562 -1.9375 1.5 -1.9375 C 1.625 -1.9375 1.753906 -1.925781 1.890625 -1.90625 C 2.023438 -1.894531 2.144531 -1.863281 2.25 -1.8125 L 2.25 -1.984375 C 2.25 -2.179688 2.1875 -2.332031 2.0625 -2.4375 C 1.945312 -2.550781 1.773438 -2.609375 1.546875 -2.609375 C 1.378906 -2.609375 1.21875 -2.578125 1.0625 -2.515625 C 0.90625 -2.453125 0.738281 -2.363281 0.5625 -2.25 L 0.3125 -2.78125 C 0.519531 -2.914062 0.734375 -3.015625 0.953125 -3.078125 C 1.171875 -3.148438 1.398438 -3.1875 1.640625 -3.1875 C 2.078125 -3.1875 2.421875 -3.070312 2.671875 -2.84375 C 2.921875 -2.625 3.046875 -2.304688 3.046875 -1.890625 L 3.046875 -0.890625 C 3.046875 -0.804688 3.0625 -0.75 3.09375 -0.71875 C 3.125 -0.6875 3.175781 -0.664062 3.25 -0.65625 L 3.25 0 C 3.175781 0.0078125 3.109375 0.0195312 3.046875 0.03125 C 2.992188 0.0390625 2.945312 0.046875 2.90625 0.046875 C 2.738281 0.046875 2.613281 0.0078125 2.53125 -0.0625 C 2.457031 -0.132812 2.410156 -0.222656 2.390625 -0.328125 L 2.375 -0.484375 C 2.238281 -0.316406 2.066406 -0.179688 1.859375 -0.078125 C 1.660156 0.015625 1.453125 0.0625 1.234375 0.0625 C 1.023438 0.0625 0.835938 0.0195312 0.671875 -0.0625 C 0.515625 -0.15625 0.390625 -0.273438 0.296875 -0.421875 C 0.203125 -0.566406 0.15625 -0.734375 0.15625 -0.921875 Z M 2.09375 -0.765625 C 2.144531 -0.816406 2.179688 -0.863281 2.203125 -0.90625 C 2.234375 -0.957031 2.25 -1.003906 2.25 -1.046875 L 2.25 -1.359375 C 2.15625 -1.398438 2.050781 -1.429688 1.9375 -1.453125 C 1.820312 -1.472656 1.71875 -1.484375 1.625 -1.484375 C 1.414062 -1.484375 1.242188 -1.4375 1.109375 -1.34375 C 0.972656 -1.257812 0.90625 -1.144531 0.90625 -1 C 0.90625 -0.914062 0.925781 -0.835938 0.96875 -0.765625 C 1.019531 -0.691406 1.085938 -0.632812 1.171875 -0.59375 C 1.253906 -0.550781 1.351562 -0.53125 1.46875 -0.53125 C 1.582031 -0.53125 1.695312 -0.550781 1.8125 -0.59375 C 1.9375 -0.644531 2.03125 -0.703125 2.09375 -0.765625 Z M 2.09375 -0.765625 "/></g></g></g><g fill="#f6f6f6" fill-opacity="1"><g transform="translate(207.805991, 34.100647)"><g><path d="M 1.828125 0.0625 C 1.566406 0.0625 1.332031 0.0195312 1.125 -0.0625 C 0.925781 -0.15625 0.753906 -0.273438 0.609375 -0.421875 C 0.472656 -0.578125 0.363281 -0.753906 0.28125 -0.953125 C 0.207031 -1.148438 0.171875 -1.351562 0.171875 -1.5625 C 0.171875 -1.863281 0.234375 -2.132812 0.359375 -2.375 C 0.492188 -2.625 0.6875 -2.820312 0.9375 -2.96875 C 1.1875 -3.113281 1.476562 -3.1875 1.8125 -3.1875 C 2.15625 -3.1875 2.445312 -3.113281 2.6875 -2.96875 C 2.9375 -2.820312 3.117188 -2.628906 3.234375 -2.390625 L 2.453125 -2.140625 C 2.390625 -2.265625 2.300781 -2.351562 2.1875 -2.40625 C 2.070312 -2.46875 1.945312 -2.5 1.8125 -2.5 C 1.65625 -2.5 1.515625 -2.460938 1.390625 -2.390625 C 1.265625 -2.316406 1.164062 -2.207031 1.09375 -2.0625 C 1.03125 -1.914062 1 -1.75 1 -1.5625 C 1 -1.382812 1.035156 -1.222656 1.109375 -1.078125 C 1.179688 -0.941406 1.273438 -0.832031 1.390625 -0.75 C 1.515625 -0.664062 1.65625 -0.625 1.8125 -0.625 C 1.90625 -0.625 1.992188 -0.640625 2.078125 -0.671875 C 2.171875 -0.703125 2.25 -0.742188 2.3125 -0.796875 C 2.382812 -0.859375 2.4375 -0.925781 2.46875 -1 L 3.25 -0.75 C 3.175781 -0.59375 3.070312 -0.453125 2.9375 -0.328125 C 2.800781 -0.210938 2.640625 -0.117188 2.453125 -0.046875 C 2.265625 0.0234375 2.054688 0.0625 1.828125 0.0625 Z M 1.828125 0.0625 "/></g></g></g><g fill="#f6f6f6" fill-opacity="1"><g transform="translate(211.177199, 34.100647)"><g><path d="M 2.25 -0.15625 C 2.175781 -0.132812 2.09375 -0.101562 2 -0.0625 C 1.90625 -0.03125 1.800781 -0.00390625 1.6875 0.015625 C 1.582031 0.0351562 1.472656 0.046875 1.359375 0.046875 C 1.210938 0.046875 1.078125 0.0195312 0.953125 -0.03125 C 0.828125 -0.0820312 0.726562 -0.160156 0.65625 -0.265625 C 0.582031 -0.378906 0.546875 -0.53125 0.546875 -0.71875 L 0.546875 -2.515625 L 0.125 -2.515625 L 0.125 -3.140625 L 0.546875 -3.140625 L 0.546875 -4.15625 L 1.34375 -4.15625 L 1.34375 -3.140625 L 2 -3.140625 L 2 -2.515625 L 1.34375 -2.515625 L 1.34375 -0.984375 C 1.351562 -0.878906 1.382812 -0.800781 1.4375 -0.75 C 1.488281 -0.707031 1.554688 -0.6875 1.640625 -0.6875 C 1.722656 -0.6875 1.804688 -0.695312 1.890625 -0.71875 C 1.972656 -0.75 2.035156 -0.773438 2.078125 -0.796875 Z M 2.25 -0.15625 "/></g></g></g><g fill="#f6f6f6" fill-opacity="1"><g transform="translate(213.472489, 34.100647)"><g><path d="M 0.34375 -1.28125 L 0.34375 -2 L 2.15625 -2 L 2.15625 -1.28125 Z M 0.34375 -1.28125 "/></g></g></g><g fill="#f6f6f6" fill-opacity="1"><g transform="translate(215.971008, 34.100647)"><g><path d="M 0.328125 -1.171875 L 0.328125 -3.140625 L 1.140625 -3.140625 L 1.140625 -1.34375 C 1.140625 -1.101562 1.179688 -0.921875 1.265625 -0.796875 C 1.359375 -0.679688 1.488281 -0.625 1.65625 -0.625 C 1.757812 -0.625 1.863281 -0.644531 1.96875 -0.6875 C 2.070312 -0.726562 2.164062 -0.789062 2.25 -0.875 C 2.332031 -0.957031 2.40625 -1.0625 2.46875 -1.1875 L 2.46875 -3.140625 L 3.265625 -3.140625 L 3.265625 -0.890625 C 3.265625 -0.804688 3.28125 -0.75 3.3125 -0.71875 C 3.34375 -0.6875 3.390625 -0.664062 3.453125 -0.65625 L 3.453125 0 C 3.378906 0.0078125 3.3125 0.015625 3.25 0.015625 C 3.195312 0.0234375 3.148438 0.03125 3.109375 0.03125 C 2.960938 0.03125 2.84375 0 2.75 -0.0625 C 2.664062 -0.125 2.617188 -0.210938 2.609375 -0.328125 L 2.578125 -0.59375 C 2.441406 -0.375 2.265625 -0.207031 2.046875 -0.09375 C 1.828125 0.0078125 1.585938 0.0625 1.328125 0.0625 C 1.003906 0.0625 0.753906 -0.0390625 0.578125 -0.25 C 0.410156 -0.457031 0.328125 -0.765625 0.328125 -1.171875 Z M 0.328125 -1.171875 "/></g></g></g><g fill="#f6f6f6" fill-opacity="1"><g transform="translate(219.664987, 34.100647)"><g><path d="M 1.515625 0.0625 C 1.253906 0.0625 1 0.0195312 0.75 -0.0625 C 0.507812 -0.15625 0.300781 -0.285156 0.125 -0.453125 L 0.40625 -0.984375 C 0.59375 -0.828125 0.773438 -0.710938 0.953125 -0.640625 C 1.140625 -0.566406 1.316406 -0.53125 1.484375 -0.53125 C 1.640625 -0.53125 1.765625 -0.554688 1.859375 -0.609375 C 1.953125 -0.671875 2 -0.757812 2 -0.875 C 2 -0.945312 1.972656 -1.003906 1.921875 -1.046875 C 1.867188 -1.085938 1.796875 -1.125 1.703125 -1.15625 C 1.609375 -1.1875 1.488281 -1.222656 1.34375 -1.265625 C 1.113281 -1.335938 0.921875 -1.410156 0.765625 -1.484375 C 0.609375 -1.554688 0.488281 -1.644531 0.40625 -1.75 C 0.332031 -1.863281 0.296875 -2.007812 0.296875 -2.1875 C 0.296875 -2.394531 0.347656 -2.570312 0.453125 -2.71875 C 0.554688 -2.863281 0.703125 -2.976562 0.890625 -3.0625 C 1.085938 -3.15625 1.3125 -3.203125 1.5625 -3.203125 C 1.789062 -3.203125 2.003906 -3.164062 2.203125 -3.09375 C 2.398438 -3.019531 2.582031 -2.90625 2.75 -2.75 L 2.421875 -2.25 C 2.265625 -2.363281 2.113281 -2.453125 1.96875 -2.515625 C 1.820312 -2.578125 1.675781 -2.609375 1.53125 -2.609375 C 1.445312 -2.609375 1.367188 -2.597656 1.296875 -2.578125 C 1.222656 -2.554688 1.160156 -2.519531 1.109375 -2.46875 C 1.066406 -2.425781 1.046875 -2.363281 1.046875 -2.28125 C 1.046875 -2.207031 1.066406 -2.148438 1.109375 -2.109375 C 1.148438 -2.066406 1.210938 -2.023438 1.296875 -1.984375 C 1.390625 -1.953125 1.492188 -1.921875 1.609375 -1.890625 C 1.867188 -1.816406 2.082031 -1.738281 2.25 -1.65625 C 2.425781 -1.582031 2.554688 -1.488281 2.640625 -1.375 C 2.734375 -1.269531 2.78125 -1.125 2.78125 -0.9375 C 2.78125 -0.625 2.664062 -0.378906 2.4375 -0.203125 C 2.207031 -0.0234375 1.898438 0.0625 1.515625 0.0625 Z M 1.515625 0.0625 "/></g></g></g></svg>