<svg xmlns="http://www.w3.org/2000/svg" xmlns:xlink="http://www.w3.org/1999/xlink" width="350" zoomAndPan="magnify" viewBox="0 0 262.5 197.249993" height="263" preserveAspectRatio="xMidYMid meet" version="1.0"><defs><g/><clipPath id="806741f0da"><path d="M 0.25 0 L 261.753906 0 L 261.753906 196.503906 L 0.25 196.503906 Z M 0.25 0 " clip-rule="nonzero"/></clipPath><clipPath id="da22f00d64"><path d="M 3.734375 160.609375 L 258.265625 160.609375 L 258.265625 184.128906 L 3.734375 184.128906 Z M 3.734375 160.609375 " clip-rule="nonzero"/></clipPath><clipPath id="ba2caee257"><path d="M 58.679688 33.007812 L 185.695312 33.007812 L 185.695312 146.578125 L 58.679688 146.578125 Z M 58.679688 33.007812 " clip-rule="nonzero"/></clipPath><clipPath id="6b3a316d37"><path d="M 125.117188 121.484375 L 131 121.484375 L 131 125 L 125.117188 125 Z M 125.117188 121.484375 " clip-rule="nonzero"/></clipPath><clipPath id="6400374c38"><path d="M 125.117188 123 L 131 123 L 131 135.679688 L 125.117188 135.679688 Z M 125.117188 123 " clip-rule="nonzero"/></clipPath><clipPath id="7295814d73"><path d="M 130 129 L 136 129 L 136 135.679688 L 130 135.679688 Z M 130 129 " clip-rule="nonzero"/></clipPath><clipPath id="227f224d7c"><path d="M 135 124 L 138.566406 124 L 138.566406 130 L 135 130 Z M 135 124 " clip-rule="nonzero"/></clipPath><clipPath id="7401119828"><path d="M 132 123 L 138.566406 123 L 138.566406 127 L 132 127 Z M 132 123 " clip-rule="nonzero"/></clipPath></defs><g clip-path="url(#806741f0da)"><path fill="#ffffff" d="M 0.25 0 L 261.753906 0 L 261.753906 196.503906 L 0.25 196.503906 Z M 0.25 0 " fill-opacity="1" fill-rule="nonzero"/><path fill="#f6f6f6" d="M 0.25 0 L 261.753906 0 L 261.753906 196.503906 L 0.25 196.503906 Z M 0.25 0 " fill-opacity="1" fill-rule="nonzero"/></g><g clip-path="url(#da22f00d64)"><path fill="#f9342c" d="M 3.734375 160.609375 L 258.285156 160.609375 L 258.285156 184.128906 L 3.734375 184.128906 Z M 3.734375 160.609375 " fill-opacity="1" fill-rule="nonzero"/></g><path fill="#737373" d="M 99.625 87.253906 C 101.429688 87.253906 102.894531 85.789062 102.894531 83.980469 C 102.894531 82.171875 101.429688 80.707031 99.625 80.707031 C 97.816406 80.707031 96.351562 82.171875 96.351562 83.980469 C 96.351562 85.789062 97.816406 87.253906 99.625 87.253906 Z M 99.625 87.253906 " fill-opacity="1" fill-rule="nonzero"/><path fill="#737373" d="M 112.390625 83.980469 C 112.390625 82.171875 110.925781 80.707031 109.117188 80.707031 C 107.308594 80.707031 105.84375 82.171875 105.84375 83.980469 C 105.84375 85.789062 107.308594 87.253906 109.117188 87.253906 C 110.925781 87.253906 112.390625 85.789062 112.390625 83.980469 Z M 112.390625 83.980469 " fill-opacity="1" fill-rule="nonzero"/><path fill="#737373" d="M 121.886719 83.980469 C 121.886719 82.171875 120.417969 80.707031 118.613281 80.707031 C 116.804688 80.707031 115.339844 82.171875 115.339844 83.980469 C 115.339844 85.789062 116.804688 87.253906 118.613281 87.253906 C 120.417969 87.253906 121.886719 85.789062 121.886719 83.980469 Z M 121.886719 83.980469 " fill-opacity="1" fill-rule="nonzero"/><path fill="#737373" d="M 85.484375 77.75 L 69.914062 77.75 C 69.375 77.75 68.9375 78.191406 68.9375 78.726562 C 68.9375 79.265625 69.375 79.703125 69.914062 79.703125 L 85.484375 79.703125 C 86.023438 79.703125 86.460938 79.265625 86.460938 78.726562 C 86.460938 78.191406 86.023438 77.75 85.484375 77.75 Z M 85.484375 77.75 " fill-opacity="1" fill-rule="nonzero"/><path fill="#737373" d="M 85.484375 86.589844 L 69.914062 86.589844 C 69.375 86.589844 68.9375 87.027344 68.9375 87.566406 C 68.9375 88.101562 69.375 88.539062 69.914062 88.539062 L 85.484375 88.539062 C 86.023438 88.539062 86.460938 88.101562 86.460938 87.566406 C 86.460938 87.027344 86.023438 86.589844 85.484375 86.589844 Z M 85.484375 86.589844 " fill-opacity="1" fill-rule="nonzero"/><g clip-path="url(#ba2caee257)"><path fill="#737373" d="M 183.871094 33.097656 L 137.234375 33.097656 C 136.695312 33.097656 136.261719 33.535156 136.261719 34.074219 C 136.261719 34.609375 136.695312 35.050781 137.234375 35.050781 L 183.753906 34.972656 L 183.867188 56.84375 C 183.816406 56.949219 183.765625 57.058594 183.757812 57.179688 L 110.816406 57.257812 C 110.8125 56.863281 110.691406 33.570312 110.699219 35.050781 L 128.726562 35.050781 C 129.265625 35.050781 129.703125 34.609375 129.703125 34.074219 C 129.703125 33.535156 129.265625 33.097656 128.726562 33.097656 L 110.699219 33.097656 C 109.6875 33.097656 108.863281 33.941406 108.863281 34.972656 C 108.863281 35.855469 108.863281 61.078125 108.863281 60.378906 C 108.863281 61.363281 109.652344 62.132812 110.660156 62.132812 L 152.261719 62.132812 L 152.261719 75.835938 C 150.679688 76.273438 149.492188 77.660156 149.492188 79.375 C 149.492188 81.09375 150.679688 82.480469 152.261719 82.917969 L 152.261719 105.808594 C 148.578125 106.828125 148.582031 111.875 152.261719 112.890625 L 152.261719 118.058594 C 152.261719 119.578125 150.972656 120.867188 149.449219 120.867188 L 147.734375 120.867188 C 147.609375 120.867188 147.527344 120.953125 147.417969 120.996094 L 146.875 119.539062 C 146.71875 119.148438 146.40625 118.835938 146.015625 118.679688 C 145.164062 118.253906 144.558594 118.820312 143.128906 119.265625 C 142.582031 118.5625 141.996094 117.902344 141.332031 117.277344 L 142.113281 115.519531 C 142.464844 114.738281 142.113281 113.804688 141.332031 113.414062 L 136.257812 111.109375 C 135.441406 110.757812 134.542969 111.109375 134.152344 111.929688 L 133.410156 113.492188 C 132.472656 113.335938 131.539062 113.296875 130.601562 113.335938 L 129.898438 111.539062 C 129.664062 110.75 128.785156 110.328125 127.871094 110.601562 L 122.640625 112.59375 C 121.78125 112.90625 121.390625 113.804688 121.703125 114.621094 L 122.289062 116.183594 C 121.429688 116.808594 120.648438 117.511719 119.910156 118.292969 L 118.308594 117.550781 C 117.527344 117.199219 116.550781 117.550781 116.199219 118.328125 L 113.898438 123.441406 C 113.546875 124.222656 113.898438 125.160156 114.679688 125.550781 L 116.199219 126.214844 C 116.003906 127.265625 115.964844 128.359375 116.082031 129.453125 L 114.445312 130.039062 C 114.054688 130.195312 113.742188 130.503906 113.546875 130.894531 C 113.496094 131.011719 113.480469 131.152344 113.457031 131.285156 L 103.871094 131.285156 C 102.292969 131.285156 101.058594 130.050781 101.058594 128.476562 L 101.058594 119.09375 C 104.734375 118.070312 104.730469 113.042969 101.058594 112.019531 L 101.058594 99.207031 L 133.957031 99.207031 C 134.945312 99.207031 135.753906 98.402344 135.753906 97.414062 L 135.753906 71.96875 C 135.753906 70.957031 134.914062 70.132812 133.878906 70.132812 L 98.484375 70.132812 C 97.945312 70.132812 97.507812 70.570312 97.507812 71.109375 C 97.507812 71.648438 97.945312 72.085938 98.484375 72.085938 L 133.800781 71.96875 L 133.878906 94.039062 C 133.859375 94.097656 133.816406 94.144531 133.808594 94.210938 L 60.847656 94.296875 C 60.828125 79.351562 60.808594 77.636719 60.746094 72.085938 L 92.277344 72.085938 C 92.816406 72.085938 93.253906 71.648438 93.253906 71.109375 C 93.253906 70.570312 92.816406 70.132812 92.277344 70.132812 L 60.746094 70.132812 C 59.730469 70.132812 58.875 70.976562 58.875 71.96875 C 58.886719 84.617188 58.859375 92.75 58.914062 97.414062 C 58.914062 98.382812 59.71875 99.207031 60.667969 99.207031 L 99.109375 99.207031 L 99.109375 112.019531 C 97.53125 112.457031 96.347656 113.84375 96.347656 115.558594 C 96.347656 117.269531 97.53125 118.65625 99.109375 119.09375 L 99.109375 128.476562 C 99.109375 131.101562 101.246094 133.234375 103.871094 133.234375 L 113.9375 133.234375 L 115.5 137.335938 C 115.734375 138.121094 116.613281 138.546875 117.527344 138.273438 L 119.167969 137.648438 C 119.832031 138.46875 120.570312 139.246094 121.429688 139.949219 C 121.007812 141.023438 120.28125 141.746094 120.648438 142.757812 C 120.804688 143.148438 121.117188 143.460938 121.507812 143.617188 L 126.582031 145.921875 C 127.234375 146.285156 128.265625 145.988281 128.6875 145.140625 L 129.46875 143.382812 C 130.328125 143.5 131.1875 143.5 132.085938 143.460938 L 132.707031 145.0625 C 132.890625 145.726562 133.570312 146.328125 134.738281 146.039062 L 139.96875 144.046875 C 140.785156 143.734375 141.214844 142.796875 140.902344 141.980469 L 140.320312 140.378906 C 141.136719 139.714844 141.878906 139.011719 142.582031 138.195312 C 143.867188 138.6875 144.585938 139.382812 145.507812 139.011719 C 145.898438 138.855469 146.25 138.546875 146.40625 138.195312 L 148.707031 133.082031 C 149.097656 132.304688 148.699219 131.359375 147.929688 130.972656 L 146.09375 130.15625 C 146.210938 129.257812 146.210938 128.359375 146.171875 127.5 L 147.890625 126.835938 C 148.707031 126.523438 149.136719 125.589844 148.824219 124.769531 L 148.097656 122.816406 L 149.449219 122.816406 C 152.074219 122.816406 154.210938 120.683594 154.210938 118.058594 L 154.210938 112.890625 C 157.875 111.863281 157.878906 106.839844 154.210938 105.8125 L 154.210938 82.914062 C 155.785156 82.476562 156.964844 81.089844 156.964844 79.375 C 156.964844 77.664062 155.785156 76.28125 154.210938 75.839844 L 154.210938 62.132812 L 183.910156 62.132812 C 184.914062 62.132812 185.703125 61.363281 185.703125 60.378906 C 185.703125 59.839844 185.703125 34.277344 185.703125 34.972656 C 185.703125 33.941406 184.878906 33.097656 183.871094 33.097656 Z M 98.296875 115.558594 C 98.296875 114.574219 99.097656 113.773438 100.082031 113.773438 C 101.066406 113.773438 101.867188 114.574219 101.867188 115.558594 C 101.867188 116.539062 101.066406 117.339844 100.082031 117.339844 C 99.097656 117.339844 98.296875 116.539062 98.296875 115.558594 Z M 143.492188 133.957031 C 143.25 134.453125 142.648438 134.632812 142.1875 134.402344 L 139.90625 133.277344 C 137.363281 137.761719 132.277344 139.441406 127.675781 137.726562 L 126.644531 140.636719 C 126.5 141.039062 126.125 141.285156 125.722656 141.285156 C 125.058594 141.285156 124.574219 140.628906 124.800781 139.980469 L 125.910156 136.863281 C 121.675781 134.257812 120.078125 129.289062 121.808594 124.753906 L 119.101562 123.445312 C 118.617188 123.214844 118.414062 122.628906 118.648438 122.144531 C 118.878906 121.65625 119.464844 121.449219 119.949219 121.691406 L 122.671875 123.007812 C 125.207031 118.921875 129.925781 117.339844 134.292969 118.761719 C 134.300781 118.738281 134.28125 118.710938 134.292969 118.6875 L 135.234375 116.296875 C 135.429688 115.792969 135.996094 115.558594 136.5 115.746094 C 137 115.945312 137.246094 116.507812 137.046875 117.011719 L 136.105469 119.402344 C 136.085938 119.453125 136.039062 119.476562 136.011719 119.519531 C 140.277344 121.84375 142.304688 126.707031 140.703125 131.492188 L 143.046875 132.648438 C 143.53125 132.890625 143.730469 133.472656 143.492188 133.957031 Z M 155.015625 109.347656 C 155.015625 110.335938 154.214844 111.136719 153.230469 111.136719 C 152.246094 111.136719 151.445312 110.335938 151.445312 109.347656 C 151.445312 108.367188 152.246094 107.566406 153.230469 107.566406 C 154.214844 107.566406 155.015625 108.367188 155.015625 109.347656 Z M 155.015625 79.375 C 155.015625 80.363281 154.214844 81.164062 153.230469 81.164062 C 152.246094 81.164062 151.445312 80.363281 151.445312 79.375 C 151.445312 78.390625 152.246094 77.589844 153.230469 77.589844 C 154.214844 77.589844 155.015625 78.390625 155.015625 79.375 Z M 155.015625 79.375 " fill-opacity="1" fill-rule="nonzero"/></g><path fill="#737373" d="M 152.859375 46.9375 C 152.859375 45.128906 151.394531 43.664062 149.585938 43.664062 C 147.777344 43.664062 146.3125 45.128906 146.3125 46.9375 C 146.3125 48.746094 147.777344 50.210938 149.585938 50.210938 C 151.394531 50.210938 152.859375 48.746094 152.859375 46.9375 Z M 152.859375 46.9375 " fill-opacity="1" fill-rule="nonzero"/><path fill="#737373" d="M 162.355469 46.9375 C 162.355469 45.128906 160.886719 43.664062 159.082031 43.664062 C 157.273438 43.664062 155.808594 45.128906 155.808594 46.9375 C 155.808594 48.746094 157.273438 50.210938 159.082031 50.210938 C 160.886719 50.210938 162.355469 48.746094 162.355469 46.9375 Z M 162.355469 46.9375 " fill-opacity="1" fill-rule="nonzero"/><path fill="#737373" d="M 171.847656 46.9375 C 171.847656 45.128906 170.382812 43.664062 168.574219 43.664062 C 166.769531 43.664062 165.300781 45.128906 165.300781 46.9375 C 165.300781 48.746094 166.769531 50.210938 168.574219 50.210938 C 170.382812 50.210938 171.847656 48.746094 171.847656 46.9375 Z M 171.847656 46.9375 " fill-opacity="1" fill-rule="nonzero"/><path fill="#737373" d="M 135.445312 40.707031 L 119.875 40.707031 C 119.335938 40.707031 118.902344 41.148438 118.902344 41.683594 C 118.902344 42.222656 119.335938 42.660156 119.875 42.660156 L 135.445312 42.660156 C 135.984375 42.660156 136.421875 42.222656 136.421875 41.683594 C 136.421875 41.148438 135.984375 40.707031 135.445312 40.707031 Z M 135.445312 40.707031 " fill-opacity="1" fill-rule="nonzero"/><path fill="#737373" d="M 135.445312 49.546875 L 119.875 49.546875 C 119.335938 49.546875 118.902344 49.984375 118.902344 50.523438 C 118.902344 51.058594 119.335938 51.496094 119.875 51.496094 L 135.445312 51.496094 C 135.984375 51.496094 136.421875 51.058594 136.421875 50.523438 C 136.421875 49.984375 135.984375 49.546875 135.445312 49.546875 Z M 135.445312 49.546875 " fill-opacity="1" fill-rule="nonzero"/><path fill="#737373" d="M 99.574219 62.582031 C 99.660156 62.046875 99.296875 61.546875 98.761719 61.464844 L 90.429688 60.152344 C 89.910156 60.082031 89.398438 60.429688 89.3125 60.964844 C 89.230469 61.496094 89.59375 61.996094 90.125 62.082031 L 98.457031 63.390625 C 99.015625 63.472656 99.492188 63.09375 99.574219 62.582031 Z M 99.574219 62.582031 " fill-opacity="1" fill-rule="nonzero"/><path fill="#737373" d="M 101.179688 58.953125 C 101.507812 58.523438 101.421875 57.910156 100.996094 57.582031 L 93.917969 52.183594 C 93.492188 51.859375 92.875 51.941406 92.550781 52.371094 C 92.222656 52.796875 92.304688 53.410156 92.734375 53.738281 L 99.8125 59.140625 C 100.238281 59.460938 100.847656 59.382812 101.179688 58.953125 Z M 101.179688 58.953125 " fill-opacity="1" fill-rule="nonzero"/><path fill="#737373" d="M 103.472656 56.351562 C 103.972656 56.148438 104.207031 55.578125 104 55.082031 L 101.558594 49.1875 C 101.351562 48.6875 100.78125 48.445312 100.285156 48.664062 C 99.785156 48.867188 99.550781 49.4375 99.757812 49.933594 L 102.199219 55.828125 C 102.414062 56.347656 103.011719 56.554688 103.472656 56.351562 Z M 103.472656 56.351562 " fill-opacity="1" fill-rule="nonzero"/><g clip-path="url(#6b3a316d37)"><path fill="#ef0a1b" d="M 127.910156 124.96875 C 127.875 124.96875 127.847656 124.960938 127.816406 124.941406 L 127.800781 124.929688 L 125.214844 123.394531 C 125.152344 123.355469 125.125 123.304688 125.121094 123.230469 C 125.121094 123.160156 125.152344 123.105469 125.210938 123.066406 L 127.738281 121.519531 C 127.800781 121.480469 127.863281 121.480469 127.925781 121.519531 L 130.496094 123.101562 C 130.558594 123.136719 130.585938 123.191406 130.585938 123.265625 C 130.585938 123.335938 130.558594 123.390625 130.496094 123.425781 L 128.003906 124.941406 C 127.972656 124.957031 127.945312 124.96875 127.910156 124.96875 Z M 125.667969 123.226562 L 127.910156 124.558594 L 130.042969 123.261719 L 127.832031 121.898438 Z M 125.667969 123.226562 " fill-opacity="1" fill-rule="nonzero"/></g><g clip-path="url(#6400374c38)"><path fill="#ef0a1b" d="M 130.476562 135.679688 C 130.445312 135.679688 130.414062 135.671875 130.386719 135.65625 L 125.21875 132.707031 C 125.15625 132.671875 125.121094 132.617188 125.121094 132.542969 L 125.121094 123.230469 C 125.121094 123.15625 125.152344 123.101562 125.214844 123.066406 C 125.277344 123.03125 125.335938 123.03125 125.398438 123.066406 L 127.984375 124.605469 C 128.046875 124.640625 128.074219 124.695312 128.074219 124.769531 L 128.074219 130.871094 L 130.570312 132.363281 C 130.628906 132.398438 130.660156 132.453125 130.660156 132.523438 L 130.660156 135.488281 C 130.660156 135.617188 130.597656 135.679688 130.476562 135.679688 Z M 125.492188 132.433594 L 130.292969 135.167969 L 130.292969 132.632812 L 127.800781 131.140625 C 127.738281 131.105469 127.707031 131.050781 127.707031 130.980469 L 127.707031 124.878906 L 125.492188 123.558594 Z M 125.492188 132.433594 " fill-opacity="1" fill-rule="nonzero"/></g><path fill="#ef0a1b" d="M 127.890625 131.167969 C 127.769531 131.167969 127.707031 131.105469 127.707031 130.980469 L 127.707031 124.769531 C 127.707031 124.652344 127.765625 124.589844 127.875 124.582031 L 130.308594 123.101562 C 130.371094 123.0625 130.433594 123.0625 130.492188 123.097656 C 130.554688 123.132812 130.585938 123.1875 130.585938 123.261719 L 130.660156 129.394531 C 130.660156 129.464844 130.632812 129.519531 130.570312 129.558594 L 127.984375 131.140625 C 127.957031 131.160156 127.925781 131.167969 127.890625 131.167969 Z M 128.074219 124.898438 L 128.074219 130.648438 L 130.292969 129.289062 L 130.222656 123.59375 Z M 128.074219 124.898438 " fill-opacity="1" fill-rule="nonzero"/><g clip-path="url(#7295814d73)"><path fill="#ef0a1b" d="M 130.476562 135.679688 C 130.355469 135.679688 130.292969 135.617188 130.292969 135.488281 L 130.292969 132.523438 C 130.292969 132.453125 130.324219 132.398438 130.386719 132.359375 L 135.648438 129.269531 C 135.707031 129.234375 135.769531 129.234375 135.832031 129.269531 C 135.890625 129.304688 135.921875 129.359375 135.921875 129.433594 L 135.921875 132.523438 C 135.921875 132.597656 135.890625 132.65625 135.828125 132.691406 L 130.566406 135.65625 C 130.539062 135.671875 130.507812 135.679688 130.476562 135.679688 Z M 130.660156 132.632812 L 130.660156 135.171875 L 135.554688 132.414062 L 135.554688 129.757812 Z M 130.660156 132.632812 " fill-opacity="1" fill-rule="nonzero"/></g><path fill="#ef0a1b" d="M 130.476562 132.714844 C 130.445312 132.714844 130.414062 132.703125 130.382812 132.6875 L 127.800781 131.140625 C 127.738281 131.105469 127.707031 131.050781 127.707031 130.980469 C 127.707031 130.90625 127.738281 130.855469 127.796875 130.816406 L 130.382812 129.234375 C 130.382812 129.234375 130.386719 129.230469 130.390625 129.230469 L 133.011719 127.757812 C 133.070312 127.722656 133.128906 127.722656 133.1875 127.757812 L 135.828125 129.269531 C 135.890625 129.304688 135.921875 129.359375 135.921875 129.433594 C 135.921875 129.503906 135.890625 129.558594 135.832031 129.597656 L 130.566406 132.6875 C 130.539062 132.707031 130.507812 132.714844 130.476562 132.714844 Z M 128.253906 130.976562 L 130.476562 132.308594 L 135.363281 129.433594 L 133.097656 128.136719 L 130.566406 129.558594 Z M 128.253906 130.976562 " fill-opacity="1" fill-rule="nonzero"/><path fill="#ef0a1b" d="M 135.738281 129.621094 C 135.707031 129.621094 135.675781 129.613281 135.648438 129.597656 L 133.007812 128.089844 C 132.945312 128.050781 132.914062 127.996094 132.914062 127.921875 L 132.925781 124.777344 C 132.925781 124.707031 132.953125 124.652344 133.015625 124.617188 C 133.078125 124.578125 133.136719 124.578125 133.199219 124.617188 L 135.828125 126.160156 C 135.890625 126.195312 135.921875 126.25 135.921875 126.324219 L 135.921875 129.433594 C 135.921875 129.558594 135.859375 129.621094 135.738281 129.621094 Z M 133.28125 127.8125 L 135.554688 129.113281 L 135.554688 126.433594 L 133.289062 125.105469 Z M 133.28125 127.8125 " fill-opacity="1" fill-rule="nonzero"/><g clip-path="url(#227f224d7c)"><path fill="#ef0a1b" d="M 135.738281 129.621094 C 135.617188 129.621094 135.554688 129.558594 135.554688 129.433594 L 135.554688 126.324219 C 135.554688 126.25 135.585938 126.195312 135.648438 126.160156 L 138.289062 124.613281 C 138.347656 124.578125 138.410156 124.578125 138.472656 124.617188 C 138.53125 124.652344 138.5625 124.707031 138.5625 124.777344 L 138.5625 127.921875 C 138.5625 127.996094 138.53125 128.050781 138.46875 128.089844 L 135.828125 129.597656 C 135.800781 129.613281 135.769531 129.621094 135.738281 129.621094 Z M 135.921875 126.433594 L 135.921875 129.113281 L 138.195312 127.8125 L 138.195312 125.105469 Z M 135.921875 126.433594 " fill-opacity="1" fill-rule="nonzero"/></g><g clip-path="url(#7401119828)"><path fill="#ef0a1b" d="M 135.738281 126.511719 C 135.707031 126.511719 135.675781 126.503906 135.648438 126.484375 L 133.015625 124.941406 C 132.953125 124.90625 132.925781 124.851562 132.925781 124.777344 C 132.925781 124.703125 132.957031 124.652344 133.019531 124.613281 L 135.648438 123.097656 C 135.707031 123.0625 135.769531 123.0625 135.828125 123.097656 L 138.46875 124.613281 C 138.53125 124.648438 138.5625 124.703125 138.5625 124.777344 C 138.5625 124.851562 138.53125 124.90625 138.46875 124.941406 L 135.828125 126.488281 C 135.800781 126.503906 135.769531 126.511719 135.738281 126.511719 Z M 133.480469 124.78125 L 135.738281 126.105469 L 138.003906 124.78125 L 135.738281 123.480469 Z M 133.480469 124.78125 " fill-opacity="1" fill-rule="nonzero"/></g><g fill="#f6f6f6" fill-opacity="1"><g transform="translate(9.120624, 177.599645)"><g><path d="M 5.515625 0.078125 C 4.828125 0.078125 4.175781 -0.0625 3.5625 -0.34375 C 2.945312 -0.625 2.40625 -1.007812 1.9375 -1.5 C 1.476562 -1.988281 1.117188 -2.5625 0.859375 -3.21875 C 0.609375 -3.882812 0.484375 -4.597656 0.484375 -5.359375 C 0.484375 -6.085938 0.609375 -6.769531 0.859375 -7.40625 C 1.117188 -8.050781 1.484375 -8.617188 1.953125 -9.109375 C 2.421875 -9.597656 2.96875 -9.984375 3.59375 -10.265625 C 4.226562 -10.546875 4.910156 -10.6875 5.640625 -10.6875 C 6.640625 -10.6875 7.492188 -10.472656 8.203125 -10.046875 C 8.921875 -9.617188 9.457031 -9.054688 9.8125 -8.359375 L 8.28125 -7.234375 C 8.007812 -7.753906 7.628906 -8.15625 7.140625 -8.4375 C 6.660156 -8.71875 6.140625 -8.859375 5.578125 -8.859375 C 5.128906 -8.859375 4.71875 -8.765625 4.34375 -8.578125 C 3.976562 -8.390625 3.660156 -8.128906 3.390625 -7.796875 C 3.117188 -7.460938 2.910156 -7.082031 2.765625 -6.65625 C 2.617188 -6.226562 2.546875 -5.773438 2.546875 -5.296875 C 2.546875 -4.796875 2.625 -4.328125 2.78125 -3.890625 C 2.9375 -3.460938 3.15625 -3.085938 3.4375 -2.765625 C 3.726562 -2.453125 4.0625 -2.203125 4.4375 -2.015625 C 4.8125 -1.835938 5.226562 -1.75 5.6875 -1.75 C 6.226562 -1.75 6.742188 -1.882812 7.234375 -2.15625 C 7.734375 -2.4375 8.195312 -2.847656 8.625 -3.390625 L 8.625 -1.359375 C 7.738281 -0.398438 6.703125 0.078125 5.515625 0.078125 Z M 8.46875 -3.9375 L 6.328125 -3.9375 L 6.328125 -5.453125 L 10.171875 -5.453125 L 10.171875 0 L 8.46875 0 Z M 8.46875 -3.9375 "/></g></g></g><g fill="#f6f6f6" fill-opacity="1"><g transform="translate(19.954419, 177.599645)"><g><path d="M 5.578125 -6.09375 C 4.960938 -6.09375 4.414062 -5.972656 3.9375 -5.734375 C 3.457031 -5.503906 3.113281 -5.171875 2.90625 -4.734375 L 2.90625 0 L 0.90625 0 L 0.90625 -7.828125 L 2.75 -7.828125 L 2.75 -6.15625 C 3.03125 -6.6875 3.382812 -7.109375 3.8125 -7.421875 C 4.238281 -7.734375 4.691406 -7.90625 5.171875 -7.9375 C 5.273438 -7.9375 5.359375 -7.9375 5.421875 -7.9375 C 5.484375 -7.9375 5.535156 -7.929688 5.578125 -7.921875 Z M 5.578125 -6.09375 "/></g></g></g><g fill="#f6f6f6" fill-opacity="1"><g transform="translate(25.737422, 177.599645)"><g><path d="M 4.53125 0.15625 C 3.882812 0.15625 3.304688 0.046875 2.796875 -0.171875 C 2.296875 -0.390625 1.867188 -0.6875 1.515625 -1.0625 C 1.160156 -1.4375 0.890625 -1.867188 0.703125 -2.359375 C 0.515625 -2.847656 0.421875 -3.363281 0.421875 -3.90625 C 0.421875 -4.445312 0.515625 -4.960938 0.703125 -5.453125 C 0.890625 -5.941406 1.160156 -6.375 1.515625 -6.75 C 1.867188 -7.125 2.296875 -7.421875 2.796875 -7.640625 C 3.304688 -7.859375 3.882812 -7.96875 4.53125 -7.96875 C 5.164062 -7.96875 5.734375 -7.859375 6.234375 -7.640625 C 6.734375 -7.421875 7.160156 -7.125 7.515625 -6.75 C 7.878906 -6.375 8.15625 -5.941406 8.34375 -5.453125 C 8.53125 -4.960938 8.625 -4.445312 8.625 -3.90625 C 8.625 -3.363281 8.53125 -2.847656 8.34375 -2.359375 C 8.15625 -1.867188 7.882812 -1.4375 7.53125 -1.0625 C 7.175781 -0.6875 6.742188 -0.390625 6.234375 -0.171875 C 5.734375 0.046875 5.164062 0.15625 4.53125 0.15625 Z M 2.484375 -3.90625 C 2.484375 -3.445312 2.570312 -3.039062 2.75 -2.6875 C 2.925781 -2.332031 3.164062 -2.050781 3.46875 -1.84375 C 3.78125 -1.644531 4.132812 -1.546875 4.53125 -1.546875 C 4.90625 -1.546875 5.242188 -1.648438 5.546875 -1.859375 C 5.859375 -2.066406 6.109375 -2.34375 6.296875 -2.6875 C 6.484375 -3.039062 6.578125 -3.445312 6.578125 -3.90625 C 6.578125 -4.351562 6.484375 -4.753906 6.296875 -5.109375 C 6.109375 -5.472656 5.859375 -5.753906 5.546875 -5.953125 C 5.242188 -6.160156 4.90625 -6.265625 4.53125 -6.265625 C 4.132812 -6.265625 3.78125 -6.160156 3.46875 -5.953125 C 3.164062 -5.742188 2.925781 -5.460938 2.75 -5.109375 C 2.570312 -4.753906 2.484375 -4.351562 2.484375 -3.90625 Z M 2.484375 -3.90625 "/></g></g></g><g fill="#f6f6f6" fill-opacity="1"><g transform="translate(34.792986, 177.599645)"><g><path d="M 0.84375 -2.921875 L 0.84375 -7.828125 L 2.84375 -7.828125 L 2.84375 -3.359375 C 2.84375 -2.765625 2.953125 -2.3125 3.171875 -2 C 3.390625 -1.695312 3.710938 -1.546875 4.140625 -1.546875 C 4.398438 -1.546875 4.65625 -1.597656 4.90625 -1.703125 C 5.15625 -1.804688 5.390625 -1.960938 5.609375 -2.171875 C 5.828125 -2.390625 6.007812 -2.65625 6.15625 -2.96875 L 6.15625 -7.828125 L 8.15625 -7.828125 L 8.15625 -2.234375 C 8.15625 -2.023438 8.191406 -1.875 8.265625 -1.78125 C 8.335938 -1.695312 8.460938 -1.644531 8.640625 -1.625 L 8.640625 0 C 8.429688 0.03125 8.257812 0.0507812 8.125 0.0625 C 8 0.0820312 7.878906 0.09375 7.765625 0.09375 C 7.410156 0.09375 7.117188 0.0078125 6.890625 -0.15625 C 6.671875 -0.320312 6.539062 -0.550781 6.5 -0.84375 L 6.453125 -1.46875 C 6.109375 -0.9375 5.660156 -0.53125 5.109375 -0.25 C 4.554688 0.0195312 3.953125 0.15625 3.296875 0.15625 C 2.492188 0.15625 1.882812 -0.101562 1.46875 -0.625 C 1.050781 -1.15625 0.84375 -1.921875 0.84375 -2.921875 Z M 0.84375 -2.921875 "/></g></g></g><g fill="#f6f6f6" fill-opacity="1"><g transform="translate(44.027861, 177.599645)"><g><path d="M 5.59375 0.15625 C 4.988281 0.15625 4.453125 0.0195312 3.984375 -0.25 C 3.523438 -0.53125 3.164062 -0.90625 2.90625 -1.375 L 2.90625 3.1875 L 0.90625 3.1875 L 0.90625 -7.828125 L 2.65625 -7.828125 L 2.65625 -6.484375 C 2.957031 -6.941406 3.335938 -7.300781 3.796875 -7.5625 C 4.253906 -7.832031 4.773438 -7.96875 5.359375 -7.96875 C 5.890625 -7.96875 6.375 -7.859375 6.8125 -7.640625 C 7.257812 -7.429688 7.644531 -7.140625 7.96875 -6.765625 C 8.300781 -6.398438 8.554688 -5.972656 8.734375 -5.484375 C 8.921875 -5.003906 9.015625 -4.484375 9.015625 -3.921875 C 9.015625 -3.171875 8.867188 -2.484375 8.578125 -1.859375 C 8.285156 -1.242188 7.882812 -0.753906 7.375 -0.390625 C 6.863281 -0.0234375 6.269531 0.15625 5.59375 0.15625 Z M 4.921875 -1.546875 C 5.234375 -1.546875 5.515625 -1.609375 5.765625 -1.734375 C 6.015625 -1.867188 6.226562 -2.046875 6.40625 -2.265625 C 6.59375 -2.492188 6.734375 -2.75 6.828125 -3.03125 C 6.921875 -3.320312 6.96875 -3.617188 6.96875 -3.921875 C 6.96875 -4.253906 6.914062 -4.5625 6.8125 -4.84375 C 6.707031 -5.125 6.554688 -5.367188 6.359375 -5.578125 C 6.160156 -5.796875 5.925781 -5.960938 5.65625 -6.078125 C 5.394531 -6.203125 5.113281 -6.265625 4.8125 -6.265625 C 4.625 -6.265625 4.429688 -6.226562 4.234375 -6.15625 C 4.035156 -6.09375 3.847656 -6 3.671875 -5.875 C 3.492188 -5.757812 3.335938 -5.625 3.203125 -5.46875 C 3.066406 -5.3125 2.96875 -5.132812 2.90625 -4.9375 L 2.90625 -3.109375 C 3.03125 -2.816406 3.191406 -2.550781 3.390625 -2.3125 C 3.597656 -2.070312 3.835938 -1.882812 4.109375 -1.75 C 4.378906 -1.613281 4.648438 -1.546875 4.921875 -1.546875 Z M 4.921875 -1.546875 "/></g></g></g><g fill="#f6f6f6" fill-opacity="1"><g transform="translate(53.501832, 177.599645)"><g/></g></g><g fill="#f6f6f6" fill-opacity="1"><g transform="translate(57.088198, 177.599645)"><g><path d="M 1.109375 0 L 1.109375 -10.609375 L 3.171875 -10.609375 L 3.171875 -1.8125 L 8.578125 -1.8125 L 8.578125 0 Z M 1.109375 0 "/></g></g></g><g fill="#f6f6f6" fill-opacity="1"><g transform="translate(65.81501, 177.599645)"><g><path d="M 0.375 -2.3125 C 0.375 -2.820312 0.515625 -3.269531 0.796875 -3.65625 C 1.078125 -4.039062 1.472656 -4.335938 1.984375 -4.546875 C 2.492188 -4.753906 3.078125 -4.859375 3.734375 -4.859375 C 4.066406 -4.859375 4.398438 -4.832031 4.734375 -4.78125 C 5.078125 -4.726562 5.367188 -4.648438 5.609375 -4.546875 L 5.609375 -4.953125 C 5.609375 -5.453125 5.460938 -5.835938 5.171875 -6.109375 C 4.878906 -6.378906 4.445312 -6.515625 3.875 -6.515625 C 3.4375 -6.515625 3.023438 -6.4375 2.640625 -6.28125 C 2.253906 -6.132812 1.847656 -5.914062 1.421875 -5.625 L 0.78125 -6.953125 C 1.289062 -7.285156 1.816406 -7.535156 2.359375 -7.703125 C 2.910156 -7.878906 3.484375 -7.96875 4.078125 -7.96875 C 5.191406 -7.96875 6.0625 -7.6875 6.6875 -7.125 C 7.3125 -6.5625 7.625 -5.765625 7.625 -4.734375 L 7.625 -2.234375 C 7.625 -2.023438 7.660156 -1.875 7.734375 -1.78125 C 7.804688 -1.695312 7.925781 -1.644531 8.09375 -1.625 L 8.09375 0 C 7.914062 0.03125 7.753906 0.0546875 7.609375 0.078125 C 7.460938 0.0976562 7.34375 0.109375 7.25 0.109375 C 6.84375 0.109375 6.535156 0.0195312 6.328125 -0.15625 C 6.128906 -0.34375 6.003906 -0.566406 5.953125 -0.828125 L 5.921875 -1.21875 C 5.578125 -0.78125 5.148438 -0.441406 4.640625 -0.203125 C 4.140625 0.0351562 3.625 0.15625 3.09375 0.15625 C 2.570312 0.15625 2.101562 0.046875 1.6875 -0.171875 C 1.28125 -0.390625 0.957031 -0.679688 0.71875 -1.046875 C 0.488281 -1.421875 0.375 -1.84375 0.375 -2.3125 Z M 5.25 -1.90625 C 5.351562 -2.03125 5.4375 -2.148438 5.5 -2.265625 C 5.570312 -2.390625 5.609375 -2.5 5.609375 -2.59375 L 5.609375 -3.390625 C 5.378906 -3.492188 5.125 -3.570312 4.84375 -3.625 C 4.5625 -3.675781 4.296875 -3.703125 4.046875 -3.703125 C 3.523438 -3.703125 3.097656 -3.585938 2.765625 -3.359375 C 2.429688 -3.140625 2.265625 -2.847656 2.265625 -2.484375 C 2.265625 -2.285156 2.316406 -2.09375 2.421875 -1.90625 C 2.535156 -1.726562 2.695312 -1.582031 2.90625 -1.46875 C 3.113281 -1.363281 3.363281 -1.3125 3.65625 -1.3125 C 3.957031 -1.3125 4.25 -1.367188 4.53125 -1.484375 C 4.820312 -1.597656 5.0625 -1.738281 5.25 -1.90625 Z M 5.25 -1.90625 "/></g></g></g><g fill="#f6f6f6" fill-opacity="1"><g transform="translate(74.392392, 177.599645)"><g><path d="M 5.359375 0.15625 C 4.765625 0.15625 4.234375 0.0195312 3.765625 -0.25 C 3.296875 -0.519531 2.925781 -0.890625 2.65625 -1.359375 L 2.65625 0 L 0.90625 0 L 0.90625 -10.90625 L 2.90625 -10.90625 L 2.90625 -6.453125 C 3.1875 -6.921875 3.550781 -7.289062 4 -7.5625 C 4.457031 -7.832031 4.988281 -7.96875 5.59375 -7.96875 C 6.101562 -7.96875 6.566406 -7.859375 6.984375 -7.640625 C 7.410156 -7.421875 7.773438 -7.125 8.078125 -6.75 C 8.378906 -6.375 8.609375 -5.941406 8.765625 -5.453125 C 8.929688 -4.960938 9.015625 -4.441406 9.015625 -3.890625 C 9.015625 -3.328125 8.921875 -2.800781 8.734375 -2.3125 C 8.554688 -1.820312 8.300781 -1.390625 7.96875 -1.015625 C 7.644531 -0.648438 7.257812 -0.363281 6.8125 -0.15625 C 6.375 0.0507812 5.890625 0.15625 5.359375 0.15625 Z M 4.8125 -1.546875 C 5.125 -1.546875 5.410156 -1.609375 5.671875 -1.734375 C 5.941406 -1.859375 6.171875 -2.023438 6.359375 -2.234375 C 6.554688 -2.441406 6.707031 -2.6875 6.8125 -2.96875 C 6.914062 -3.257812 6.96875 -3.5625 6.96875 -3.875 C 6.96875 -4.300781 6.878906 -4.691406 6.703125 -5.046875 C 6.535156 -5.410156 6.300781 -5.703125 6 -5.921875 C 5.695312 -6.148438 5.335938 -6.265625 4.921875 -6.265625 C 4.640625 -6.265625 4.363281 -6.195312 4.09375 -6.0625 C 3.832031 -5.925781 3.597656 -5.742188 3.390625 -5.515625 C 3.191406 -5.285156 3.03125 -5.023438 2.90625 -4.734375 L 2.90625 -2.875 C 2.96875 -2.664062 3.066406 -2.484375 3.203125 -2.328125 C 3.335938 -2.171875 3.492188 -2.035156 3.671875 -1.921875 C 3.847656 -1.804688 4.035156 -1.710938 4.234375 -1.640625 C 4.429688 -1.578125 4.625 -1.546875 4.8125 -1.546875 Z M 4.8125 -1.546875 "/></g></g></g><g fill="#f6f6f6" fill-opacity="1"><g transform="translate(83.866363, 177.599645)"><g><path d="M 5.6875 -3.53125 C 6.101562 -3.457031 6.46875 -3.296875 6.78125 -3.046875 C 7.09375 -2.804688 7.332031 -2.492188 7.5 -2.109375 C 7.675781 -1.734375 7.765625 -1.316406 7.765625 -0.859375 C 7.765625 -0.242188 7.601562 0.289062 7.28125 0.75 C 6.96875 1.207031 6.519531 1.5625 5.9375 1.8125 C 5.351562 2.070312 4.671875 2.203125 3.890625 2.203125 C 3.128906 2.203125 2.457031 2.078125 1.875 1.828125 C 1.289062 1.585938 0.804688 1.234375 0.421875 0.765625 L 1.546875 -0.65625 C 1.804688 -0.332031 2.117188 -0.0820312 2.484375 0.09375 C 2.847656 0.28125 3.296875 0.375 3.828125 0.375 C 4.429688 0.375 4.890625 0.25 5.203125 0 C 5.523438 -0.238281 5.6875 -0.601562 5.6875 -1.09375 C 5.6875 -1.601562 5.5 -2 5.125 -2.28125 C 4.757812 -2.5625 4.207031 -2.703125 3.46875 -2.703125 L 3.046875 -2.703125 L 3.046875 -4.203125 L 3.515625 -4.203125 C 4.117188 -4.203125 4.59375 -4.335938 4.9375 -4.609375 C 5.28125 -4.890625 5.453125 -5.238281 5.453125 -5.65625 C 5.453125 -5.925781 5.382812 -6.148438 5.25 -6.328125 C 5.125 -6.515625 4.945312 -6.648438 4.71875 -6.734375 C 4.5 -6.828125 4.238281 -6.875 3.9375 -6.875 C 3.488281 -6.875 3.082031 -6.769531 2.71875 -6.5625 C 2.351562 -6.351562 2.054688 -6.054688 1.828125 -5.671875 L 0.5625 -7.078125 C 0.769531 -7.390625 1.054688 -7.65625 1.421875 -7.875 C 1.785156 -8.101562 2.203125 -8.28125 2.671875 -8.40625 C 3.148438 -8.539062 3.648438 -8.609375 4.171875 -8.609375 C 4.847656 -8.609375 5.441406 -8.5 5.953125 -8.28125 C 6.460938 -8.0625 6.863281 -7.75 7.15625 -7.34375 C 7.445312 -6.945312 7.59375 -6.484375 7.59375 -5.953125 C 7.59375 -5.566406 7.507812 -5.195312 7.34375 -4.84375 C 7.1875 -4.5 6.96875 -4.207031 6.6875 -3.96875 C 6.40625 -3.738281 6.070312 -3.59375 5.6875 -3.53125 Z M 5.6875 -3.53125 "/></g></g></g><g fill="#f6f6f6" fill-opacity="1"><g transform="translate(92.204649, 177.599645)"><g><path d="M 1.03125 -5.59375 L 1.03125 -7.734375 L 2.65625 -7.734375 L 2.65625 -5.59375 Z M 1.03125 0 L 1.03125 -2.15625 L 2.65625 -2.15625 L 2.65625 0 Z M 1.03125 0 "/></g></g></g><g fill="#f6f6f6" fill-opacity="1"><g transform="translate(95.895617, 177.599645)"><g/></g></g><g fill="#f6f6f6" fill-opacity="1"><g transform="translate(99.481983, 177.599645)"><g><path d="M 3.984375 -10.609375 L 6.078125 -10.609375 L 9.984375 0 L 7.859375 0 L 6.875 -2.640625 L 3.171875 -2.640625 L 2.203125 0 L 0.078125 0 Z M 6.5 -4.09375 L 5.03125 -8.46875 L 3.515625 -4.09375 Z M 6.5 -4.09375 "/></g></g></g><g fill="#f6f6f6" fill-opacity="1"><g transform="translate(109.52379, 177.599645)"><g><path d="M 5.59375 0.15625 C 4.988281 0.15625 4.453125 0.0195312 3.984375 -0.25 C 3.523438 -0.53125 3.164062 -0.90625 2.90625 -1.375 L 2.90625 3.1875 L 0.90625 3.1875 L 0.90625 -7.828125 L 2.65625 -7.828125 L 2.65625 -6.484375 C 2.957031 -6.941406 3.335938 -7.300781 3.796875 -7.5625 C 4.253906 -7.832031 4.773438 -7.96875 5.359375 -7.96875 C 5.890625 -7.96875 6.375 -7.859375 6.8125 -7.640625 C 7.257812 -7.429688 7.644531 -7.140625 7.96875 -6.765625 C 8.300781 -6.398438 8.554688 -5.972656 8.734375 -5.484375 C 8.921875 -5.003906 9.015625 -4.484375 9.015625 -3.921875 C 9.015625 -3.171875 8.867188 -2.484375 8.578125 -1.859375 C 8.285156 -1.242188 7.882812 -0.753906 7.375 -0.390625 C 6.863281 -0.0234375 6.269531 0.15625 5.59375 0.15625 Z M 4.921875 -1.546875 C 5.234375 -1.546875 5.515625 -1.609375 5.765625 -1.734375 C 6.015625 -1.867188 6.226562 -2.046875 6.40625 -2.265625 C 6.59375 -2.492188 6.734375 -2.75 6.828125 -3.03125 C 6.921875 -3.320312 6.96875 -3.617188 6.96875 -3.921875 C 6.96875 -4.253906 6.914062 -4.5625 6.8125 -4.84375 C 6.707031 -5.125 6.554688 -5.367188 6.359375 -5.578125 C 6.160156 -5.796875 5.925781 -5.960938 5.65625 -6.078125 C 5.394531 -6.203125 5.113281 -6.265625 4.8125 -6.265625 C 4.625 -6.265625 4.429688 -6.226562 4.234375 -6.15625 C 4.035156 -6.09375 3.847656 -6 3.671875 -5.875 C 3.492188 -5.757812 3.335938 -5.625 3.203125 -5.46875 C 3.066406 -5.3125 2.96875 -5.132812 2.90625 -4.9375 L 2.90625 -3.109375 C 3.03125 -2.816406 3.191406 -2.550781 3.390625 -2.3125 C 3.597656 -2.070312 3.835938 -1.882812 4.109375 -1.75 C 4.378906 -1.613281 4.648438 -1.546875 4.921875 -1.546875 Z M 4.921875 -1.546875 "/></g></g></g><g fill="#f6f6f6" fill-opacity="1"><g transform="translate(118.997762, 177.599645)"><g><path d="M 5.59375 0.15625 C 4.988281 0.15625 4.453125 0.0195312 3.984375 -0.25 C 3.523438 -0.53125 3.164062 -0.90625 2.90625 -1.375 L 2.90625 3.1875 L 0.90625 3.1875 L 0.90625 -7.828125 L 2.65625 -7.828125 L 2.65625 -6.484375 C 2.957031 -6.941406 3.335938 -7.300781 3.796875 -7.5625 C 4.253906 -7.832031 4.773438 -7.96875 5.359375 -7.96875 C 5.890625 -7.96875 6.375 -7.859375 6.8125 -7.640625 C 7.257812 -7.429688 7.644531 -7.140625 7.96875 -6.765625 C 8.300781 -6.398438 8.554688 -5.972656 8.734375 -5.484375 C 8.921875 -5.003906 9.015625 -4.484375 9.015625 -3.921875 C 9.015625 -3.171875 8.867188 -2.484375 8.578125 -1.859375 C 8.285156 -1.242188 7.882812 -0.753906 7.375 -0.390625 C 6.863281 -0.0234375 6.269531 0.15625 5.59375 0.15625 Z M 4.921875 -1.546875 C 5.234375 -1.546875 5.515625 -1.609375 5.765625 -1.734375 C 6.015625 -1.867188 6.226562 -2.046875 6.40625 -2.265625 C 6.59375 -2.492188 6.734375 -2.75 6.828125 -3.03125 C 6.921875 -3.320312 6.96875 -3.617188 6.96875 -3.921875 C 6.96875 -4.253906 6.914062 -4.5625 6.8125 -4.84375 C 6.707031 -5.125 6.554688 -5.367188 6.359375 -5.578125 C 6.160156 -5.796875 5.925781 -5.960938 5.65625 -6.078125 C 5.394531 -6.203125 5.113281 -6.265625 4.8125 -6.265625 C 4.625 -6.265625 4.429688 -6.226562 4.234375 -6.15625 C 4.035156 -6.09375 3.847656 -6 3.671875 -5.875 C 3.492188 -5.757812 3.335938 -5.625 3.203125 -5.46875 C 3.066406 -5.3125 2.96875 -5.132812 2.90625 -4.9375 L 2.90625 -3.109375 C 3.03125 -2.816406 3.191406 -2.550781 3.390625 -2.3125 C 3.597656 -2.070312 3.835938 -1.882812 4.109375 -1.75 C 4.378906 -1.613281 4.648438 -1.546875 4.921875 -1.546875 Z M 4.921875 -1.546875 "/></g></g></g><g fill="#f6f6f6" fill-opacity="1"><g transform="translate(128.471733, 177.599645)"><g><path d="M 0.890625 -10.90625 L 2.890625 -10.90625 L 2.890625 -2.515625 C 2.890625 -2.148438 2.945312 -1.90625 3.0625 -1.78125 C 3.1875 -1.65625 3.351562 -1.59375 3.5625 -1.59375 C 3.726562 -1.59375 3.894531 -1.613281 4.0625 -1.65625 C 4.226562 -1.695312 4.378906 -1.75 4.515625 -1.8125 L 4.78125 -0.28125 C 4.507812 -0.15625 4.191406 -0.0546875 3.828125 0.015625 C 3.472656 0.0859375 3.15625 0.125 2.875 0.125 C 2.238281 0.125 1.75 -0.0390625 1.40625 -0.375 C 1.0625 -0.707031 0.890625 -1.1875 0.890625 -1.8125 Z M 0.890625 -10.90625 "/></g></g></g><g fill="#f6f6f6" fill-opacity="1"><g transform="translate(133.208718, 177.599645)"><g><path d="M 1.078125 1.53125 C 1.253906 1.5625 1.421875 1.59375 1.578125 1.625 C 1.734375 1.65625 1.863281 1.671875 1.96875 1.671875 C 2.15625 1.671875 2.3125 1.625 2.4375 1.53125 C 2.5625 1.4375 2.679688 1.265625 2.796875 1.015625 C 2.921875 0.773438 3.050781 0.4375 3.1875 0 L 0.09375 -7.828125 L 2.171875 -7.828125 L 4.265625 -2.046875 L 6.125 -7.828125 L 8.03125 -7.828125 L 4.75 1.546875 C 4.632812 1.898438 4.453125 2.21875 4.203125 2.5 C 3.960938 2.78125 3.660156 3.003906 3.296875 3.171875 C 2.929688 3.335938 2.523438 3.421875 2.078125 3.421875 C 1.921875 3.421875 1.757812 3.40625 1.59375 3.375 C 1.4375 3.351562 1.265625 3.3125 1.078125 3.25 Z M 1.078125 1.53125 "/></g></g></g><g fill="#f6f6f6" fill-opacity="1"><g transform="translate(141.427456, 177.599645)"><g><path d="M 0.90625 0 L 0.90625 -7.828125 L 2.90625 -7.828125 L 2.90625 0 Z M 0.90625 -8.921875 L 0.90625 -10.90625 L 2.90625 -10.90625 L 2.90625 -8.921875 Z M 0.90625 -8.921875 "/></g></g></g><g fill="#f6f6f6" fill-opacity="1"><g transform="translate(145.23796, 177.599645)"><g><path d="M 8.1875 0 L 6.1875 0 L 6.1875 -4.390625 C 6.1875 -5.015625 6.078125 -5.472656 5.859375 -5.765625 C 5.640625 -6.054688 5.332031 -6.203125 4.9375 -6.203125 C 4.675781 -6.203125 4.40625 -6.128906 4.125 -5.984375 C 3.851562 -5.847656 3.609375 -5.65625 3.390625 -5.40625 C 3.171875 -5.164062 3.007812 -4.890625 2.90625 -4.578125 L 2.90625 0 L 0.90625 0 L 0.90625 -7.828125 L 2.71875 -7.828125 L 2.71875 -6.375 C 2.914062 -6.71875 3.164062 -7.003906 3.46875 -7.234375 C 3.78125 -7.472656 4.140625 -7.65625 4.546875 -7.78125 C 4.953125 -7.90625 5.378906 -7.96875 5.828125 -7.96875 C 6.316406 -7.96875 6.71875 -7.878906 7.03125 -7.703125 C 7.34375 -7.523438 7.578125 -7.289062 7.734375 -7 C 7.898438 -6.707031 8.015625 -6.375 8.078125 -6 C 8.148438 -5.632812 8.1875 -5.265625 8.1875 -4.890625 Z M 8.1875 0 "/></g></g></g><g fill="#f6f6f6" fill-opacity="1"><g transform="translate(154.263631, 177.599645)"><g><path d="M 3.96875 0.046875 C 3.457031 0.046875 2.984375 -0.0507812 2.546875 -0.25 C 2.109375 -0.457031 1.734375 -0.742188 1.421875 -1.109375 C 1.109375 -1.484375 0.867188 -1.910156 0.703125 -2.390625 C 0.535156 -2.867188 0.453125 -3.375 0.453125 -3.90625 C 0.453125 -4.476562 0.539062 -5.007812 0.71875 -5.5 C 0.894531 -5.988281 1.144531 -6.414062 1.46875 -6.78125 C 1.789062 -7.15625 2.171875 -7.445312 2.609375 -7.65625 C 3.054688 -7.863281 3.550781 -7.96875 4.09375 -7.96875 C 4.695312 -7.96875 5.226562 -7.828125 5.6875 -7.546875 C 6.144531 -7.273438 6.523438 -6.910156 6.828125 -6.453125 L 6.828125 -7.828125 L 8.578125 -7.828125 L 8.578125 -0.375 C 8.578125 0.40625 8.390625 1.070312 8.015625 1.625 C 7.640625 2.175781 7.125 2.597656 6.46875 2.890625 C 5.8125 3.179688 5.066406 3.328125 4.234375 3.328125 C 3.378906 3.328125 2.65625 3.1875 2.0625 2.90625 C 1.476562 2.625 0.976562 2.222656 0.5625 1.703125 L 1.65625 0.640625 C 1.957031 1.003906 2.332031 1.289062 2.78125 1.5 C 3.238281 1.71875 3.722656 1.828125 4.234375 1.828125 C 4.660156 1.828125 5.050781 1.75 5.40625 1.59375 C 5.757812 1.4375 6.039062 1.195312 6.25 0.875 C 6.46875 0.550781 6.578125 0.132812 6.578125 -0.375 L 6.578125 -1.359375 C 6.316406 -0.910156 5.945312 -0.5625 5.46875 -0.3125 C 5 -0.0703125 4.5 0.046875 3.96875 0.046875 Z M 4.640625 -1.546875 C 4.859375 -1.546875 5.066406 -1.582031 5.265625 -1.65625 C 5.472656 -1.726562 5.660156 -1.820312 5.828125 -1.9375 C 5.992188 -2.0625 6.140625 -2.203125 6.265625 -2.359375 C 6.398438 -2.523438 6.503906 -2.695312 6.578125 -2.875 L 6.578125 -4.734375 C 6.453125 -5.046875 6.28125 -5.316406 6.0625 -5.546875 C 5.851562 -5.773438 5.613281 -5.953125 5.34375 -6.078125 C 5.082031 -6.203125 4.8125 -6.265625 4.53125 -6.265625 C 4.21875 -6.265625 3.9375 -6.195312 3.6875 -6.0625 C 3.4375 -5.9375 3.222656 -5.753906 3.046875 -5.515625 C 2.867188 -5.285156 2.734375 -5.023438 2.640625 -4.734375 C 2.546875 -4.453125 2.5 -4.160156 2.5 -3.859375 C 2.5 -3.535156 2.550781 -3.234375 2.65625 -2.953125 C 2.769531 -2.679688 2.921875 -2.4375 3.109375 -2.21875 C 3.304688 -2.007812 3.535156 -1.84375 3.796875 -1.71875 C 4.066406 -1.601562 4.347656 -1.546875 4.640625 -1.546875 Z M 4.640625 -1.546875 "/></g></g></g><g fill="#f6f6f6" fill-opacity="1"><g transform="translate(163.737602, 177.599645)"><g/></g></g><g fill="#f6f6f6" fill-opacity="1"><g transform="translate(167.323968, 177.599645)"><g><path d="M 9.75 0 L 9.75 -6.953125 L 7.03125 -1.78125 L 5.890625 -1.78125 L 3.171875 -6.953125 L 3.171875 0 L 1.109375 0 L 1.109375 -10.609375 L 3.3125 -10.609375 L 6.453125 -4.578125 L 9.625 -10.609375 L 11.8125 -10.609375 L 11.8125 0 Z M 9.75 0 "/></g></g></g><g fill="#f6f6f6" fill-opacity="1"><g transform="translate(180.24981, 177.599645)"><g><path d="M 0.90625 0 L 0.90625 -7.828125 L 2.90625 -7.828125 L 2.90625 0 Z M 0.90625 -8.921875 L 0.90625 -10.90625 L 2.90625 -10.90625 L 2.90625 -8.921875 Z M 0.90625 -8.921875 "/></g></g></g><g fill="#f6f6f6" fill-opacity="1"><g transform="translate(184.060315, 177.599645)"><g><path d="M 0.4375 -3.90625 C 0.4375 -4.664062 0.582031 -5.351562 0.875 -5.96875 C 1.175781 -6.582031 1.585938 -7.066406 2.109375 -7.421875 C 2.640625 -7.785156 3.242188 -7.96875 3.921875 -7.96875 C 4.503906 -7.96875 5.023438 -7.820312 5.484375 -7.53125 C 5.953125 -7.25 6.316406 -6.890625 6.578125 -6.453125 L 6.578125 -10.90625 L 8.578125 -10.90625 L 8.578125 -2.234375 C 8.578125 -2.023438 8.609375 -1.875 8.671875 -1.78125 C 8.742188 -1.695312 8.863281 -1.644531 9.03125 -1.625 L 9.03125 0 C 8.6875 0.0703125 8.40625 0.109375 8.1875 0.109375 C 7.820312 0.109375 7.523438 0.0195312 7.296875 -0.15625 C 7.066406 -0.34375 6.9375 -0.578125 6.90625 -0.859375 L 6.875 -1.359375 C 6.582031 -0.867188 6.1875 -0.492188 5.6875 -0.234375 C 5.195312 0.0234375 4.6875 0.15625 4.15625 0.15625 C 3.613281 0.15625 3.113281 0.0507812 2.65625 -0.15625 C 2.207031 -0.375 1.816406 -0.664062 1.484375 -1.03125 C 1.148438 -1.394531 0.890625 -1.820312 0.703125 -2.3125 C 0.523438 -2.8125 0.4375 -3.34375 0.4375 -3.90625 Z M 6.578125 -2.875 L 6.578125 -4.734375 C 6.472656 -5.023438 6.3125 -5.285156 6.09375 -5.515625 C 5.875 -5.742188 5.628906 -5.925781 5.359375 -6.0625 C 5.085938 -6.195312 4.820312 -6.265625 4.5625 -6.265625 C 4.25 -6.265625 3.96875 -6.195312 3.71875 -6.0625 C 3.46875 -5.9375 3.25 -5.765625 3.0625 -5.546875 C 2.882812 -5.328125 2.75 -5.070312 2.65625 -4.78125 C 2.5625 -4.488281 2.515625 -4.1875 2.515625 -3.875 C 2.515625 -3.550781 2.566406 -3.25 2.671875 -2.96875 C 2.773438 -2.6875 2.925781 -2.4375 3.125 -2.21875 C 3.320312 -2.007812 3.550781 -1.84375 3.8125 -1.71875 C 4.082031 -1.601562 4.367188 -1.546875 4.671875 -1.546875 C 4.859375 -1.546875 5.050781 -1.578125 5.25 -1.640625 C 5.445312 -1.710938 5.628906 -1.804688 5.796875 -1.921875 C 5.972656 -2.035156 6.128906 -2.171875 6.265625 -2.328125 C 6.398438 -2.492188 6.503906 -2.675781 6.578125 -2.875 Z M 6.578125 -2.875 "/></g></g></g><g fill="#f6f6f6" fill-opacity="1"><g transform="translate(193.698662, 177.599645)"><g><path d="M 0.4375 -3.90625 C 0.4375 -4.664062 0.582031 -5.351562 0.875 -5.96875 C 1.175781 -6.582031 1.585938 -7.066406 2.109375 -7.421875 C 2.640625 -7.785156 3.242188 -7.96875 3.921875 -7.96875 C 4.503906 -7.96875 5.023438 -7.820312 5.484375 -7.53125 C 5.953125 -7.25 6.316406 -6.890625 6.578125 -6.453125 L 6.578125 -10.90625 L 8.578125 -10.90625 L 8.578125 -2.234375 C 8.578125 -2.023438 8.609375 -1.875 8.671875 -1.78125 C 8.742188 -1.695312 8.863281 -1.644531 9.03125 -1.625 L 9.03125 0 C 8.6875 0.0703125 8.40625 0.109375 8.1875 0.109375 C 7.820312 0.109375 7.523438 0.0195312 7.296875 -0.15625 C 7.066406 -0.34375 6.9375 -0.578125 6.90625 -0.859375 L 6.875 -1.359375 C 6.582031 -0.867188 6.1875 -0.492188 5.6875 -0.234375 C 5.195312 0.0234375 4.6875 0.15625 4.15625 0.15625 C 3.613281 0.15625 3.113281 0.0507812 2.65625 -0.15625 C 2.207031 -0.375 1.816406 -0.664062 1.484375 -1.03125 C 1.148438 -1.394531 0.890625 -1.820312 0.703125 -2.3125 C 0.523438 -2.8125 0.4375 -3.34375 0.4375 -3.90625 Z M 6.578125 -2.875 L 6.578125 -4.734375 C 6.472656 -5.023438 6.3125 -5.285156 6.09375 -5.515625 C 5.875 -5.742188 5.628906 -5.925781 5.359375 -6.0625 C 5.085938 -6.195312 4.820312 -6.265625 4.5625 -6.265625 C 4.25 -6.265625 3.96875 -6.195312 3.71875 -6.0625 C 3.46875 -5.9375 3.25 -5.765625 3.0625 -5.546875 C 2.882812 -5.328125 2.75 -5.070312 2.65625 -4.78125 C 2.5625 -4.488281 2.515625 -4.1875 2.515625 -3.875 C 2.515625 -3.550781 2.566406 -3.25 2.671875 -2.96875 C 2.773438 -2.6875 2.925781 -2.4375 3.125 -2.21875 C 3.320312 -2.007812 3.550781 -1.84375 3.8125 -1.71875 C 4.082031 -1.601562 4.367188 -1.546875 4.671875 -1.546875 C 4.859375 -1.546875 5.050781 -1.578125 5.25 -1.640625 C 5.445312 -1.710938 5.628906 -1.804688 5.796875 -1.921875 C 5.972656 -2.035156 6.128906 -2.171875 6.265625 -2.328125 C 6.398438 -2.492188 6.503906 -2.675781 6.578125 -2.875 Z M 6.578125 -2.875 "/></g></g></g><g fill="#f6f6f6" fill-opacity="1"><g transform="translate(203.337009, 177.599645)"><g><path d="M 0.890625 -10.90625 L 2.890625 -10.90625 L 2.890625 -2.515625 C 2.890625 -2.148438 2.945312 -1.90625 3.0625 -1.78125 C 3.1875 -1.65625 3.351562 -1.59375 3.5625 -1.59375 C 3.726562 -1.59375 3.894531 -1.613281 4.0625 -1.65625 C 4.226562 -1.695312 4.378906 -1.75 4.515625 -1.8125 L 4.78125 -0.28125 C 4.507812 -0.15625 4.191406 -0.0546875 3.828125 0.015625 C 3.472656 0.0859375 3.15625 0.125 2.875 0.125 C 2.238281 0.125 1.75 -0.0390625 1.40625 -0.375 C 1.0625 -0.707031 0.890625 -1.1875 0.890625 -1.8125 Z M 0.890625 -10.90625 "/></g></g></g><g fill="#f6f6f6" fill-opacity="1"><g transform="translate(208.073994, 177.599645)"><g><path d="M 4.546875 0.15625 C 3.910156 0.15625 3.335938 0.046875 2.828125 -0.171875 C 2.328125 -0.390625 1.894531 -0.679688 1.53125 -1.046875 C 1.175781 -1.421875 0.898438 -1.847656 0.703125 -2.328125 C 0.515625 -2.816406 0.421875 -3.332031 0.421875 -3.875 C 0.421875 -4.613281 0.585938 -5.289062 0.921875 -5.90625 C 1.253906 -6.53125 1.726562 -7.03125 2.34375 -7.40625 C 2.96875 -7.78125 3.707031 -7.96875 4.5625 -7.96875 C 5.414062 -7.96875 6.144531 -7.78125 6.75 -7.40625 C 7.351562 -7.03125 7.816406 -6.535156 8.140625 -5.921875 C 8.472656 -5.304688 8.640625 -4.644531 8.640625 -3.9375 C 8.640625 -3.820312 8.632812 -3.703125 8.625 -3.578125 C 8.613281 -3.453125 8.601562 -3.347656 8.59375 -3.265625 L 2.546875 -3.265625 C 2.578125 -2.867188 2.691406 -2.519531 2.890625 -2.21875 C 3.085938 -1.925781 3.335938 -1.703125 3.640625 -1.546875 C 3.941406 -1.390625 4.265625 -1.3125 4.609375 -1.3125 C 5.015625 -1.3125 5.394531 -1.40625 5.75 -1.59375 C 6.101562 -1.789062 6.34375 -2.050781 6.46875 -2.375 L 8.1875 -1.890625 C 8 -1.492188 7.726562 -1.140625 7.375 -0.828125 C 7.019531 -0.523438 6.601562 -0.285156 6.125 -0.109375 C 5.644531 0.0664062 5.117188 0.15625 4.546875 0.15625 Z M 2.5 -4.546875 L 6.59375 -4.546875 C 6.550781 -4.941406 6.4375 -5.285156 6.25 -5.578125 C 6.0625 -5.867188 5.816406 -6.097656 5.515625 -6.265625 C 5.222656 -6.429688 4.894531 -6.515625 4.53125 -6.515625 C 4.164062 -6.515625 3.835938 -6.429688 3.546875 -6.265625 C 3.253906 -6.097656 3.015625 -5.867188 2.828125 -5.578125 C 2.640625 -5.285156 2.53125 -4.941406 2.5 -4.546875 Z M 2.5 -4.546875 "/></g></g></g><g fill="#f6f6f6" fill-opacity="1"><g transform="translate(217.024967, 177.599645)"><g><path d="M 10.625 -7.828125 L 12.515625 -7.828125 L 9.25 0 L 7.578125 0 L 6.265625 -3.359375 L 4.96875 0 L 3.28125 0 L 0.03125 -7.828125 L 1.90625 -7.828125 L 4.25 -1.90625 L 5.15625 -4.46875 L 3.796875 -7.8125 L 5.453125 -7.8125 L 6.265625 -5.421875 L 7.078125 -7.8125 L 8.734375 -7.8125 L 7.375 -4.46875 L 8.3125 -1.90625 Z M 10.625 -7.828125 "/></g></g></g><g fill="#f6f6f6" fill-opacity="1"><g transform="translate(229.562272, 177.599645)"><g><path d="M 0.375 -2.3125 C 0.375 -2.820312 0.515625 -3.269531 0.796875 -3.65625 C 1.078125 -4.039062 1.472656 -4.335938 1.984375 -4.546875 C 2.492188 -4.753906 3.078125 -4.859375 3.734375 -4.859375 C 4.066406 -4.859375 4.398438 -4.832031 4.734375 -4.78125 C 5.078125 -4.726562 5.367188 -4.648438 5.609375 -4.546875 L 5.609375 -4.953125 C 5.609375 -5.453125 5.460938 -5.835938 5.171875 -6.109375 C 4.878906 -6.378906 4.445312 -6.515625 3.875 -6.515625 C 3.4375 -6.515625 3.023438 -6.4375 2.640625 -6.28125 C 2.253906 -6.132812 1.847656 -5.914062 1.421875 -5.625 L 0.78125 -6.953125 C 1.289062 -7.285156 1.816406 -7.535156 2.359375 -7.703125 C 2.910156 -7.878906 3.484375 -7.96875 4.078125 -7.96875 C 5.191406 -7.96875 6.0625 -7.6875 6.6875 -7.125 C 7.3125 -6.5625 7.625 -5.765625 7.625 -4.734375 L 7.625 -2.234375 C 7.625 -2.023438 7.660156 -1.875 7.734375 -1.78125 C 7.804688 -1.695312 7.925781 -1.644531 8.09375 -1.625 L 8.09375 0 C 7.914062 0.03125 7.753906 0.0546875 7.609375 0.078125 C 7.460938 0.0976562 7.34375 0.109375 7.25 0.109375 C 6.84375 0.109375 6.535156 0.0195312 6.328125 -0.15625 C 6.128906 -0.34375 6.003906 -0.566406 5.953125 -0.828125 L 5.921875 -1.21875 C 5.578125 -0.78125 5.148438 -0.441406 4.640625 -0.203125 C 4.140625 0.0351562 3.625 0.15625 3.09375 0.15625 C 2.570312 0.15625 2.101562 0.046875 1.6875 -0.171875 C 1.28125 -0.390625 0.957031 -0.679688 0.71875 -1.046875 C 0.488281 -1.421875 0.375 -1.84375 0.375 -2.3125 Z M 5.25 -1.90625 C 5.351562 -2.03125 5.4375 -2.148438 5.5 -2.265625 C 5.570312 -2.390625 5.609375 -2.5 5.609375 -2.59375 L 5.609375 -3.390625 C 5.378906 -3.492188 5.125 -3.570312 4.84375 -3.625 C 4.5625 -3.675781 4.296875 -3.703125 4.046875 -3.703125 C 3.523438 -3.703125 3.097656 -3.585938 2.765625 -3.359375 C 2.429688 -3.140625 2.265625 -2.847656 2.265625 -2.484375 C 2.265625 -2.285156 2.316406 -2.09375 2.421875 -1.90625 C 2.535156 -1.726562 2.695312 -1.582031 2.90625 -1.46875 C 3.113281 -1.363281 3.363281 -1.3125 3.65625 -1.3125 C 3.957031 -1.3125 4.25 -1.367188 4.53125 -1.484375 C 4.820312 -1.597656 5.0625 -1.738281 5.25 -1.90625 Z M 5.25 -1.90625 "/></g></g></g><g fill="#f6f6f6" fill-opacity="1"><g transform="translate(238.139643, 177.599645)"><g><path d="M 5.578125 -6.09375 C 4.960938 -6.09375 4.414062 -5.972656 3.9375 -5.734375 C 3.457031 -5.503906 3.113281 -5.171875 2.90625 -4.734375 L 2.90625 0 L 0.90625 0 L 0.90625 -7.828125 L 2.75 -7.828125 L 2.75 -6.15625 C 3.03125 -6.6875 3.382812 -7.109375 3.8125 -7.421875 C 4.238281 -7.734375 4.691406 -7.90625 5.171875 -7.9375 C 5.273438 -7.9375 5.359375 -7.9375 5.421875 -7.9375 C 5.484375 -7.9375 5.535156 -7.929688 5.578125 -7.921875 Z M 5.578125 -6.09375 "/></g></g></g><g fill="#f6f6f6" fill-opacity="1"><g transform="translate(243.922647, 177.599645)"><g><path d="M 4.546875 0.15625 C 3.910156 0.15625 3.335938 0.046875 2.828125 -0.171875 C 2.328125 -0.390625 1.894531 -0.679688 1.53125 -1.046875 C 1.175781 -1.421875 0.898438 -1.847656 0.703125 -2.328125 C 0.515625 -2.816406 0.421875 -3.332031 0.421875 -3.875 C 0.421875 -4.613281 0.585938 -5.289062 0.921875 -5.90625 C 1.253906 -6.53125 1.726562 -7.03125 2.34375 -7.40625 C 2.96875 -7.78125 3.707031 -7.96875 4.5625 -7.96875 C 5.414062 -7.96875 6.144531 -7.78125 6.75 -7.40625 C 7.351562 -7.03125 7.816406 -6.535156 8.140625 -5.921875 C 8.472656 -5.304688 8.640625 -4.644531 8.640625 -3.9375 C 8.640625 -3.820312 8.632812 -3.703125 8.625 -3.578125 C 8.613281 -3.453125 8.601562 -3.347656 8.59375 -3.265625 L 2.546875 -3.265625 C 2.578125 -2.867188 2.691406 -2.519531 2.890625 -2.21875 C 3.085938 -1.925781 3.335938 -1.703125 3.640625 -1.546875 C 3.941406 -1.390625 4.265625 -1.3125 4.609375 -1.3125 C 5.015625 -1.3125 5.394531 -1.40625 5.75 -1.59375 C 6.101562 -1.789062 6.34375 -2.050781 6.46875 -2.375 L 8.1875 -1.890625 C 8 -1.492188 7.726562 -1.140625 7.375 -0.828125 C 7.019531 -0.523438 6.601562 -0.285156 6.125 -0.109375 C 5.644531 0.0664062 5.117188 0.15625 4.546875 0.15625 Z M 2.5 -4.546875 L 6.59375 -4.546875 C 6.550781 -4.941406 6.4375 -5.285156 6.25 -5.578125 C 6.0625 -5.867188 5.816406 -6.097656 5.515625 -6.265625 C 5.222656 -6.429688 4.894531 -6.515625 4.53125 -6.515625 C 4.164062 -6.515625 3.835938 -6.429688 3.546875 -6.265625 C 3.253906 -6.097656 3.015625 -5.867188 2.828125 -5.578125 C 2.640625 -5.285156 2.53125 -4.941406 2.5 -4.546875 Z M 2.5 -4.546875 "/></g></g></g><path fill="#eeeeee" d="M 143.082031 38.929688 L 176.550781 38.929688 C 177.480469 38.929688 178.375 39.300781 179.03125 39.957031 C 179.691406 40.617188 180.0625 41.507812 180.0625 42.441406 L 180.0625 49.464844 C 180.0625 50.394531 179.691406 51.289062 179.03125 51.949219 C 178.375 52.605469 177.480469 52.976562 176.550781 52.976562 L 143.082031 52.976562 C 141.140625 52.976562 139.570312 51.402344 139.570312 49.464844 L 139.570312 42.441406 C 139.570312 40.5 141.140625 38.929688 143.082031 38.929688 Z M 143.082031 38.929688 " fill-opacity="1" fill-rule="nonzero"/><g fill="#737373" fill-opacity="1"><g transform="translate(143.155701, 48.941368)"><g><path d="M 3.34375 -3.65625 C 2.976562 -3.65625 2.648438 -3.582031 2.359375 -3.4375 C 2.078125 -3.300781 1.875 -3.101562 1.75 -2.84375 L 1.75 0 L 0.546875 0 L 0.546875 -4.703125 L 1.65625 -4.703125 L 1.65625 -3.6875 C 1.820312 -4.007812 2.03125 -4.265625 2.28125 -4.453125 C 2.539062 -4.640625 2.816406 -4.742188 3.109375 -4.765625 C 3.171875 -4.765625 3.21875 -4.765625 3.25 -4.765625 C 3.289062 -4.765625 3.320312 -4.757812 3.34375 -4.75 Z M 3.34375 -3.65625 "/></g></g></g><g fill="#737373" fill-opacity="1"><g transform="translate(146.625528, 48.941368)"><g><path d="M 2.71875 0.09375 C 2.34375 0.09375 2.003906 0.03125 1.703125 -0.09375 C 1.398438 -0.226562 1.140625 -0.40625 0.921875 -0.625 C 0.703125 -0.851562 0.535156 -1.113281 0.421875 -1.40625 C 0.304688 -1.695312 0.25 -2.003906 0.25 -2.328125 C 0.25 -2.773438 0.347656 -3.179688 0.546875 -3.546875 C 0.753906 -3.921875 1.039062 -4.21875 1.40625 -4.4375 C 1.78125 -4.664062 2.222656 -4.78125 2.734375 -4.78125 C 3.242188 -4.78125 3.679688 -4.664062 4.046875 -4.4375 C 4.410156 -4.21875 4.691406 -3.921875 4.890625 -3.546875 C 5.085938 -3.179688 5.1875 -2.789062 5.1875 -2.375 C 5.1875 -2.300781 5.179688 -2.222656 5.171875 -2.140625 C 5.171875 -2.066406 5.164062 -2.007812 5.15625 -1.96875 L 1.53125 -1.96875 C 1.550781 -1.726562 1.617188 -1.515625 1.734375 -1.328125 C 1.847656 -1.148438 1.992188 -1.015625 2.171875 -0.921875 C 2.359375 -0.835938 2.554688 -0.796875 2.765625 -0.796875 C 3.003906 -0.796875 3.226562 -0.851562 3.4375 -0.96875 C 3.65625 -1.082031 3.804688 -1.234375 3.890625 -1.421875 L 4.921875 -1.140625 C 4.804688 -0.898438 4.640625 -0.6875 4.421875 -0.5 C 4.210938 -0.3125 3.960938 -0.164062 3.671875 -0.0625 C 3.390625 0.0390625 3.070312 0.09375 2.71875 0.09375 Z M 1.5 -2.71875 L 3.953125 -2.71875 C 3.929688 -2.957031 3.863281 -3.164062 3.75 -3.34375 C 3.644531 -3.519531 3.5 -3.65625 3.3125 -3.75 C 3.132812 -3.851562 2.9375 -3.90625 2.71875 -3.90625 C 2.5 -3.90625 2.300781 -3.851562 2.125 -3.75 C 1.945312 -3.65625 1.800781 -3.519531 1.6875 -3.34375 C 1.582031 -3.164062 1.519531 -2.957031 1.5 -2.71875 Z M 1.5 -2.71875 "/></g></g></g><g fill="#737373" fill-opacity="1"><g transform="translate(151.996144, 48.941368)"><g><path d="M 2.328125 0.09375 C 2.023438 0.09375 1.75 0.03125 1.5 -0.09375 C 1.25 -0.226562 1.03125 -0.40625 0.84375 -0.625 C 0.65625 -0.84375 0.507812 -1.101562 0.40625 -1.40625 C 0.3125 -1.707031 0.265625 -2.023438 0.265625 -2.359375 C 0.265625 -2.703125 0.316406 -3.019531 0.421875 -3.3125 C 0.535156 -3.601562 0.691406 -3.859375 0.890625 -4.078125 C 1.085938 -4.296875 1.320312 -4.46875 1.59375 -4.59375 C 1.863281 -4.71875 2.15625 -4.78125 2.46875 -4.78125 C 2.820312 -4.78125 3.132812 -4.695312 3.40625 -4.53125 C 3.6875 -4.363281 3.914062 -4.148438 4.09375 -3.890625 L 4.09375 -4.703125 L 5.140625 -4.703125 L 5.140625 1.90625 L 3.9375 1.90625 L 3.9375 -0.828125 C 3.582031 -0.210938 3.046875 0.09375 2.328125 0.09375 Z M 2.765625 -0.9375 C 2.941406 -0.9375 3.097656 -0.96875 3.234375 -1.03125 C 3.378906 -1.09375 3.507812 -1.179688 3.625 -1.296875 C 3.738281 -1.421875 3.84375 -1.554688 3.9375 -1.703125 L 3.9375 -2.8125 C 3.90625 -2.945312 3.847656 -3.070312 3.765625 -3.1875 C 3.691406 -3.300781 3.597656 -3.398438 3.484375 -3.484375 C 3.367188 -3.566406 3.25 -3.632812 3.125 -3.6875 C 3 -3.738281 2.875 -3.765625 2.75 -3.765625 C 2.5625 -3.765625 2.390625 -3.722656 2.234375 -3.640625 C 2.085938 -3.566406 1.957031 -3.460938 1.84375 -3.328125 C 1.726562 -3.191406 1.640625 -3.035156 1.578125 -2.859375 C 1.523438 -2.691406 1.5 -2.515625 1.5 -2.328125 C 1.5 -2.066406 1.550781 -1.832031 1.65625 -1.625 C 1.769531 -1.414062 1.921875 -1.25 2.109375 -1.125 C 2.296875 -1 2.515625 -0.9375 2.765625 -0.9375 Z M 2.765625 -0.9375 "/></g></g></g><g fill="#737373" fill-opacity="1"><g transform="translate(157.680565, 48.941368)"><g><path d="M 0.5 -1.765625 L 0.5 -4.703125 L 1.703125 -4.703125 L 1.703125 -2.015625 C 1.703125 -1.660156 1.765625 -1.390625 1.890625 -1.203125 C 2.023438 -1.023438 2.222656 -0.9375 2.484375 -0.9375 C 2.640625 -0.9375 2.789062 -0.96875 2.9375 -1.03125 C 3.09375 -1.09375 3.234375 -1.1875 3.359375 -1.3125 C 3.492188 -1.4375 3.601562 -1.59375 3.6875 -1.78125 L 3.6875 -4.703125 L 4.890625 -4.703125 L 4.890625 -1.34375 C 4.890625 -1.21875 4.910156 -1.128906 4.953125 -1.078125 C 5.003906 -1.023438 5.082031 -0.992188 5.1875 -0.984375 L 5.1875 0 C 5.0625 0.0195312 4.957031 0.03125 4.875 0.03125 C 4.800781 0.0390625 4.726562 0.046875 4.65625 0.046875 C 4.445312 0.046875 4.273438 0 4.140625 -0.09375 C 4.003906 -0.1875 3.925781 -0.320312 3.90625 -0.5 L 3.875 -0.875 C 3.664062 -0.5625 3.394531 -0.320312 3.0625 -0.15625 C 2.738281 0.0078125 2.378906 0.09375 1.984375 0.09375 C 1.492188 0.09375 1.125 -0.0625 0.875 -0.375 C 0.625 -0.695312 0.5 -1.160156 0.5 -1.765625 Z M 0.5 -1.765625 "/></g></g></g><g fill="#737373" fill-opacity="1"><g transform="translate(163.221531, 48.941368)"><g><path d="M 2.71875 0.09375 C 2.34375 0.09375 2.003906 0.03125 1.703125 -0.09375 C 1.398438 -0.226562 1.140625 -0.40625 0.921875 -0.625 C 0.703125 -0.851562 0.535156 -1.113281 0.421875 -1.40625 C 0.304688 -1.695312 0.25 -2.003906 0.25 -2.328125 C 0.25 -2.773438 0.347656 -3.179688 0.546875 -3.546875 C 0.753906 -3.921875 1.039062 -4.21875 1.40625 -4.4375 C 1.78125 -4.664062 2.222656 -4.78125 2.734375 -4.78125 C 3.242188 -4.78125 3.679688 -4.664062 4.046875 -4.4375 C 4.410156 -4.21875 4.691406 -3.921875 4.890625 -3.546875 C 5.085938 -3.179688 5.1875 -2.789062 5.1875 -2.375 C 5.1875 -2.300781 5.179688 -2.222656 5.171875 -2.140625 C 5.171875 -2.066406 5.164062 -2.007812 5.15625 -1.96875 L 1.53125 -1.96875 C 1.550781 -1.726562 1.617188 -1.515625 1.734375 -1.328125 C 1.847656 -1.148438 1.992188 -1.015625 2.171875 -0.921875 C 2.359375 -0.835938 2.554688 -0.796875 2.765625 -0.796875 C 3.003906 -0.796875 3.226562 -0.851562 3.4375 -0.96875 C 3.65625 -1.082031 3.804688 -1.234375 3.890625 -1.421875 L 4.921875 -1.140625 C 4.804688 -0.898438 4.640625 -0.6875 4.421875 -0.5 C 4.210938 -0.3125 3.960938 -0.164062 3.671875 -0.0625 C 3.390625 0.0390625 3.070312 0.09375 2.71875 0.09375 Z M 1.5 -2.71875 L 3.953125 -2.71875 C 3.929688 -2.957031 3.863281 -3.164062 3.75 -3.34375 C 3.644531 -3.519531 3.5 -3.65625 3.3125 -3.75 C 3.132812 -3.851562 2.9375 -3.90625 2.71875 -3.90625 C 2.5 -3.90625 2.300781 -3.851562 2.125 -3.75 C 1.945312 -3.65625 1.800781 -3.519531 1.6875 -3.34375 C 1.582031 -3.164062 1.519531 -2.957031 1.5 -2.71875 Z M 1.5 -2.71875 "/></g></g></g><g fill="#737373" fill-opacity="1"><g transform="translate(168.592147, 48.941368)"><g><path d="M 2.28125 0.09375 C 1.875 0.09375 1.488281 0.0234375 1.125 -0.109375 C 0.757812 -0.242188 0.445312 -0.4375 0.1875 -0.6875 L 0.625 -1.46875 C 0.90625 -1.238281 1.179688 -1.070312 1.453125 -0.96875 C 1.722656 -0.863281 1.984375 -0.8125 2.234375 -0.8125 C 2.460938 -0.8125 2.644531 -0.851562 2.78125 -0.9375 C 2.925781 -1.019531 3 -1.144531 3 -1.3125 C 3 -1.425781 2.957031 -1.515625 2.875 -1.578125 C 2.800781 -1.640625 2.691406 -1.691406 2.546875 -1.734375 C 2.398438 -1.785156 2.222656 -1.84375 2.015625 -1.90625 C 1.671875 -2.019531 1.378906 -2.128906 1.140625 -2.234375 C 0.910156 -2.335938 0.738281 -2.472656 0.625 -2.640625 C 0.507812 -2.804688 0.453125 -3.019531 0.453125 -3.28125 C 0.453125 -3.582031 0.53125 -3.84375 0.6875 -4.0625 C 0.84375 -4.289062 1.0625 -4.46875 1.34375 -4.59375 C 1.632812 -4.726562 1.96875 -4.796875 2.34375 -4.796875 C 2.6875 -4.796875 3.003906 -4.738281 3.296875 -4.625 C 3.597656 -4.519531 3.867188 -4.351562 4.109375 -4.125 L 3.625 -3.359375 C 3.394531 -3.546875 3.171875 -3.679688 2.953125 -3.765625 C 2.734375 -3.859375 2.515625 -3.90625 2.296875 -3.90625 C 2.171875 -3.90625 2.050781 -3.890625 1.9375 -3.859375 C 1.832031 -3.828125 1.742188 -3.773438 1.671875 -3.703125 C 1.597656 -3.640625 1.5625 -3.546875 1.5625 -3.421875 C 1.5625 -3.304688 1.59375 -3.21875 1.65625 -3.15625 C 1.726562 -3.09375 1.828125 -3.035156 1.953125 -2.984375 C 2.078125 -2.941406 2.234375 -2.890625 2.421875 -2.828125 C 2.796875 -2.710938 3.113281 -2.597656 3.375 -2.484375 C 3.632812 -2.378906 3.828125 -2.242188 3.953125 -2.078125 C 4.085938 -1.910156 4.15625 -1.6875 4.15625 -1.40625 C 4.15625 -0.9375 3.984375 -0.566406 3.640625 -0.296875 C 3.304688 -0.0351562 2.851562 0.09375 2.28125 0.09375 Z M 2.28125 0.09375 "/></g></g></g><g fill="#737373" fill-opacity="1"><g transform="translate(173.021335, 48.941368)"><g><path d="M 3.359375 -0.234375 C 3.253906 -0.191406 3.128906 -0.144531 2.984375 -0.09375 C 2.847656 -0.0390625 2.695312 0 2.53125 0.03125 C 2.363281 0.0625 2.195312 0.078125 2.03125 0.078125 C 1.8125 0.078125 1.609375 0.0390625 1.421875 -0.03125 C 1.234375 -0.113281 1.082031 -0.238281 0.96875 -0.40625 C 0.863281 -0.570312 0.8125 -0.796875 0.8125 -1.078125 L 0.8125 -3.78125 L 0.203125 -3.78125 L 0.203125 -4.703125 L 0.8125 -4.703125 L 0.8125 -6.21875 L 2.015625 -6.21875 L 2.015625 -4.703125 L 3 -4.703125 L 3 -3.78125 L 2.015625 -3.78125 L 2.015625 -1.484375 C 2.023438 -1.316406 2.070312 -1.195312 2.15625 -1.125 C 2.238281 -1.050781 2.34375 -1.015625 2.46875 -1.015625 C 2.59375 -1.015625 2.710938 -1.035156 2.828125 -1.078125 C 2.953125 -1.117188 3.050781 -1.15625 3.125 -1.1875 Z M 3.359375 -0.234375 "/></g></g></g><path fill="#eeeeee" d="M 89.90625 76.761719 L 129.667969 76.761719 C 130.597656 76.761719 131.492188 77.128906 132.152344 77.789062 C 132.808594 78.445312 133.179688 79.339844 133.179688 80.273438 L 133.179688 87.292969 C 133.179688 88.226562 132.808594 89.121094 132.152344 89.777344 C 131.492188 90.4375 130.597656 90.804688 129.667969 90.804688 L 89.90625 90.804688 C 87.96875 90.804688 86.394531 89.234375 86.394531 87.292969 L 86.394531 80.273438 C 86.394531 78.332031 87.96875 76.761719 89.90625 76.761719 Z M 89.90625 76.761719 " fill-opacity="1" fill-rule="nonzero"/><g fill="#737373" fill-opacity="1"><g transform="translate(89.982137, 86.771782)"><g><path d="M 3.34375 -3.65625 C 2.976562 -3.65625 2.648438 -3.582031 2.359375 -3.4375 C 2.078125 -3.300781 1.875 -3.101562 1.75 -2.84375 L 1.75 0 L 0.546875 0 L 0.546875 -4.703125 L 1.65625 -4.703125 L 1.65625 -3.6875 C 1.820312 -4.007812 2.03125 -4.265625 2.28125 -4.453125 C 2.539062 -4.640625 2.816406 -4.742188 3.109375 -4.765625 C 3.171875 -4.765625 3.21875 -4.765625 3.25 -4.765625 C 3.289062 -4.765625 3.320312 -4.757812 3.34375 -4.75 Z M 3.34375 -3.65625 "/></g></g></g><g fill="#737373" fill-opacity="1"><g transform="translate(93.451964, 86.771782)"><g><path d="M 2.71875 0.09375 C 2.34375 0.09375 2.003906 0.03125 1.703125 -0.09375 C 1.398438 -0.226562 1.140625 -0.40625 0.921875 -0.625 C 0.703125 -0.851562 0.535156 -1.113281 0.421875 -1.40625 C 0.304688 -1.695312 0.25 -2.003906 0.25 -2.328125 C 0.25 -2.773438 0.347656 -3.179688 0.546875 -3.546875 C 0.753906 -3.921875 1.039062 -4.21875 1.40625 -4.4375 C 1.78125 -4.664062 2.222656 -4.78125 2.734375 -4.78125 C 3.242188 -4.78125 3.679688 -4.664062 4.046875 -4.4375 C 4.410156 -4.21875 4.691406 -3.921875 4.890625 -3.546875 C 5.085938 -3.179688 5.1875 -2.789062 5.1875 -2.375 C 5.1875 -2.300781 5.179688 -2.222656 5.171875 -2.140625 C 5.171875 -2.066406 5.164062 -2.007812 5.15625 -1.96875 L 1.53125 -1.96875 C 1.550781 -1.726562 1.617188 -1.515625 1.734375 -1.328125 C 1.847656 -1.148438 1.992188 -1.015625 2.171875 -0.921875 C 2.359375 -0.835938 2.554688 -0.796875 2.765625 -0.796875 C 3.003906 -0.796875 3.226562 -0.851562 3.4375 -0.96875 C 3.65625 -1.082031 3.804688 -1.234375 3.890625 -1.421875 L 4.921875 -1.140625 C 4.804688 -0.898438 4.640625 -0.6875 4.421875 -0.5 C 4.210938 -0.3125 3.960938 -0.164062 3.671875 -0.0625 C 3.390625 0.0390625 3.070312 0.09375 2.71875 0.09375 Z M 1.5 -2.71875 L 3.953125 -2.71875 C 3.929688 -2.957031 3.863281 -3.164062 3.75 -3.34375 C 3.644531 -3.519531 3.5 -3.65625 3.3125 -3.75 C 3.132812 -3.851562 2.9375 -3.90625 2.71875 -3.90625 C 2.5 -3.90625 2.300781 -3.851562 2.125 -3.75 C 1.945312 -3.65625 1.800781 -3.519531 1.6875 -3.34375 C 1.582031 -3.164062 1.519531 -2.957031 1.5 -2.71875 Z M 1.5 -2.71875 "/></g></g></g><g fill="#737373" fill-opacity="1"><g transform="translate(98.82258, 86.771782)"><g><path d="M 2.28125 0.09375 C 1.875 0.09375 1.488281 0.0234375 1.125 -0.109375 C 0.757812 -0.242188 0.445312 -0.4375 0.1875 -0.6875 L 0.625 -1.46875 C 0.90625 -1.238281 1.179688 -1.070312 1.453125 -0.96875 C 1.722656 -0.863281 1.984375 -0.8125 2.234375 -0.8125 C 2.460938 -0.8125 2.644531 -0.851562 2.78125 -0.9375 C 2.925781 -1.019531 3 -1.144531 3 -1.3125 C 3 -1.425781 2.957031 -1.515625 2.875 -1.578125 C 2.800781 -1.640625 2.691406 -1.691406 2.546875 -1.734375 C 2.398438 -1.785156 2.222656 -1.84375 2.015625 -1.90625 C 1.671875 -2.019531 1.378906 -2.128906 1.140625 -2.234375 C 0.910156 -2.335938 0.738281 -2.472656 0.625 -2.640625 C 0.507812 -2.804688 0.453125 -3.019531 0.453125 -3.28125 C 0.453125 -3.582031 0.53125 -3.84375 0.6875 -4.0625 C 0.84375 -4.289062 1.0625 -4.46875 1.34375 -4.59375 C 1.632812 -4.726562 1.96875 -4.796875 2.34375 -4.796875 C 2.6875 -4.796875 3.003906 -4.738281 3.296875 -4.625 C 3.597656 -4.519531 3.867188 -4.351562 4.109375 -4.125 L 3.625 -3.359375 C 3.394531 -3.546875 3.171875 -3.679688 2.953125 -3.765625 C 2.734375 -3.859375 2.515625 -3.90625 2.296875 -3.90625 C 2.171875 -3.90625 2.050781 -3.890625 1.9375 -3.859375 C 1.832031 -3.828125 1.742188 -3.773438 1.671875 -3.703125 C 1.597656 -3.640625 1.5625 -3.546875 1.5625 -3.421875 C 1.5625 -3.304688 1.59375 -3.21875 1.65625 -3.15625 C 1.726562 -3.09375 1.828125 -3.035156 1.953125 -2.984375 C 2.078125 -2.941406 2.234375 -2.890625 2.421875 -2.828125 C 2.796875 -2.710938 3.113281 -2.597656 3.375 -2.484375 C 3.632812 -2.378906 3.828125 -2.242188 3.953125 -2.078125 C 4.085938 -1.910156 4.15625 -1.6875 4.15625 -1.40625 C 4.15625 -0.9375 3.984375 -0.566406 3.640625 -0.296875 C 3.304688 -0.0351562 2.851562 0.09375 2.28125 0.09375 Z M 2.28125 0.09375 "/></g></g></g><g fill="#737373" fill-opacity="1"><g transform="translate(103.251768, 86.771782)"><g><path d="M 3.359375 0.09375 C 2.992188 0.09375 2.671875 0.0078125 2.390625 -0.15625 C 2.117188 -0.320312 1.90625 -0.546875 1.75 -0.828125 L 1.75 1.90625 L 0.546875 1.90625 L 0.546875 -4.703125 L 1.59375 -4.703125 L 1.59375 -3.890625 C 1.769531 -4.171875 1.992188 -4.390625 2.265625 -4.546875 C 2.546875 -4.703125 2.863281 -4.78125 3.21875 -4.78125 C 3.53125 -4.78125 3.820312 -4.71875 4.09375 -4.59375 C 4.363281 -4.46875 4.59375 -4.289062 4.78125 -4.0625 C 4.976562 -3.84375 5.132812 -3.585938 5.25 -3.296875 C 5.363281 -3.003906 5.421875 -2.691406 5.421875 -2.359375 C 5.421875 -1.898438 5.332031 -1.484375 5.15625 -1.109375 C 4.976562 -0.742188 4.734375 -0.453125 4.421875 -0.234375 C 4.117188 -0.015625 3.765625 0.09375 3.359375 0.09375 Z M 2.953125 -0.9375 C 3.140625 -0.9375 3.304688 -0.972656 3.453125 -1.046875 C 3.609375 -1.128906 3.738281 -1.234375 3.84375 -1.359375 C 3.957031 -1.492188 4.039062 -1.644531 4.09375 -1.8125 C 4.15625 -1.988281 4.1875 -2.171875 4.1875 -2.359375 C 4.1875 -2.554688 4.15625 -2.738281 4.09375 -2.90625 C 4.03125 -3.070312 3.9375 -3.21875 3.8125 -3.34375 C 3.695312 -3.476562 3.5625 -3.582031 3.40625 -3.65625 C 3.25 -3.726562 3.078125 -3.765625 2.890625 -3.765625 C 2.773438 -3.765625 2.660156 -3.742188 2.546875 -3.703125 C 2.429688 -3.660156 2.316406 -3.601562 2.203125 -3.53125 C 2.097656 -3.457031 2.003906 -3.375 1.921875 -3.28125 C 1.835938 -3.1875 1.78125 -3.082031 1.75 -2.96875 L 1.75 -1.859375 C 1.820312 -1.691406 1.914062 -1.535156 2.03125 -1.390625 C 2.15625 -1.242188 2.296875 -1.128906 2.453125 -1.046875 C 2.617188 -0.972656 2.785156 -0.9375 2.953125 -0.9375 Z M 2.953125 -0.9375 "/></g></g></g><g fill="#737373" fill-opacity="1"><g transform="translate(108.93619, 86.771782)"><g><path d="M 2.71875 0.09375 C 2.332031 0.09375 1.988281 0.03125 1.6875 -0.09375 C 1.382812 -0.226562 1.125 -0.410156 0.90625 -0.640625 C 0.695312 -0.867188 0.535156 -1.128906 0.421875 -1.421875 C 0.304688 -1.710938 0.25 -2.019531 0.25 -2.34375 C 0.25 -2.664062 0.304688 -2.972656 0.421875 -3.265625 C 0.535156 -3.566406 0.695312 -3.828125 0.90625 -4.046875 C 1.125 -4.273438 1.382812 -4.453125 1.6875 -4.578125 C 1.988281 -4.710938 2.332031 -4.78125 2.71875 -4.78125 C 3.101562 -4.78125 3.445312 -4.710938 3.75 -4.578125 C 4.050781 -4.453125 4.304688 -4.273438 4.515625 -4.046875 C 4.734375 -3.828125 4.894531 -3.566406 5 -3.265625 C 5.113281 -2.972656 5.171875 -2.664062 5.171875 -2.34375 C 5.171875 -2.019531 5.113281 -1.710938 5 -1.421875 C 4.894531 -1.128906 4.734375 -0.867188 4.515625 -0.640625 C 4.304688 -0.410156 4.050781 -0.226562 3.75 -0.09375 C 3.445312 0.03125 3.101562 0.09375 2.71875 0.09375 Z M 1.484375 -2.34375 C 1.484375 -2.0625 1.535156 -1.816406 1.640625 -1.609375 C 1.753906 -1.398438 1.90625 -1.234375 2.09375 -1.109375 C 2.28125 -0.992188 2.488281 -0.9375 2.71875 -0.9375 C 2.945312 -0.9375 3.148438 -0.992188 3.328125 -1.109375 C 3.515625 -1.234375 3.664062 -1.398438 3.78125 -1.609375 C 3.894531 -1.828125 3.953125 -2.070312 3.953125 -2.34375 C 3.953125 -2.613281 3.894531 -2.859375 3.78125 -3.078125 C 3.664062 -3.296875 3.515625 -3.460938 3.328125 -3.578125 C 3.148438 -3.703125 2.945312 -3.765625 2.71875 -3.765625 C 2.488281 -3.765625 2.28125 -3.703125 2.09375 -3.578125 C 1.90625 -3.453125 1.753906 -3.28125 1.640625 -3.0625 C 1.535156 -2.851562 1.484375 -2.613281 1.484375 -2.34375 Z M 1.484375 -2.34375 "/></g></g></g><g fill="#737373" fill-opacity="1"><g transform="translate(114.369567, 86.771782)"><g><path d="M 4.921875 0 L 3.71875 0 L 3.71875 -2.640625 C 3.71875 -3.015625 3.648438 -3.285156 3.515625 -3.453125 C 3.378906 -3.628906 3.195312 -3.71875 2.96875 -3.71875 C 2.800781 -3.71875 2.632812 -3.675781 2.46875 -3.59375 C 2.3125 -3.507812 2.164062 -3.394531 2.03125 -3.25 C 1.90625 -3.101562 1.8125 -2.9375 1.75 -2.75 L 1.75 0 L 0.546875 0 L 0.546875 -4.703125 L 1.625 -4.703125 L 1.625 -3.828125 C 1.75 -4.035156 1.90625 -4.207031 2.09375 -4.34375 C 2.28125 -4.488281 2.492188 -4.597656 2.734375 -4.671875 C 2.972656 -4.742188 3.226562 -4.78125 3.5 -4.78125 C 3.789062 -4.78125 4.03125 -4.726562 4.21875 -4.625 C 4.40625 -4.519531 4.546875 -4.378906 4.640625 -4.203125 C 4.742188 -4.023438 4.816406 -3.828125 4.859375 -3.609375 C 4.898438 -3.390625 4.921875 -3.164062 4.921875 -2.9375 Z M 4.921875 0 "/></g></g></g><g fill="#737373" fill-opacity="1"><g transform="translate(119.78501, 86.771782)"><g><path d="M 2.28125 0.09375 C 1.875 0.09375 1.488281 0.0234375 1.125 -0.109375 C 0.757812 -0.242188 0.445312 -0.4375 0.1875 -0.6875 L 0.625 -1.46875 C 0.90625 -1.238281 1.179688 -1.070312 1.453125 -0.96875 C 1.722656 -0.863281 1.984375 -0.8125 2.234375 -0.8125 C 2.460938 -0.8125 2.644531 -0.851562 2.78125 -0.9375 C 2.925781 -1.019531 3 -1.144531 3 -1.3125 C 3 -1.425781 2.957031 -1.515625 2.875 -1.578125 C 2.800781 -1.640625 2.691406 -1.691406 2.546875 -1.734375 C 2.398438 -1.785156 2.222656 -1.84375 2.015625 -1.90625 C 1.671875 -2.019531 1.378906 -2.128906 1.140625 -2.234375 C 0.910156 -2.335938 0.738281 -2.472656 0.625 -2.640625 C 0.507812 -2.804688 0.453125 -3.019531 0.453125 -3.28125 C 0.453125 -3.582031 0.53125 -3.84375 0.6875 -4.0625 C 0.84375 -4.289062 1.0625 -4.46875 1.34375 -4.59375 C 1.632812 -4.726562 1.96875 -4.796875 2.34375 -4.796875 C 2.6875 -4.796875 3.003906 -4.738281 3.296875 -4.625 C 3.597656 -4.519531 3.867188 -4.351562 4.109375 -4.125 L 3.625 -3.359375 C 3.394531 -3.546875 3.171875 -3.679688 2.953125 -3.765625 C 2.734375 -3.859375 2.515625 -3.90625 2.296875 -3.90625 C 2.171875 -3.90625 2.050781 -3.890625 1.9375 -3.859375 C 1.832031 -3.828125 1.742188 -3.773438 1.671875 -3.703125 C 1.597656 -3.640625 1.5625 -3.546875 1.5625 -3.421875 C 1.5625 -3.304688 1.59375 -3.21875 1.65625 -3.15625 C 1.726562 -3.09375 1.828125 -3.035156 1.953125 -2.984375 C 2.078125 -2.941406 2.234375 -2.890625 2.421875 -2.828125 C 2.796875 -2.710938 3.113281 -2.597656 3.375 -2.484375 C 3.632812 -2.378906 3.828125 -2.242188 3.953125 -2.078125 C 4.085938 -1.910156 4.15625 -1.6875 4.15625 -1.40625 C 4.15625 -0.9375 3.984375 -0.566406 3.640625 -0.296875 C 3.304688 -0.0351562 2.851562 0.09375 2.28125 0.09375 Z M 2.28125 0.09375 "/></g></g></g><g fill="#737373" fill-opacity="1"><g transform="translate(124.214199, 86.771782)"><g><path d="M 2.71875 0.09375 C 2.34375 0.09375 2.003906 0.03125 1.703125 -0.09375 C 1.398438 -0.226562 1.140625 -0.40625 0.921875 -0.625 C 0.703125 -0.851562 0.535156 -1.113281 0.421875 -1.40625 C 0.304688 -1.695312 0.25 -2.003906 0.25 -2.328125 C 0.25 -2.773438 0.347656 -3.179688 0.546875 -3.546875 C 0.753906 -3.921875 1.039062 -4.21875 1.40625 -4.4375 C 1.78125 -4.664062 2.222656 -4.78125 2.734375 -4.78125 C 3.242188 -4.78125 3.679688 -4.664062 4.046875 -4.4375 C 4.410156 -4.21875 4.691406 -3.921875 4.890625 -3.546875 C 5.085938 -3.179688 5.1875 -2.789062 5.1875 -2.375 C 5.1875 -2.300781 5.179688 -2.222656 5.171875 -2.140625 C 5.171875 -2.066406 5.164062 -2.007812 5.15625 -1.96875 L 1.53125 -1.96875 C 1.550781 -1.726562 1.617188 -1.515625 1.734375 -1.328125 C 1.847656 -1.148438 1.992188 -1.015625 2.171875 -0.921875 C 2.359375 -0.835938 2.554688 -0.796875 2.765625 -0.796875 C 3.003906 -0.796875 3.226562 -0.851562 3.4375 -0.96875 C 3.65625 -1.082031 3.804688 -1.234375 3.890625 -1.421875 L 4.921875 -1.140625 C 4.804688 -0.898438 4.640625 -0.6875 4.421875 -0.5 C 4.210938 -0.3125 3.960938 -0.164062 3.671875 -0.0625 C 3.390625 0.0390625 3.070312 0.09375 2.71875 0.09375 Z M 1.5 -2.71875 L 3.953125 -2.71875 C 3.929688 -2.957031 3.863281 -3.164062 3.75 -3.34375 C 3.644531 -3.519531 3.5 -3.65625 3.3125 -3.75 C 3.132812 -3.851562 2.9375 -3.90625 2.71875 -3.90625 C 2.5 -3.90625 2.300781 -3.851562 2.125 -3.75 C 1.945312 -3.65625 1.800781 -3.519531 1.6875 -3.34375 C 1.582031 -3.164062 1.519531 -2.957031 1.5 -2.71875 Z M 1.5 -2.71875 "/></g></g></g></svg>